<?xml version="1.0" encoding="utf-8" standalone="no"?>
<!DOCTYPE svg PUBLIC "-//W3C//DTD SVG 1.1//EN"
  "http://www.w3.org/Graphics/SVG/1.1/DTD/svg11.dtd">
<svg xmlns:xlink="http://www.w3.org/1999/xlink" width="712.461034pt" height="664.948437pt" viewBox="0 0 712.461034 664.948437" xmlns="http://www.w3.org/2000/svg" version="1.1">
 <metadata>
  <rdf:RDF xmlns:dc="http://purl.org/dc/elements/1.1/" xmlns:cc="http://creativecommons.org/ns#" xmlns:rdf="http://www.w3.org/1999/02/22-rdf-syntax-ns#">
   <cc:Work>
    <dc:type rdf:resource="http://purl.org/dc/dcmitype/StillImage"/>
    <dc:date>2025-08-31T20:59:56.553328</dc:date>
    <dc:format>image/svg+xml</dc:format>
    <dc:creator>
     <cc:Agent>
      <dc:title>Matplotlib v3.10.0, https://matplotlib.org/</dc:title>
     </cc:Agent>
    </dc:creator>
   </cc:Work>
  </rdf:RDF>
 </metadata>
 <defs>
  <style type="text/css">*{stroke-linejoin: round; stroke-linecap: butt}</style>
 </defs>
 <g id="figure_1">
  <g id="patch_1">
   <path d="M 0 664.948437 
L 712.461034 664.948437 
L 712.461034 0 
L 0 0 
z
" style="fill: #ffffff"/>
  </g>
  <g id="axes_1">
   <g id="patch_2">
    <path d="M 59.49125 327.35 
L 343.77022 327.35 
L 343.77022 70.08 
L 59.49125 70.08 
z
" style="fill: #ffffff"/>
   </g>
   <g id="matplotlib.axis_1">
    <g id="xtick_1">
     <g id="line2d_1">
      <defs>
       <path id="m43e8dcb98a" d="M 0 0 
L 0 3.5 
" style="stroke: #000000; stroke-width: 0.8"/>
      </defs>
      <g>
       <use xlink:href="#m43e8dcb98a" x="72.413021" y="327.35" style="stroke: #000000; stroke-width: 0.8"/>
      </g>
     </g>
    </g>
    <g id="xtick_2">
     <g id="line2d_2">
      <g>
       <use xlink:href="#m43e8dcb98a" x="106.239648" y="327.35" style="stroke: #000000; stroke-width: 0.8"/>
      </g>
     </g>
    </g>
    <g id="xtick_3">
     <g id="line2d_3">
      <g>
       <use xlink:href="#m43e8dcb98a" x="140.066274" y="327.35" style="stroke: #000000; stroke-width: 0.8"/>
      </g>
     </g>
    </g>
    <g id="xtick_4">
     <g id="line2d_4">
      <g>
       <use xlink:href="#m43e8dcb98a" x="173.892901" y="327.35" style="stroke: #000000; stroke-width: 0.8"/>
      </g>
     </g>
    </g>
    <g id="xtick_5">
     <g id="line2d_5">
      <g>
       <use xlink:href="#m43e8dcb98a" x="207.719528" y="327.35" style="stroke: #000000; stroke-width: 0.8"/>
      </g>
     </g>
    </g>
    <g id="xtick_6">
     <g id="line2d_6">
      <g>
       <use xlink:href="#m43e8dcb98a" x="241.546154" y="327.35" style="stroke: #000000; stroke-width: 0.8"/>
      </g>
     </g>
    </g>
    <g id="xtick_7">
     <g id="line2d_7">
      <g>
       <use xlink:href="#m43e8dcb98a" x="275.372781" y="327.35" style="stroke: #000000; stroke-width: 0.8"/>
      </g>
     </g>
    </g>
    <g id="xtick_8">
     <g id="line2d_8">
      <g>
       <use xlink:href="#m43e8dcb98a" x="309.199407" y="327.35" style="stroke: #000000; stroke-width: 0.8"/>
      </g>
     </g>
    </g>
    <g id="xtick_9">
     <g id="line2d_9">
      <g>
       <use xlink:href="#m43e8dcb98a" x="343.026034" y="327.35" style="stroke: #000000; stroke-width: 0.8"/>
      </g>
     </g>
    </g>
    <g id="text_1">
     <!-- Time Steps -->
     <g transform="translate(171.036985 343.208281) scale(0.11 -0.11)">
      <defs>
       <path id="DejaVuSans-54" d="M -19 4666 
L 3928 4666 
L 3928 4134 
L 2272 4134 
L 2272 0 
L 1638 0 
L 1638 4134 
L -19 4134 
L -19 4666 
z
" transform="scale(0.015625)"/>
       <path id="DejaVuSans-69" d="M 603 3500 
L 1178 3500 
L 1178 0 
L 603 0 
L 603 3500 
z
M 603 4863 
L 1178 4863 
L 1178 4134 
L 603 4134 
L 603 4863 
z
" transform="scale(0.015625)"/>
       <path id="DejaVuSans-6d" d="M 3328 2828 
Q 3544 3216 3844 3400 
Q 4144 3584 4550 3584 
Q 5097 3584 5394 3201 
Q 5691 2819 5691 2113 
L 5691 0 
L 5113 0 
L 5113 2094 
Q 5113 2597 4934 2840 
Q 4756 3084 4391 3084 
Q 3944 3084 3684 2787 
Q 3425 2491 3425 1978 
L 3425 0 
L 2847 0 
L 2847 2094 
Q 2847 2600 2669 2842 
Q 2491 3084 2119 3084 
Q 1678 3084 1418 2786 
Q 1159 2488 1159 1978 
L 1159 0 
L 581 0 
L 581 3500 
L 1159 3500 
L 1159 2956 
Q 1356 3278 1631 3431 
Q 1906 3584 2284 3584 
Q 2666 3584 2933 3390 
Q 3200 3197 3328 2828 
z
" transform="scale(0.015625)"/>
       <path id="DejaVuSans-65" d="M 3597 1894 
L 3597 1613 
L 953 1613 
Q 991 1019 1311 708 
Q 1631 397 2203 397 
Q 2534 397 2845 478 
Q 3156 559 3463 722 
L 3463 178 
Q 3153 47 2828 -22 
Q 2503 -91 2169 -91 
Q 1331 -91 842 396 
Q 353 884 353 1716 
Q 353 2575 817 3079 
Q 1281 3584 2069 3584 
Q 2775 3584 3186 3129 
Q 3597 2675 3597 1894 
z
M 3022 2063 
Q 3016 2534 2758 2815 
Q 2500 3097 2075 3097 
Q 1594 3097 1305 2825 
Q 1016 2553 972 2059 
L 3022 2063 
z
" transform="scale(0.015625)"/>
       <path id="DejaVuSans-20" transform="scale(0.015625)"/>
       <path id="DejaVuSans-53" d="M 3425 4513 
L 3425 3897 
Q 3066 4069 2747 4153 
Q 2428 4238 2131 4238 
Q 1616 4238 1336 4038 
Q 1056 3838 1056 3469 
Q 1056 3159 1242 3001 
Q 1428 2844 1947 2747 
L 2328 2669 
Q 3034 2534 3370 2195 
Q 3706 1856 3706 1288 
Q 3706 609 3251 259 
Q 2797 -91 1919 -91 
Q 1588 -91 1214 -16 
Q 841 59 441 206 
L 441 856 
Q 825 641 1194 531 
Q 1563 422 1919 422 
Q 2459 422 2753 634 
Q 3047 847 3047 1241 
Q 3047 1584 2836 1778 
Q 2625 1972 2144 2069 
L 1759 2144 
Q 1053 2284 737 2584 
Q 422 2884 422 3419 
Q 422 4038 858 4394 
Q 1294 4750 2059 4750 
Q 2388 4750 2728 4690 
Q 3069 4631 3425 4513 
z
" transform="scale(0.015625)"/>
       <path id="DejaVuSans-74" d="M 1172 4494 
L 1172 3500 
L 2356 3500 
L 2356 3053 
L 1172 3053 
L 1172 1153 
Q 1172 725 1289 603 
Q 1406 481 1766 481 
L 2356 481 
L 2356 0 
L 1766 0 
Q 1100 0 847 248 
Q 594 497 594 1153 
L 594 3053 
L 172 3053 
L 172 3500 
L 594 3500 
L 594 4494 
L 1172 4494 
z
" transform="scale(0.015625)"/>
       <path id="DejaVuSans-70" d="M 1159 525 
L 1159 -1331 
L 581 -1331 
L 581 3500 
L 1159 3500 
L 1159 2969 
Q 1341 3281 1617 3432 
Q 1894 3584 2278 3584 
Q 2916 3584 3314 3078 
Q 3713 2572 3713 1747 
Q 3713 922 3314 415 
Q 2916 -91 2278 -91 
Q 1894 -91 1617 61 
Q 1341 213 1159 525 
z
M 3116 1747 
Q 3116 2381 2855 2742 
Q 2594 3103 2138 3103 
Q 1681 3103 1420 2742 
Q 1159 2381 1159 1747 
Q 1159 1113 1420 752 
Q 1681 391 2138 391 
Q 2594 391 2855 752 
Q 3116 1113 3116 1747 
z
" transform="scale(0.015625)"/>
       <path id="DejaVuSans-73" d="M 2834 3397 
L 2834 2853 
Q 2591 2978 2328 3040 
Q 2066 3103 1784 3103 
Q 1356 3103 1142 2972 
Q 928 2841 928 2578 
Q 928 2378 1081 2264 
Q 1234 2150 1697 2047 
L 1894 2003 
Q 2506 1872 2764 1633 
Q 3022 1394 3022 966 
Q 3022 478 2636 193 
Q 2250 -91 1575 -91 
Q 1294 -91 989 -36 
Q 684 19 347 128 
L 347 722 
Q 666 556 975 473 
Q 1284 391 1588 391 
Q 1994 391 2212 530 
Q 2431 669 2431 922 
Q 2431 1156 2273 1281 
Q 2116 1406 1581 1522 
L 1381 1569 
Q 847 1681 609 1914 
Q 372 2147 372 2553 
Q 372 3047 722 3315 
Q 1072 3584 1716 3584 
Q 2034 3584 2315 3537 
Q 2597 3491 2834 3397 
z
" transform="scale(0.015625)"/>
      </defs>
      <use xlink:href="#DejaVuSans-54"/>
      <use xlink:href="#DejaVuSans-69" transform="translate(57.958984 0)"/>
      <use xlink:href="#DejaVuSans-6d" transform="translate(85.742188 0)"/>
      <use xlink:href="#DejaVuSans-65" transform="translate(183.154297 0)"/>
      <use xlink:href="#DejaVuSans-20" transform="translate(244.677734 0)"/>
      <use xlink:href="#DejaVuSans-53" transform="translate(276.464844 0)"/>
      <use xlink:href="#DejaVuSans-74" transform="translate(339.941406 0)"/>
      <use xlink:href="#DejaVuSans-65" transform="translate(379.150391 0)"/>
      <use xlink:href="#DejaVuSans-70" transform="translate(440.673828 0)"/>
      <use xlink:href="#DejaVuSans-73" transform="translate(504.150391 0)"/>
     </g>
    </g>
   </g>
   <g id="matplotlib.axis_2">
    <g id="ytick_1">
     <g id="line2d_10">
      <defs>
       <path id="m470573bb7e" d="M 0 0 
L -3.5 0 
" style="stroke: #000000; stroke-width: 0.8"/>
      </defs>
      <g>
       <use xlink:href="#m470573bb7e" x="59.49125" y="317.433519" style="stroke: #000000; stroke-width: 0.8"/>
      </g>
     </g>
     <g id="text_2">
      <!-- −0.08 -->
      <g transform="translate(21.845938 321.232738) scale(0.1 -0.1)">
       <defs>
        <path id="DejaVuSans-2212" d="M 678 2272 
L 4684 2272 
L 4684 1741 
L 678 1741 
L 678 2272 
z
" transform="scale(0.015625)"/>
        <path id="DejaVuSans-30" d="M 2034 4250 
Q 1547 4250 1301 3770 
Q 1056 3291 1056 2328 
Q 1056 1369 1301 889 
Q 1547 409 2034 409 
Q 2525 409 2770 889 
Q 3016 1369 3016 2328 
Q 3016 3291 2770 3770 
Q 2525 4250 2034 4250 
z
M 2034 4750 
Q 2819 4750 3233 4129 
Q 3647 3509 3647 2328 
Q 3647 1150 3233 529 
Q 2819 -91 2034 -91 
Q 1250 -91 836 529 
Q 422 1150 422 2328 
Q 422 3509 836 4129 
Q 1250 4750 2034 4750 
z
" transform="scale(0.015625)"/>
        <path id="DejaVuSans-2e" d="M 684 794 
L 1344 794 
L 1344 0 
L 684 0 
L 684 794 
z
" transform="scale(0.015625)"/>
        <path id="DejaVuSans-38" d="M 2034 2216 
Q 1584 2216 1326 1975 
Q 1069 1734 1069 1313 
Q 1069 891 1326 650 
Q 1584 409 2034 409 
Q 2484 409 2743 651 
Q 3003 894 3003 1313 
Q 3003 1734 2745 1975 
Q 2488 2216 2034 2216 
z
M 1403 2484 
Q 997 2584 770 2862 
Q 544 3141 544 3541 
Q 544 4100 942 4425 
Q 1341 4750 2034 4750 
Q 2731 4750 3128 4425 
Q 3525 4100 3525 3541 
Q 3525 3141 3298 2862 
Q 3072 2584 2669 2484 
Q 3125 2378 3379 2068 
Q 3634 1759 3634 1313 
Q 3634 634 3220 271 
Q 2806 -91 2034 -91 
Q 1263 -91 848 271 
Q 434 634 434 1313 
Q 434 1759 690 2068 
Q 947 2378 1403 2484 
z
M 1172 3481 
Q 1172 3119 1398 2916 
Q 1625 2713 2034 2713 
Q 2441 2713 2670 2916 
Q 2900 3119 2900 3481 
Q 2900 3844 2670 4047 
Q 2441 4250 2034 4250 
Q 1625 4250 1398 4047 
Q 1172 3844 1172 3481 
z
" transform="scale(0.015625)"/>
       </defs>
       <use xlink:href="#DejaVuSans-2212"/>
       <use xlink:href="#DejaVuSans-30" transform="translate(83.789062 0)"/>
       <use xlink:href="#DejaVuSans-2e" transform="translate(147.412109 0)"/>
       <use xlink:href="#DejaVuSans-30" transform="translate(179.199219 0)"/>
       <use xlink:href="#DejaVuSans-38" transform="translate(242.822266 0)"/>
      </g>
     </g>
    </g>
    <g id="ytick_2">
     <g id="line2d_11">
      <g>
       <use xlink:href="#m470573bb7e" x="59.49125" y="280.918934" style="stroke: #000000; stroke-width: 0.8"/>
      </g>
     </g>
     <g id="text_3">
      <!-- −0.06 -->
      <g transform="translate(21.845938 284.718153) scale(0.1 -0.1)">
       <defs>
        <path id="DejaVuSans-36" d="M 2113 2584 
Q 1688 2584 1439 2293 
Q 1191 2003 1191 1497 
Q 1191 994 1439 701 
Q 1688 409 2113 409 
Q 2538 409 2786 701 
Q 3034 994 3034 1497 
Q 3034 2003 2786 2293 
Q 2538 2584 2113 2584 
z
M 3366 4563 
L 3366 3988 
Q 3128 4100 2886 4159 
Q 2644 4219 2406 4219 
Q 1781 4219 1451 3797 
Q 1122 3375 1075 2522 
Q 1259 2794 1537 2939 
Q 1816 3084 2150 3084 
Q 2853 3084 3261 2657 
Q 3669 2231 3669 1497 
Q 3669 778 3244 343 
Q 2819 -91 2113 -91 
Q 1303 -91 875 529 
Q 447 1150 447 2328 
Q 447 3434 972 4092 
Q 1497 4750 2381 4750 
Q 2619 4750 2861 4703 
Q 3103 4656 3366 4563 
z
" transform="scale(0.015625)"/>
       </defs>
       <use xlink:href="#DejaVuSans-2212"/>
       <use xlink:href="#DejaVuSans-30" transform="translate(83.789062 0)"/>
       <use xlink:href="#DejaVuSans-2e" transform="translate(147.412109 0)"/>
       <use xlink:href="#DejaVuSans-30" transform="translate(179.199219 0)"/>
       <use xlink:href="#DejaVuSans-36" transform="translate(242.822266 0)"/>
      </g>
     </g>
    </g>
    <g id="ytick_3">
     <g id="line2d_12">
      <g>
       <use xlink:href="#m470573bb7e" x="59.49125" y="244.40435" style="stroke: #000000; stroke-width: 0.8"/>
      </g>
     </g>
     <g id="text_4">
      <!-- −0.04 -->
      <g transform="translate(21.845938 248.203568) scale(0.1 -0.1)">
       <defs>
        <path id="DejaVuSans-34" d="M 2419 4116 
L 825 1625 
L 2419 1625 
L 2419 4116 
z
M 2253 4666 
L 3047 4666 
L 3047 1625 
L 3713 1625 
L 3713 1100 
L 3047 1100 
L 3047 0 
L 2419 0 
L 2419 1100 
L 313 1100 
L 313 1709 
L 2253 4666 
z
" transform="scale(0.015625)"/>
       </defs>
       <use xlink:href="#DejaVuSans-2212"/>
       <use xlink:href="#DejaVuSans-30" transform="translate(83.789062 0)"/>
       <use xlink:href="#DejaVuSans-2e" transform="translate(147.412109 0)"/>
       <use xlink:href="#DejaVuSans-30" transform="translate(179.199219 0)"/>
       <use xlink:href="#DejaVuSans-34" transform="translate(242.822266 0)"/>
      </g>
     </g>
    </g>
    <g id="ytick_4">
     <g id="line2d_13">
      <g>
       <use xlink:href="#m470573bb7e" x="59.49125" y="207.889765" style="stroke: #000000; stroke-width: 0.8"/>
      </g>
     </g>
     <g id="text_5">
      <!-- −0.02 -->
      <g transform="translate(21.845938 211.688984) scale(0.1 -0.1)">
       <defs>
        <path id="DejaVuSans-32" d="M 1228 531 
L 3431 531 
L 3431 0 
L 469 0 
L 469 531 
Q 828 903 1448 1529 
Q 2069 2156 2228 2338 
Q 2531 2678 2651 2914 
Q 2772 3150 2772 3378 
Q 2772 3750 2511 3984 
Q 2250 4219 1831 4219 
Q 1534 4219 1204 4116 
Q 875 4013 500 3803 
L 500 4441 
Q 881 4594 1212 4672 
Q 1544 4750 1819 4750 
Q 2544 4750 2975 4387 
Q 3406 4025 3406 3419 
Q 3406 3131 3298 2873 
Q 3191 2616 2906 2266 
Q 2828 2175 2409 1742 
Q 1991 1309 1228 531 
z
" transform="scale(0.015625)"/>
       </defs>
       <use xlink:href="#DejaVuSans-2212"/>
       <use xlink:href="#DejaVuSans-30" transform="translate(83.789062 0)"/>
       <use xlink:href="#DejaVuSans-2e" transform="translate(147.412109 0)"/>
       <use xlink:href="#DejaVuSans-30" transform="translate(179.199219 0)"/>
       <use xlink:href="#DejaVuSans-32" transform="translate(242.822266 0)"/>
      </g>
     </g>
    </g>
    <g id="ytick_5">
     <g id="line2d_14">
      <g>
       <use xlink:href="#m470573bb7e" x="59.49125" y="171.375181" style="stroke: #000000; stroke-width: 0.8"/>
      </g>
     </g>
     <g id="text_6">
      <!-- 0.00 -->
      <g transform="translate(30.225625 175.174399) scale(0.1 -0.1)">
       <use xlink:href="#DejaVuSans-30"/>
       <use xlink:href="#DejaVuSans-2e" transform="translate(63.623047 0)"/>
       <use xlink:href="#DejaVuSans-30" transform="translate(95.410156 0)"/>
       <use xlink:href="#DejaVuSans-30" transform="translate(159.033203 0)"/>
      </g>
     </g>
    </g>
    <g id="ytick_6">
     <g id="line2d_15">
      <g>
       <use xlink:href="#m470573bb7e" x="59.49125" y="134.860596" style="stroke: #000000; stroke-width: 0.8"/>
      </g>
     </g>
     <g id="text_7">
      <!-- 0.02 -->
      <g transform="translate(30.225625 138.659815) scale(0.1 -0.1)">
       <use xlink:href="#DejaVuSans-30"/>
       <use xlink:href="#DejaVuSans-2e" transform="translate(63.623047 0)"/>
       <use xlink:href="#DejaVuSans-30" transform="translate(95.410156 0)"/>
       <use xlink:href="#DejaVuSans-32" transform="translate(159.033203 0)"/>
      </g>
     </g>
    </g>
    <g id="ytick_7">
     <g id="line2d_16">
      <g>
       <use xlink:href="#m470573bb7e" x="59.49125" y="98.346012" style="stroke: #000000; stroke-width: 0.8"/>
      </g>
     </g>
     <g id="text_8">
      <!-- 0.04 -->
      <g transform="translate(30.225625 102.14523) scale(0.1 -0.1)">
       <use xlink:href="#DejaVuSans-30"/>
       <use xlink:href="#DejaVuSans-2e" transform="translate(63.623047 0)"/>
       <use xlink:href="#DejaVuSans-30" transform="translate(95.410156 0)"/>
       <use xlink:href="#DejaVuSans-34" transform="translate(159.033203 0)"/>
      </g>
     </g>
    </g>
    <g id="text_9">
     <!-- Attribution (IG) -->
     <g transform="translate(15.558281 239.918594) rotate(-90) scale(0.11 -0.11)">
      <defs>
       <path id="DejaVuSans-41" d="M 2188 4044 
L 1331 1722 
L 3047 1722 
L 2188 4044 
z
M 1831 4666 
L 2547 4666 
L 4325 0 
L 3669 0 
L 3244 1197 
L 1141 1197 
L 716 0 
L 50 0 
L 1831 4666 
z
" transform="scale(0.015625)"/>
       <path id="DejaVuSans-72" d="M 2631 2963 
Q 2534 3019 2420 3045 
Q 2306 3072 2169 3072 
Q 1681 3072 1420 2755 
Q 1159 2438 1159 1844 
L 1159 0 
L 581 0 
L 581 3500 
L 1159 3500 
L 1159 2956 
Q 1341 3275 1631 3429 
Q 1922 3584 2338 3584 
Q 2397 3584 2469 3576 
Q 2541 3569 2628 3553 
L 2631 2963 
z
" transform="scale(0.015625)"/>
       <path id="DejaVuSans-62" d="M 3116 1747 
Q 3116 2381 2855 2742 
Q 2594 3103 2138 3103 
Q 1681 3103 1420 2742 
Q 1159 2381 1159 1747 
Q 1159 1113 1420 752 
Q 1681 391 2138 391 
Q 2594 391 2855 752 
Q 3116 1113 3116 1747 
z
M 1159 2969 
Q 1341 3281 1617 3432 
Q 1894 3584 2278 3584 
Q 2916 3584 3314 3078 
Q 3713 2572 3713 1747 
Q 3713 922 3314 415 
Q 2916 -91 2278 -91 
Q 1894 -91 1617 61 
Q 1341 213 1159 525 
L 1159 0 
L 581 0 
L 581 4863 
L 1159 4863 
L 1159 2969 
z
" transform="scale(0.015625)"/>
       <path id="DejaVuSans-75" d="M 544 1381 
L 544 3500 
L 1119 3500 
L 1119 1403 
Q 1119 906 1312 657 
Q 1506 409 1894 409 
Q 2359 409 2629 706 
Q 2900 1003 2900 1516 
L 2900 3500 
L 3475 3500 
L 3475 0 
L 2900 0 
L 2900 538 
Q 2691 219 2414 64 
Q 2138 -91 1772 -91 
Q 1169 -91 856 284 
Q 544 659 544 1381 
z
M 1991 3584 
L 1991 3584 
z
" transform="scale(0.015625)"/>
       <path id="DejaVuSans-6f" d="M 1959 3097 
Q 1497 3097 1228 2736 
Q 959 2375 959 1747 
Q 959 1119 1226 758 
Q 1494 397 1959 397 
Q 2419 397 2687 759 
Q 2956 1122 2956 1747 
Q 2956 2369 2687 2733 
Q 2419 3097 1959 3097 
z
M 1959 3584 
Q 2709 3584 3137 3096 
Q 3566 2609 3566 1747 
Q 3566 888 3137 398 
Q 2709 -91 1959 -91 
Q 1206 -91 779 398 
Q 353 888 353 1747 
Q 353 2609 779 3096 
Q 1206 3584 1959 3584 
z
" transform="scale(0.015625)"/>
       <path id="DejaVuSans-6e" d="M 3513 2113 
L 3513 0 
L 2938 0 
L 2938 2094 
Q 2938 2591 2744 2837 
Q 2550 3084 2163 3084 
Q 1697 3084 1428 2787 
Q 1159 2491 1159 1978 
L 1159 0 
L 581 0 
L 581 3500 
L 1159 3500 
L 1159 2956 
Q 1366 3272 1645 3428 
Q 1925 3584 2291 3584 
Q 2894 3584 3203 3211 
Q 3513 2838 3513 2113 
z
" transform="scale(0.015625)"/>
       <path id="DejaVuSans-28" d="M 1984 4856 
Q 1566 4138 1362 3434 
Q 1159 2731 1159 2009 
Q 1159 1288 1364 580 
Q 1569 -128 1984 -844 
L 1484 -844 
Q 1016 -109 783 600 
Q 550 1309 550 2009 
Q 550 2706 781 3412 
Q 1013 4119 1484 4856 
L 1984 4856 
z
" transform="scale(0.015625)"/>
       <path id="DejaVuSans-49" d="M 628 4666 
L 1259 4666 
L 1259 0 
L 628 0 
L 628 4666 
z
" transform="scale(0.015625)"/>
       <path id="DejaVuSans-47" d="M 3809 666 
L 3809 1919 
L 2778 1919 
L 2778 2438 
L 4434 2438 
L 4434 434 
Q 4069 175 3628 42 
Q 3188 -91 2688 -91 
Q 1594 -91 976 548 
Q 359 1188 359 2328 
Q 359 3472 976 4111 
Q 1594 4750 2688 4750 
Q 3144 4750 3555 4637 
Q 3966 4525 4313 4306 
L 4313 3634 
Q 3963 3931 3569 4081 
Q 3175 4231 2741 4231 
Q 1884 4231 1454 3753 
Q 1025 3275 1025 2328 
Q 1025 1384 1454 906 
Q 1884 428 2741 428 
Q 3075 428 3337 486 
Q 3600 544 3809 666 
z
" transform="scale(0.015625)"/>
       <path id="DejaVuSans-29" d="M 513 4856 
L 1013 4856 
Q 1481 4119 1714 3412 
Q 1947 2706 1947 2009 
Q 1947 1309 1714 600 
Q 1481 -109 1013 -844 
L 513 -844 
Q 928 -128 1133 580 
Q 1338 1288 1338 2009 
Q 1338 2731 1133 3434 
Q 928 4138 513 4856 
z
" transform="scale(0.015625)"/>
      </defs>
      <use xlink:href="#DejaVuSans-41"/>
      <use xlink:href="#DejaVuSans-74" transform="translate(66.658203 0)"/>
      <use xlink:href="#DejaVuSans-74" transform="translate(105.867188 0)"/>
      <use xlink:href="#DejaVuSans-72" transform="translate(145.076172 0)"/>
      <use xlink:href="#DejaVuSans-69" transform="translate(186.189453 0)"/>
      <use xlink:href="#DejaVuSans-62" transform="translate(213.972656 0)"/>
      <use xlink:href="#DejaVuSans-75" transform="translate(277.449219 0)"/>
      <use xlink:href="#DejaVuSans-74" transform="translate(340.828125 0)"/>
      <use xlink:href="#DejaVuSans-69" transform="translate(380.037109 0)"/>
      <use xlink:href="#DejaVuSans-6f" transform="translate(407.820312 0)"/>
      <use xlink:href="#DejaVuSans-6e" transform="translate(469.001953 0)"/>
      <use xlink:href="#DejaVuSans-20" transform="translate(532.380859 0)"/>
      <use xlink:href="#DejaVuSans-28" transform="translate(564.167969 0)"/>
      <use xlink:href="#DejaVuSans-49" transform="translate(603.181641 0)"/>
      <use xlink:href="#DejaVuSans-47" transform="translate(632.673828 0)"/>
      <use xlink:href="#DejaVuSans-29" transform="translate(710.164062 0)"/>
     </g>
    </g>
   </g>
   <g id="line2d_17">
    <path d="M 72.413021 171.348037 
L 131.947884 171.366811 
L 184.717421 171.372902 
L 218.544048 171.369212 
L 228.015503 171.158829 
L 229.368569 171.103188 
L 230.721634 170.929319 
L 233.427764 170.854106 
L 234.780829 171.651672 
L 237.486959 171.727628 
L 240.193089 171.628027 
L 242.899219 171.514586 
L 249.664544 171.444249 
L 255.076805 170.847479 
L 259.136 170.117161 
L 261.84213 168.388123 
L 263.195195 166.755589 
L 264.54826 166.7312 
L 265.901325 165.894218 
L 267.25439 169.165509 
L 268.607455 170.615356 
L 271.313585 169.974385 
L 272.666651 169.935649 
L 274.019716 170.283413 
L 275.372781 171.338372 
L 276.725846 170.831951 
L 279.431976 171.314241 
L 280.785041 171.184943 
L 282.138106 171.411338 
L 283.491171 171.252454 
L 286.197301 170.613789 
L 287.550366 170.831205 
L 288.903431 170.367206 
L 290.256496 169.426147 
L 291.609561 167.95611 
L 292.962626 165.927206 
L 294.315692 162.349761 
L 295.668757 150.798749 
L 297.021822 143.235428 
L 298.374887 81.774091 
L 299.727952 142.423834 
L 301.081017 195.71645 
L 302.434082 239.254261 
L 305.140212 300.199643 
L 306.493277 315.655909 
L 307.846342 302.854939 
L 309.199407 243.076217 
L 310.552472 196.224139 
L 311.905537 157.676007 
L 313.258602 160.567987 
L 314.611667 167.141233 
L 315.964733 175.819606 
L 318.670863 197.339703 
L 320.023928 212.664038 
L 322.730058 240.500204 
L 324.083123 242.037967 
L 325.436188 243.215768 
L 326.789253 237.890423 
L 328.142318 239.331314 
L 329.495383 234.246017 
L 330.848448 214.673544 
L 330.848448 214.673544 
" clip-path="url(#p9d3f952a8e)" style="fill: none; stroke: #9c755f; stroke-opacity: 0.95; stroke-width: 1.8; stroke-linecap: square"/>
   </g>
   <g id="line2d_18">
    <path d="M 59.49125 171.375181 
L 343.77022 171.375181 
" clip-path="url(#p9d3f952a8e)" style="fill: none; stroke: #888888; stroke-opacity: 0.6; stroke-linecap: square"/>
   </g>
   <g id="patch_3">
    <path d="M 59.49125 327.35 
L 59.49125 70.08 
" style="fill: none; stroke: #000000; stroke-width: 0.8; stroke-linejoin: miter; stroke-linecap: square"/>
   </g>
   <g id="patch_4">
    <path d="M 343.77022 327.35 
L 343.77022 70.08 
" style="fill: none; stroke: #000000; stroke-width: 0.8; stroke-linejoin: miter; stroke-linecap: square"/>
   </g>
   <g id="patch_5">
    <path d="M 59.49125 327.35 
L 343.77022 327.35 
" style="fill: none; stroke: #000000; stroke-width: 0.8; stroke-linejoin: miter; stroke-linecap: square"/>
   </g>
   <g id="patch_6">
    <path d="M 59.49125 70.08 
L 343.77022 70.08 
" style="fill: none; stroke: #000000; stroke-width: 0.8; stroke-linejoin: miter; stroke-linecap: square"/>
   </g>
   <g id="text_10">
    <!-- Other (n=1) -->
    <g transform="translate(168.380657 64.08) scale(0.11 -0.11)">
     <defs>
      <path id="DejaVuSans-4f" d="M 2522 4238 
Q 1834 4238 1429 3725 
Q 1025 3213 1025 2328 
Q 1025 1447 1429 934 
Q 1834 422 2522 422 
Q 3209 422 3611 934 
Q 4013 1447 4013 2328 
Q 4013 3213 3611 3725 
Q 3209 4238 2522 4238 
z
M 2522 4750 
Q 3503 4750 4090 4092 
Q 4678 3434 4678 2328 
Q 4678 1225 4090 567 
Q 3503 -91 2522 -91 
Q 1538 -91 948 565 
Q 359 1222 359 2328 
Q 359 3434 948 4092 
Q 1538 4750 2522 4750 
z
" transform="scale(0.015625)"/>
      <path id="DejaVuSans-68" d="M 3513 2113 
L 3513 0 
L 2938 0 
L 2938 2094 
Q 2938 2591 2744 2837 
Q 2550 3084 2163 3084 
Q 1697 3084 1428 2787 
Q 1159 2491 1159 1978 
L 1159 0 
L 581 0 
L 581 4863 
L 1159 4863 
L 1159 2956 
Q 1366 3272 1645 3428 
Q 1925 3584 2291 3584 
Q 2894 3584 3203 3211 
Q 3513 2838 3513 2113 
z
" transform="scale(0.015625)"/>
      <path id="DejaVuSans-3d" d="M 678 2906 
L 4684 2906 
L 4684 2381 
L 678 2381 
L 678 2906 
z
M 678 1631 
L 4684 1631 
L 4684 1100 
L 678 1100 
L 678 1631 
z
" transform="scale(0.015625)"/>
      <path id="DejaVuSans-31" d="M 794 531 
L 1825 531 
L 1825 4091 
L 703 3866 
L 703 4441 
L 1819 4666 
L 2450 4666 
L 2450 531 
L 3481 531 
L 3481 0 
L 794 0 
L 794 531 
z
" transform="scale(0.015625)"/>
     </defs>
     <use xlink:href="#DejaVuSans-4f"/>
     <use xlink:href="#DejaVuSans-74" transform="translate(78.710938 0)"/>
     <use xlink:href="#DejaVuSans-68" transform="translate(117.919922 0)"/>
     <use xlink:href="#DejaVuSans-65" transform="translate(181.298828 0)"/>
     <use xlink:href="#DejaVuSans-72" transform="translate(242.822266 0)"/>
     <use xlink:href="#DejaVuSans-20" transform="translate(283.935547 0)"/>
     <use xlink:href="#DejaVuSans-28" transform="translate(315.722656 0)"/>
     <use xlink:href="#DejaVuSans-6e" transform="translate(354.736328 0)"/>
     <use xlink:href="#DejaVuSans-3d" transform="translate(418.115234 0)"/>
     <use xlink:href="#DejaVuSans-31" transform="translate(501.904297 0)"/>
     <use xlink:href="#DejaVuSans-29" transform="translate(565.527344 0)"/>
    </g>
   </g>
   <g id="legend_1">
    <g id="line2d_19">
     <path d="M 66.69125 80.55875 
L 74.69125 80.55875 
L 82.69125 80.55875 
" style="fill: none; stroke: #9c755f; stroke-opacity: 0.95; stroke-width: 1.8; stroke-linecap: square"/>
    </g>
    <g id="text_11">
     <!-- Hour -->
     <g transform="translate(89.09125 83.35875) scale(0.08 -0.08)">
      <defs>
       <path id="DejaVuSans-48" d="M 628 4666 
L 1259 4666 
L 1259 2753 
L 3553 2753 
L 3553 4666 
L 4184 4666 
L 4184 0 
L 3553 0 
L 3553 2222 
L 1259 2222 
L 1259 0 
L 628 0 
L 628 4666 
z
" transform="scale(0.015625)"/>
      </defs>
      <use xlink:href="#DejaVuSans-48"/>
      <use xlink:href="#DejaVuSans-6f" transform="translate(75.195312 0)"/>
      <use xlink:href="#DejaVuSans-75" transform="translate(136.376953 0)"/>
      <use xlink:href="#DejaVuSans-72" transform="translate(199.755859 0)"/>
     </g>
    </g>
   </g>
  </g>
  <g id="axes_2">
   <g id="patch_7">
    <path d="M 414.09125 327.35 
L 698.37022 327.35 
L 698.37022 70.08 
L 414.09125 70.08 
z
" style="fill: #ffffff"/>
   </g>
   <g id="matplotlib.axis_3">
    <g id="xtick_10">
     <g id="line2d_20">
      <g>
       <use xlink:href="#m43e8dcb98a" x="427.013021" y="327.35" style="stroke: #000000; stroke-width: 0.8"/>
      </g>
     </g>
    </g>
    <g id="xtick_11">
     <g id="line2d_21">
      <g>
       <use xlink:href="#m43e8dcb98a" x="460.839648" y="327.35" style="stroke: #000000; stroke-width: 0.8"/>
      </g>
     </g>
    </g>
    <g id="xtick_12">
     <g id="line2d_22">
      <g>
       <use xlink:href="#m43e8dcb98a" x="494.666274" y="327.35" style="stroke: #000000; stroke-width: 0.8"/>
      </g>
     </g>
    </g>
    <g id="xtick_13">
     <g id="line2d_23">
      <g>
       <use xlink:href="#m43e8dcb98a" x="528.492901" y="327.35" style="stroke: #000000; stroke-width: 0.8"/>
      </g>
     </g>
    </g>
    <g id="xtick_14">
     <g id="line2d_24">
      <g>
       <use xlink:href="#m43e8dcb98a" x="562.319528" y="327.35" style="stroke: #000000; stroke-width: 0.8"/>
      </g>
     </g>
    </g>
    <g id="xtick_15">
     <g id="line2d_25">
      <g>
       <use xlink:href="#m43e8dcb98a" x="596.146154" y="327.35" style="stroke: #000000; stroke-width: 0.8"/>
      </g>
     </g>
    </g>
    <g id="xtick_16">
     <g id="line2d_26">
      <g>
       <use xlink:href="#m43e8dcb98a" x="629.972781" y="327.35" style="stroke: #000000; stroke-width: 0.8"/>
      </g>
     </g>
    </g>
    <g id="xtick_17">
     <g id="line2d_27">
      <g>
       <use xlink:href="#m43e8dcb98a" x="663.799407" y="327.35" style="stroke: #000000; stroke-width: 0.8"/>
      </g>
     </g>
    </g>
    <g id="xtick_18">
     <g id="line2d_28">
      <g>
       <use xlink:href="#m43e8dcb98a" x="697.626034" y="327.35" style="stroke: #000000; stroke-width: 0.8"/>
      </g>
     </g>
    </g>
    <g id="text_12">
     <!-- Time Steps -->
     <g transform="translate(525.636985 343.208281) scale(0.11 -0.11)">
      <use xlink:href="#DejaVuSans-54"/>
      <use xlink:href="#DejaVuSans-69" transform="translate(57.958984 0)"/>
      <use xlink:href="#DejaVuSans-6d" transform="translate(85.742188 0)"/>
      <use xlink:href="#DejaVuSans-65" transform="translate(183.154297 0)"/>
      <use xlink:href="#DejaVuSans-20" transform="translate(244.677734 0)"/>
      <use xlink:href="#DejaVuSans-53" transform="translate(276.464844 0)"/>
      <use xlink:href="#DejaVuSans-74" transform="translate(339.941406 0)"/>
      <use xlink:href="#DejaVuSans-65" transform="translate(379.150391 0)"/>
      <use xlink:href="#DejaVuSans-70" transform="translate(440.673828 0)"/>
      <use xlink:href="#DejaVuSans-73" transform="translate(504.150391 0)"/>
     </g>
    </g>
   </g>
   <g id="matplotlib.axis_4">
    <g id="ytick_8">
     <g id="line2d_29">
      <g>
       <use xlink:href="#m470573bb7e" x="414.09125" y="310.576113" style="stroke: #000000; stroke-width: 0.8"/>
      </g>
     </g>
     <g id="text_13">
      <!-- −0.02 -->
      <g transform="translate(376.445937 314.375332) scale(0.1 -0.1)">
       <use xlink:href="#DejaVuSans-2212"/>
       <use xlink:href="#DejaVuSans-30" transform="translate(83.789062 0)"/>
       <use xlink:href="#DejaVuSans-2e" transform="translate(147.412109 0)"/>
       <use xlink:href="#DejaVuSans-30" transform="translate(179.199219 0)"/>
       <use xlink:href="#DejaVuSans-32" transform="translate(242.822266 0)"/>
      </g>
     </g>
    </g>
    <g id="ytick_9">
     <g id="line2d_30">
      <g>
       <use xlink:href="#m470573bb7e" x="414.09125" y="256.117214" style="stroke: #000000; stroke-width: 0.8"/>
      </g>
     </g>
     <g id="text_14">
      <!-- 0.00 -->
      <g transform="translate(384.825625 259.916433) scale(0.1 -0.1)">
       <use xlink:href="#DejaVuSans-30"/>
       <use xlink:href="#DejaVuSans-2e" transform="translate(63.623047 0)"/>
       <use xlink:href="#DejaVuSans-30" transform="translate(95.410156 0)"/>
       <use xlink:href="#DejaVuSans-30" transform="translate(159.033203 0)"/>
      </g>
     </g>
    </g>
    <g id="ytick_10">
     <g id="line2d_31">
      <g>
       <use xlink:href="#m470573bb7e" x="414.09125" y="201.658315" style="stroke: #000000; stroke-width: 0.8"/>
      </g>
     </g>
     <g id="text_15">
      <!-- 0.02 -->
      <g transform="translate(384.825625 205.457534) scale(0.1 -0.1)">
       <use xlink:href="#DejaVuSans-30"/>
       <use xlink:href="#DejaVuSans-2e" transform="translate(63.623047 0)"/>
       <use xlink:href="#DejaVuSans-30" transform="translate(95.410156 0)"/>
       <use xlink:href="#DejaVuSans-32" transform="translate(159.033203 0)"/>
      </g>
     </g>
    </g>
    <g id="ytick_11">
     <g id="line2d_32">
      <g>
       <use xlink:href="#m470573bb7e" x="414.09125" y="147.199416" style="stroke: #000000; stroke-width: 0.8"/>
      </g>
     </g>
     <g id="text_16">
      <!-- 0.04 -->
      <g transform="translate(384.825625 150.998635) scale(0.1 -0.1)">
       <use xlink:href="#DejaVuSans-30"/>
       <use xlink:href="#DejaVuSans-2e" transform="translate(63.623047 0)"/>
       <use xlink:href="#DejaVuSans-30" transform="translate(95.410156 0)"/>
       <use xlink:href="#DejaVuSans-34" transform="translate(159.033203 0)"/>
      </g>
     </g>
    </g>
    <g id="ytick_12">
     <g id="line2d_33">
      <g>
       <use xlink:href="#m470573bb7e" x="414.09125" y="92.740517" style="stroke: #000000; stroke-width: 0.8"/>
      </g>
     </g>
     <g id="text_17">
      <!-- 0.06 -->
      <g transform="translate(384.825625 96.539736) scale(0.1 -0.1)">
       <use xlink:href="#DejaVuSans-30"/>
       <use xlink:href="#DejaVuSans-2e" transform="translate(63.623047 0)"/>
       <use xlink:href="#DejaVuSans-30" transform="translate(95.410156 0)"/>
       <use xlink:href="#DejaVuSans-36" transform="translate(159.033203 0)"/>
      </g>
     </g>
    </g>
    <g id="text_18">
     <!-- Attribution (IG) -->
     <g transform="translate(370.158281 239.918594) rotate(-90) scale(0.11 -0.11)">
      <use xlink:href="#DejaVuSans-41"/>
      <use xlink:href="#DejaVuSans-74" transform="translate(66.658203 0)"/>
      <use xlink:href="#DejaVuSans-74" transform="translate(105.867188 0)"/>
      <use xlink:href="#DejaVuSans-72" transform="translate(145.076172 0)"/>
      <use xlink:href="#DejaVuSans-69" transform="translate(186.189453 0)"/>
      <use xlink:href="#DejaVuSans-62" transform="translate(213.972656 0)"/>
      <use xlink:href="#DejaVuSans-75" transform="translate(277.449219 0)"/>
      <use xlink:href="#DejaVuSans-74" transform="translate(340.828125 0)"/>
      <use xlink:href="#DejaVuSans-69" transform="translate(380.037109 0)"/>
      <use xlink:href="#DejaVuSans-6f" transform="translate(407.820312 0)"/>
      <use xlink:href="#DejaVuSans-6e" transform="translate(469.001953 0)"/>
      <use xlink:href="#DejaVuSans-20" transform="translate(532.380859 0)"/>
      <use xlink:href="#DejaVuSans-28" transform="translate(564.167969 0)"/>
      <use xlink:href="#DejaVuSans-49" transform="translate(603.181641 0)"/>
      <use xlink:href="#DejaVuSans-47" transform="translate(632.673828 0)"/>
      <use xlink:href="#DejaVuSans-29" transform="translate(710.164062 0)"/>
     </g>
    </g>
   </g>
   <g id="line2d_34">
    <path d="M 427.013021 256.058719 
L 432.425282 256.122318 
L 440.543672 256.025673 
L 451.368192 256.068169 
L 464.898843 256.115009 
L 544.729682 256.097706 
L 550.141942 256.070535 
L 565.025658 256.183737 
L 573.144048 256.302231 
L 575.850178 256.269641 
L 579.909373 256.578631 
L 581.262438 256.637358 
L 583.968569 257.025617 
L 585.321634 256.894707 
L 588.027764 257.456553 
L 590.733894 257.299977 
L 592.086959 257.053198 
L 593.440024 257.087737 
L 597.499219 257.875411 
L 600.205349 256.822081 
L 601.558414 256.934552 
L 602.911479 256.689013 
L 604.264544 256.752804 
L 606.970675 257.527875 
L 608.32374 257.319466 
L 609.676805 257.879153 
L 611.02987 258.165969 
L 612.382935 258.253928 
L 613.736 258.616551 
L 615.089065 258.530794 
L 616.44213 257.718045 
L 617.795195 256.144215 
L 619.14826 257.340899 
L 621.85439 261.769258 
L 623.207455 260.961926 
L 624.56052 259.530917 
L 625.913585 259.154641 
L 627.266651 259.040829 
L 628.619716 259.640835 
L 629.972781 259.355755 
L 631.325846 259.354538 
L 632.678911 259.189182 
L 634.031976 261.327376 
L 635.385041 265.526529 
L 636.738106 268.67421 
L 638.091171 271.148767 
L 639.444236 272.097174 
L 640.797301 274.456241 
L 642.150366 275.882937 
L 643.503431 278.41398 
L 644.856496 283.590575 
L 646.209561 284.675594 
L 647.562626 290.884588 
L 650.268757 298.089282 
L 651.621822 288.725653 
L 652.974887 315.655909 
L 654.327952 233.895313 
L 655.681017 219.404716 
L 657.034082 215.049211 
L 658.387147 206.556479 
L 659.740212 188.965743 
L 661.093277 166.930676 
L 662.446342 108.917678 
L 663.799407 92.35028 
L 665.152472 93.270065 
L 666.505537 81.774091 
L 667.858602 120.8848 
L 669.211667 139.032677 
L 670.564733 142.101469 
L 671.917798 144.795215 
L 673.270863 144.636658 
L 674.623928 142.964429 
L 675.976993 137.620168 
L 677.330058 135.186873 
L 678.683123 122.776033 
L 680.036188 117.119892 
L 681.389253 114.296863 
L 682.742318 110.060809 
L 684.095383 117.644426 
L 685.448448 161.598821 
L 685.448448 161.598821 
" clip-path="url(#p92f412193a)" style="fill: none; stroke: #4e79a7; stroke-opacity: 0.95; stroke-width: 1.8; stroke-linecap: square"/>
   </g>
   <g id="line2d_35">
    <path d="M 414.09125 256.117214 
L 698.37022 256.117214 
" clip-path="url(#p92f412193a)" style="fill: none; stroke: #888888; stroke-opacity: 0.6; stroke-linecap: square"/>
   </g>
   <g id="patch_8">
    <path d="M 414.09125 327.35 
L 414.09125 70.08 
" style="fill: none; stroke: #000000; stroke-width: 0.8; stroke-linejoin: miter; stroke-linecap: square"/>
   </g>
   <g id="patch_9">
    <path d="M 698.37022 327.35 
L 698.37022 70.08 
" style="fill: none; stroke: #000000; stroke-width: 0.8; stroke-linejoin: miter; stroke-linecap: square"/>
   </g>
   <g id="patch_10">
    <path d="M 414.09125 327.35 
L 698.37022 327.35 
" style="fill: none; stroke: #000000; stroke-width: 0.8; stroke-linejoin: miter; stroke-linecap: square"/>
   </g>
   <g id="patch_11">
    <path d="M 414.09125 70.08 
L 698.37022 70.08 
" style="fill: none; stroke: #000000; stroke-width: 0.8; stroke-linejoin: miter; stroke-linecap: square"/>
   </g>
   <g id="text_19">
    <!-- Price (n=1) -->
    <g transform="translate(525.179797 64.08) scale(0.11 -0.11)">
     <defs>
      <path id="DejaVuSans-50" d="M 1259 4147 
L 1259 2394 
L 2053 2394 
Q 2494 2394 2734 2622 
Q 2975 2850 2975 3272 
Q 2975 3691 2734 3919 
Q 2494 4147 2053 4147 
L 1259 4147 
z
M 628 4666 
L 2053 4666 
Q 2838 4666 3239 4311 
Q 3641 3956 3641 3272 
Q 3641 2581 3239 2228 
Q 2838 1875 2053 1875 
L 1259 1875 
L 1259 0 
L 628 0 
L 628 4666 
z
" transform="scale(0.015625)"/>
      <path id="DejaVuSans-63" d="M 3122 3366 
L 3122 2828 
Q 2878 2963 2633 3030 
Q 2388 3097 2138 3097 
Q 1578 3097 1268 2742 
Q 959 2388 959 1747 
Q 959 1106 1268 751 
Q 1578 397 2138 397 
Q 2388 397 2633 464 
Q 2878 531 3122 666 
L 3122 134 
Q 2881 22 2623 -34 
Q 2366 -91 2075 -91 
Q 1284 -91 818 406 
Q 353 903 353 1747 
Q 353 2603 823 3093 
Q 1294 3584 2113 3584 
Q 2378 3584 2631 3529 
Q 2884 3475 3122 3366 
z
" transform="scale(0.015625)"/>
     </defs>
     <use xlink:href="#DejaVuSans-50"/>
     <use xlink:href="#DejaVuSans-72" transform="translate(58.552734 0)"/>
     <use xlink:href="#DejaVuSans-69" transform="translate(99.666016 0)"/>
     <use xlink:href="#DejaVuSans-63" transform="translate(127.449219 0)"/>
     <use xlink:href="#DejaVuSans-65" transform="translate(182.429688 0)"/>
     <use xlink:href="#DejaVuSans-20" transform="translate(243.953125 0)"/>
     <use xlink:href="#DejaVuSans-28" transform="translate(275.740234 0)"/>
     <use xlink:href="#DejaVuSans-6e" transform="translate(314.753906 0)"/>
     <use xlink:href="#DejaVuSans-3d" transform="translate(378.132812 0)"/>
     <use xlink:href="#DejaVuSans-31" transform="translate(461.921875 0)"/>
     <use xlink:href="#DejaVuSans-29" transform="translate(525.544922 0)"/>
    </g>
   </g>
   <g id="legend_2">
    <g id="line2d_36">
     <path d="M 421.29125 80.55875 
L 429.29125 80.55875 
L 437.29125 80.55875 
" style="fill: none; stroke: #4e79a7; stroke-opacity: 0.95; stroke-width: 1.8; stroke-linecap: square"/>
    </g>
    <g id="text_20">
     <!-- Price Day Ahead -->
     <g transform="translate(443.69125 83.35875) scale(0.08 -0.08)">
      <defs>
       <path id="DejaVuSans-44" d="M 1259 4147 
L 1259 519 
L 2022 519 
Q 2988 519 3436 956 
Q 3884 1394 3884 2338 
Q 3884 3275 3436 3711 
Q 2988 4147 2022 4147 
L 1259 4147 
z
M 628 4666 
L 1925 4666 
Q 3281 4666 3915 4102 
Q 4550 3538 4550 2338 
Q 4550 1131 3912 565 
Q 3275 0 1925 0 
L 628 0 
L 628 4666 
z
" transform="scale(0.015625)"/>
       <path id="DejaVuSans-61" d="M 2194 1759 
Q 1497 1759 1228 1600 
Q 959 1441 959 1056 
Q 959 750 1161 570 
Q 1363 391 1709 391 
Q 2188 391 2477 730 
Q 2766 1069 2766 1631 
L 2766 1759 
L 2194 1759 
z
M 3341 1997 
L 3341 0 
L 2766 0 
L 2766 531 
Q 2569 213 2275 61 
Q 1981 -91 1556 -91 
Q 1019 -91 701 211 
Q 384 513 384 1019 
Q 384 1609 779 1909 
Q 1175 2209 1959 2209 
L 2766 2209 
L 2766 2266 
Q 2766 2663 2505 2880 
Q 2244 3097 1772 3097 
Q 1472 3097 1187 3025 
Q 903 2953 641 2809 
L 641 3341 
Q 956 3463 1253 3523 
Q 1550 3584 1831 3584 
Q 2591 3584 2966 3190 
Q 3341 2797 3341 1997 
z
" transform="scale(0.015625)"/>
       <path id="DejaVuSans-79" d="M 2059 -325 
Q 1816 -950 1584 -1140 
Q 1353 -1331 966 -1331 
L 506 -1331 
L 506 -850 
L 844 -850 
Q 1081 -850 1212 -737 
Q 1344 -625 1503 -206 
L 1606 56 
L 191 3500 
L 800 3500 
L 1894 763 
L 2988 3500 
L 3597 3500 
L 2059 -325 
z
" transform="scale(0.015625)"/>
       <path id="DejaVuSans-64" d="M 2906 2969 
L 2906 4863 
L 3481 4863 
L 3481 0 
L 2906 0 
L 2906 525 
Q 2725 213 2448 61 
Q 2172 -91 1784 -91 
Q 1150 -91 751 415 
Q 353 922 353 1747 
Q 353 2572 751 3078 
Q 1150 3584 1784 3584 
Q 2172 3584 2448 3432 
Q 2725 3281 2906 2969 
z
M 947 1747 
Q 947 1113 1208 752 
Q 1469 391 1925 391 
Q 2381 391 2643 752 
Q 2906 1113 2906 1747 
Q 2906 2381 2643 2742 
Q 2381 3103 1925 3103 
Q 1469 3103 1208 2742 
Q 947 2381 947 1747 
z
" transform="scale(0.015625)"/>
      </defs>
      <use xlink:href="#DejaVuSans-50"/>
      <use xlink:href="#DejaVuSans-72" transform="translate(58.552734 0)"/>
      <use xlink:href="#DejaVuSans-69" transform="translate(99.666016 0)"/>
      <use xlink:href="#DejaVuSans-63" transform="translate(127.449219 0)"/>
      <use xlink:href="#DejaVuSans-65" transform="translate(182.429688 0)"/>
      <use xlink:href="#DejaVuSans-20" transform="translate(243.953125 0)"/>
      <use xlink:href="#DejaVuSans-44" transform="translate(275.740234 0)"/>
      <use xlink:href="#DejaVuSans-61" transform="translate(352.742188 0)"/>
      <use xlink:href="#DejaVuSans-79" transform="translate(414.021484 0)"/>
      <use xlink:href="#DejaVuSans-20" transform="translate(473.201172 0)"/>
      <use xlink:href="#DejaVuSans-41" transform="translate(504.988281 0)"/>
      <use xlink:href="#DejaVuSans-68" transform="translate(573.396484 0)"/>
      <use xlink:href="#DejaVuSans-65" transform="translate(636.775391 0)"/>
      <use xlink:href="#DejaVuSans-61" transform="translate(698.298828 0)"/>
      <use xlink:href="#DejaVuSans-64" transform="translate(759.578125 0)"/>
     </g>
    </g>
   </g>
  </g>
  <g id="axes_3">
   <g id="patch_12">
    <path d="M 59.49125 628.36 
L 343.77022 628.36 
L 343.77022 371.09 
L 59.49125 371.09 
z
" style="fill: #ffffff"/>
   </g>
   <g id="matplotlib.axis_5">
    <g id="xtick_19">
     <g id="line2d_37">
      <g>
       <use xlink:href="#m43e8dcb98a" x="72.413021" y="628.36" style="stroke: #000000; stroke-width: 0.8"/>
      </g>
     </g>
     <g id="text_21">
      <!-- 0 -->
      <g transform="translate(69.868021 641.43875) scale(0.08 -0.08)">
       <use xlink:href="#DejaVuSans-30"/>
      </g>
     </g>
    </g>
    <g id="xtick_20">
     <g id="line2d_38">
      <g>
       <use xlink:href="#m43e8dcb98a" x="106.239648" y="628.36" style="stroke: #000000; stroke-width: 0.8"/>
      </g>
     </g>
     <g id="text_22">
      <!-- 25 -->
      <g transform="translate(101.149648 641.43875) scale(0.08 -0.08)">
       <defs>
        <path id="DejaVuSans-35" d="M 691 4666 
L 3169 4666 
L 3169 4134 
L 1269 4134 
L 1269 2991 
Q 1406 3038 1543 3061 
Q 1681 3084 1819 3084 
Q 2600 3084 3056 2656 
Q 3513 2228 3513 1497 
Q 3513 744 3044 326 
Q 2575 -91 1722 -91 
Q 1428 -91 1123 -41 
Q 819 9 494 109 
L 494 744 
Q 775 591 1075 516 
Q 1375 441 1709 441 
Q 2250 441 2565 725 
Q 2881 1009 2881 1497 
Q 2881 1984 2565 2268 
Q 2250 2553 1709 2553 
Q 1456 2553 1204 2497 
Q 953 2441 691 2322 
L 691 4666 
z
" transform="scale(0.015625)"/>
       </defs>
       <use xlink:href="#DejaVuSans-32"/>
       <use xlink:href="#DejaVuSans-35" transform="translate(63.623047 0)"/>
      </g>
     </g>
    </g>
    <g id="xtick_21">
     <g id="line2d_39">
      <g>
       <use xlink:href="#m43e8dcb98a" x="140.066274" y="628.36" style="stroke: #000000; stroke-width: 0.8"/>
      </g>
     </g>
     <g id="text_23">
      <!-- 50 -->
      <g transform="translate(134.976274 641.43875) scale(0.08 -0.08)">
       <use xlink:href="#DejaVuSans-35"/>
       <use xlink:href="#DejaVuSans-30" transform="translate(63.623047 0)"/>
      </g>
     </g>
    </g>
    <g id="xtick_22">
     <g id="line2d_40">
      <g>
       <use xlink:href="#m43e8dcb98a" x="173.892901" y="628.36" style="stroke: #000000; stroke-width: 0.8"/>
      </g>
     </g>
     <g id="text_24">
      <!-- 75 -->
      <g transform="translate(168.802901 641.43875) scale(0.08 -0.08)">
       <defs>
        <path id="DejaVuSans-37" d="M 525 4666 
L 3525 4666 
L 3525 4397 
L 1831 0 
L 1172 0 
L 2766 4134 
L 525 4134 
L 525 4666 
z
" transform="scale(0.015625)"/>
       </defs>
       <use xlink:href="#DejaVuSans-37"/>
       <use xlink:href="#DejaVuSans-35" transform="translate(63.623047 0)"/>
      </g>
     </g>
    </g>
    <g id="xtick_23">
     <g id="line2d_41">
      <g>
       <use xlink:href="#m43e8dcb98a" x="207.719528" y="628.36" style="stroke: #000000; stroke-width: 0.8"/>
      </g>
     </g>
     <g id="text_25">
      <!-- 100 -->
      <g transform="translate(200.084528 641.43875) scale(0.08 -0.08)">
       <use xlink:href="#DejaVuSans-31"/>
       <use xlink:href="#DejaVuSans-30" transform="translate(63.623047 0)"/>
       <use xlink:href="#DejaVuSans-30" transform="translate(127.246094 0)"/>
      </g>
     </g>
    </g>
    <g id="xtick_24">
     <g id="line2d_42">
      <g>
       <use xlink:href="#m43e8dcb98a" x="241.546154" y="628.36" style="stroke: #000000; stroke-width: 0.8"/>
      </g>
     </g>
     <g id="text_26">
      <!-- 125 -->
      <g transform="translate(233.911154 641.43875) scale(0.08 -0.08)">
       <use xlink:href="#DejaVuSans-31"/>
       <use xlink:href="#DejaVuSans-32" transform="translate(63.623047 0)"/>
       <use xlink:href="#DejaVuSans-35" transform="translate(127.246094 0)"/>
      </g>
     </g>
    </g>
    <g id="xtick_25">
     <g id="line2d_43">
      <g>
       <use xlink:href="#m43e8dcb98a" x="275.372781" y="628.36" style="stroke: #000000; stroke-width: 0.8"/>
      </g>
     </g>
     <g id="text_27">
      <!-- 150 -->
      <g transform="translate(267.737781 641.43875) scale(0.08 -0.08)">
       <use xlink:href="#DejaVuSans-31"/>
       <use xlink:href="#DejaVuSans-35" transform="translate(63.623047 0)"/>
       <use xlink:href="#DejaVuSans-30" transform="translate(127.246094 0)"/>
      </g>
     </g>
    </g>
    <g id="xtick_26">
     <g id="line2d_44">
      <g>
       <use xlink:href="#m43e8dcb98a" x="309.199407" y="628.36" style="stroke: #000000; stroke-width: 0.8"/>
      </g>
     </g>
     <g id="text_28">
      <!-- 175 -->
      <g transform="translate(301.564407 641.43875) scale(0.08 -0.08)">
       <use xlink:href="#DejaVuSans-31"/>
       <use xlink:href="#DejaVuSans-37" transform="translate(63.623047 0)"/>
       <use xlink:href="#DejaVuSans-35" transform="translate(127.246094 0)"/>
      </g>
     </g>
    </g>
    <g id="xtick_27">
     <g id="line2d_45">
      <g>
       <use xlink:href="#m43e8dcb98a" x="343.026034" y="628.36" style="stroke: #000000; stroke-width: 0.8"/>
      </g>
     </g>
     <g id="text_29">
      <!-- 200 -->
      <g transform="translate(335.391034 641.43875) scale(0.08 -0.08)">
       <use xlink:href="#DejaVuSans-32"/>
       <use xlink:href="#DejaVuSans-30" transform="translate(63.623047 0)"/>
       <use xlink:href="#DejaVuSans-30" transform="translate(127.246094 0)"/>
      </g>
     </g>
    </g>
    <g id="text_30">
     <!-- Time Steps -->
     <g transform="translate(171.036985 655.460781) scale(0.11 -0.11)">
      <use xlink:href="#DejaVuSans-54"/>
      <use xlink:href="#DejaVuSans-69" transform="translate(57.958984 0)"/>
      <use xlink:href="#DejaVuSans-6d" transform="translate(85.742188 0)"/>
      <use xlink:href="#DejaVuSans-65" transform="translate(183.154297 0)"/>
      <use xlink:href="#DejaVuSans-20" transform="translate(244.677734 0)"/>
      <use xlink:href="#DejaVuSans-53" transform="translate(276.464844 0)"/>
      <use xlink:href="#DejaVuSans-74" transform="translate(339.941406 0)"/>
      <use xlink:href="#DejaVuSans-65" transform="translate(379.150391 0)"/>
      <use xlink:href="#DejaVuSans-70" transform="translate(440.673828 0)"/>
      <use xlink:href="#DejaVuSans-73" transform="translate(504.150391 0)"/>
     </g>
    </g>
   </g>
   <g id="matplotlib.axis_6">
    <g id="ytick_13">
     <g id="line2d_46">
      <g>
       <use xlink:href="#m470573bb7e" x="59.49125" y="613.098091" style="stroke: #000000; stroke-width: 0.8"/>
      </g>
     </g>
     <g id="text_31">
      <!-- −0.03 -->
      <g transform="translate(21.845938 616.89731) scale(0.1 -0.1)">
       <defs>
        <path id="DejaVuSans-33" d="M 2597 2516 
Q 3050 2419 3304 2112 
Q 3559 1806 3559 1356 
Q 3559 666 3084 287 
Q 2609 -91 1734 -91 
Q 1441 -91 1130 -33 
Q 819 25 488 141 
L 488 750 
Q 750 597 1062 519 
Q 1375 441 1716 441 
Q 2309 441 2620 675 
Q 2931 909 2931 1356 
Q 2931 1769 2642 2001 
Q 2353 2234 1838 2234 
L 1294 2234 
L 1294 2753 
L 1863 2753 
Q 2328 2753 2575 2939 
Q 2822 3125 2822 3475 
Q 2822 3834 2567 4026 
Q 2313 4219 1838 4219 
Q 1578 4219 1281 4162 
Q 984 4106 628 3988 
L 628 4550 
Q 988 4650 1302 4700 
Q 1616 4750 1894 4750 
Q 2613 4750 3031 4423 
Q 3450 4097 3450 3541 
Q 3450 3153 3228 2886 
Q 3006 2619 2597 2516 
z
" transform="scale(0.015625)"/>
       </defs>
       <use xlink:href="#DejaVuSans-2212"/>
       <use xlink:href="#DejaVuSans-30" transform="translate(83.789062 0)"/>
       <use xlink:href="#DejaVuSans-2e" transform="translate(147.412109 0)"/>
       <use xlink:href="#DejaVuSans-30" transform="translate(179.199219 0)"/>
       <use xlink:href="#DejaVuSans-33" transform="translate(242.822266 0)"/>
      </g>
     </g>
    </g>
    <g id="ytick_14">
     <g id="line2d_47">
      <g>
       <use xlink:href="#m470573bb7e" x="59.49125" y="560.773427" style="stroke: #000000; stroke-width: 0.8"/>
      </g>
     </g>
     <g id="text_32">
      <!-- −0.02 -->
      <g transform="translate(21.845938 564.572646) scale(0.1 -0.1)">
       <use xlink:href="#DejaVuSans-2212"/>
       <use xlink:href="#DejaVuSans-30" transform="translate(83.789062 0)"/>
       <use xlink:href="#DejaVuSans-2e" transform="translate(147.412109 0)"/>
       <use xlink:href="#DejaVuSans-30" transform="translate(179.199219 0)"/>
       <use xlink:href="#DejaVuSans-32" transform="translate(242.822266 0)"/>
      </g>
     </g>
    </g>
    <g id="ytick_15">
     <g id="line2d_48">
      <g>
       <use xlink:href="#m470573bb7e" x="59.49125" y="508.448762" style="stroke: #000000; stroke-width: 0.8"/>
      </g>
     </g>
     <g id="text_33">
      <!-- −0.01 -->
      <g transform="translate(21.845938 512.247981) scale(0.1 -0.1)">
       <use xlink:href="#DejaVuSans-2212"/>
       <use xlink:href="#DejaVuSans-30" transform="translate(83.789062 0)"/>
       <use xlink:href="#DejaVuSans-2e" transform="translate(147.412109 0)"/>
       <use xlink:href="#DejaVuSans-30" transform="translate(179.199219 0)"/>
       <use xlink:href="#DejaVuSans-31" transform="translate(242.822266 0)"/>
      </g>
     </g>
    </g>
    <g id="ytick_16">
     <g id="line2d_49">
      <g>
       <use xlink:href="#m470573bb7e" x="59.49125" y="456.124098" style="stroke: #000000; stroke-width: 0.8"/>
      </g>
     </g>
     <g id="text_34">
      <!-- 0.00 -->
      <g transform="translate(30.225625 459.923317) scale(0.1 -0.1)">
       <use xlink:href="#DejaVuSans-30"/>
       <use xlink:href="#DejaVuSans-2e" transform="translate(63.623047 0)"/>
       <use xlink:href="#DejaVuSans-30" transform="translate(95.410156 0)"/>
       <use xlink:href="#DejaVuSans-30" transform="translate(159.033203 0)"/>
      </g>
     </g>
    </g>
    <g id="ytick_17">
     <g id="line2d_50">
      <g>
       <use xlink:href="#m470573bb7e" x="59.49125" y="403.799433" style="stroke: #000000; stroke-width: 0.8"/>
      </g>
     </g>
     <g id="text_35">
      <!-- 0.01 -->
      <g transform="translate(30.225625 407.598652) scale(0.1 -0.1)">
       <use xlink:href="#DejaVuSans-30"/>
       <use xlink:href="#DejaVuSans-2e" transform="translate(63.623047 0)"/>
       <use xlink:href="#DejaVuSans-30" transform="translate(95.410156 0)"/>
       <use xlink:href="#DejaVuSans-31" transform="translate(159.033203 0)"/>
      </g>
     </g>
    </g>
    <g id="text_36">
     <!-- Attribution (IG) -->
     <g transform="translate(15.558281 540.928594) rotate(-90) scale(0.11 -0.11)">
      <use xlink:href="#DejaVuSans-41"/>
      <use xlink:href="#DejaVuSans-74" transform="translate(66.658203 0)"/>
      <use xlink:href="#DejaVuSans-74" transform="translate(105.867188 0)"/>
      <use xlink:href="#DejaVuSans-72" transform="translate(145.076172 0)"/>
      <use xlink:href="#DejaVuSans-69" transform="translate(186.189453 0)"/>
      <use xlink:href="#DejaVuSans-62" transform="translate(213.972656 0)"/>
      <use xlink:href="#DejaVuSans-75" transform="translate(277.449219 0)"/>
      <use xlink:href="#DejaVuSans-74" transform="translate(340.828125 0)"/>
      <use xlink:href="#DejaVuSans-69" transform="translate(380.037109 0)"/>
      <use xlink:href="#DejaVuSans-6f" transform="translate(407.820312 0)"/>
      <use xlink:href="#DejaVuSans-6e" transform="translate(469.001953 0)"/>
      <use xlink:href="#DejaVuSans-20" transform="translate(532.380859 0)"/>
      <use xlink:href="#DejaVuSans-28" transform="translate(564.167969 0)"/>
      <use xlink:href="#DejaVuSans-49" transform="translate(603.181641 0)"/>
      <use xlink:href="#DejaVuSans-47" transform="translate(632.673828 0)"/>
      <use xlink:href="#DejaVuSans-29" transform="translate(710.164062 0)"/>
     </g>
    </g>
   </g>
   <g id="line2d_51">
    <path d="M 72.413021 456.081179 
L 84.590607 456.094769 
L 150.890795 456.154339 
L 173.892901 456.137915 
L 182.011291 456.161429 
L 184.717421 456.331512 
L 196.895007 456.418551 
L 203.660332 456.067256 
L 223.956308 456.206481 
L 226.662438 456.08925 
L 233.427764 456.105011 
L 234.780829 456.563095 
L 238.840024 456.752392 
L 240.193089 456.963719 
L 242.899219 457.030463 
L 244.252284 457.573039 
L 245.605349 458.594406 
L 246.958414 458.792195 
L 248.311479 458.770919 
L 252.370675 457.101891 
L 255.076805 456.896608 
L 256.42987 456.865026 
L 257.782935 456.968348 
L 260.489065 457.604959 
L 261.84213 458.63603 
L 264.54826 460.353711 
L 265.901325 459.433485 
L 267.25439 457.696655 
L 268.607455 459.528412 
L 269.96052 459.098437 
L 271.313585 459.05484 
L 272.666651 459.792738 
L 274.019716 457.629032 
L 275.372781 457.504711 
L 278.078911 457.681257 
L 279.431976 460.466047 
L 280.785041 468.405944 
L 282.138106 470.310916 
L 283.491171 477.315302 
L 284.844236 480.468916 
L 286.197301 483.265818 
L 287.550366 479.238002 
L 288.903431 482.121738 
L 290.256496 486.189553 
L 291.609561 489.63436 
L 292.962626 492.168011 
L 294.315692 493.553688 
L 295.668757 489.924237 
L 297.021822 478.193192 
L 298.374887 498.933299 
L 299.727952 457.362096 
L 301.081017 459.367904 
L 302.434082 464.000266 
L 303.787147 477.786516 
L 305.140212 495.802521 
L 306.493277 518.529212 
L 307.846342 550.046911 
L 310.552472 591.654456 
L 311.905537 616.665909 
L 313.258602 580.179042 
L 314.611667 537.096172 
L 315.964733 518.899715 
L 317.317798 504.879371 
L 318.670863 482.136635 
L 321.376993 457.002366 
L 322.730058 456.274789 
L 324.083123 444.539346 
L 325.436188 418.220665 
L 326.789253 417.735454 
L 328.142318 420.409062 
L 329.495383 422.811302 
L 330.848448 429.236306 
L 330.848448 429.236306 
" clip-path="url(#p083374da40)" style="fill: none; stroke: #59a14f; stroke-opacity: 0.95; stroke-width: 1.8; stroke-linecap: square"/>
   </g>
   <g id="line2d_52">
    <path d="M 72.413021 456.12951 
L 165.774511 456.126588 
L 217.190983 456.152302 
L 219.897113 456.12039 
L 223.956308 456.156234 
L 226.662438 456.286359 
L 228.015503 456.122692 
L 230.721634 456.315225 
L 233.427764 456.451853 
L 244.252284 456.421446 
L 246.958414 456.018054 
L 248.311479 456.309154 
L 251.01761 456.243994 
L 255.076805 456.007569 
L 259.136 456.3011 
L 260.489065 455.636725 
L 261.84213 456.17552 
L 263.195195 457.091785 
L 264.54826 457.256491 
L 265.901325 458.147438 
L 267.25439 456.869028 
L 268.607455 456.60141 
L 269.96052 456.57633 
L 271.313585 456.905451 
L 272.666651 456.670577 
L 274.019716 457.783827 
L 275.372781 459.799433 
L 276.725846 458.823318 
L 278.078911 456.742895 
L 279.431976 453.643956 
L 280.785041 452.544371 
L 282.138106 450.300546 
L 283.491171 449.323275 
L 284.844236 447.669263 
L 286.197301 447.014612 
L 287.550366 446.514459 
L 288.903431 444.127813 
L 290.256496 443.527181 
L 291.609561 445.011888 
L 292.962626 448.692521 
L 294.315692 457.269099 
L 295.668757 457.595512 
L 297.021822 466.182846 
L 298.374887 471.985305 
L 299.727952 477.231641 
L 301.081017 499.682058 
L 302.434082 510.18224 
L 303.787147 516.538647 
L 305.140212 522.266778 
L 306.493277 513.624403 
L 307.846342 488.27125 
L 310.552472 465.266837 
L 311.905537 475.436029 
L 313.258602 434.872467 
L 315.964733 397.162204 
L 317.317798 393.39443 
L 318.670863 393.387144 
L 320.023928 382.784091 
L 321.376993 390.481589 
L 322.730058 406.554484 
L 324.083123 437.185091 
L 325.436188 457.008296 
L 326.789253 455.909426 
L 328.142318 436.446102 
L 329.495383 424.747366 
L 330.848448 421.689019 
L 330.848448 421.689019 
" clip-path="url(#p083374da40)" style="fill: none; stroke: #8cd17d; stroke-opacity: 0.95; stroke-width: 1.8; stroke-linecap: square"/>
   </g>
   <g id="line2d_53">
    <path d="M 59.49125 456.124098 
L 343.77022 456.124098 
" clip-path="url(#p083374da40)" style="fill: none; stroke: #888888; stroke-opacity: 0.6; stroke-linecap: square"/>
   </g>
   <g id="patch_13">
    <path d="M 59.49125 628.36 
L 59.49125 371.09 
" style="fill: none; stroke: #000000; stroke-width: 0.8; stroke-linejoin: miter; stroke-linecap: square"/>
   </g>
   <g id="patch_14">
    <path d="M 343.77022 628.36 
L 343.77022 371.09 
" style="fill: none; stroke: #000000; stroke-width: 0.8; stroke-linejoin: miter; stroke-linecap: square"/>
   </g>
   <g id="patch_15">
    <path d="M 59.49125 628.36 
L 343.77022 628.36 
" style="fill: none; stroke: #000000; stroke-width: 0.8; stroke-linejoin: miter; stroke-linecap: square"/>
   </g>
   <g id="patch_16">
    <path d="M 59.49125 371.09 
L 343.77022 371.09 
" style="fill: none; stroke: #000000; stroke-width: 0.8; stroke-linejoin: miter; stroke-linecap: square"/>
   </g>
   <g id="text_37">
    <!-- Renewable (n=2) -->
    <g transform="translate(153.89675 365.09) scale(0.11 -0.11)">
     <defs>
      <path id="DejaVuSans-52" d="M 2841 2188 
Q 3044 2119 3236 1894 
Q 3428 1669 3622 1275 
L 4263 0 
L 3584 0 
L 2988 1197 
Q 2756 1666 2539 1819 
Q 2322 1972 1947 1972 
L 1259 1972 
L 1259 0 
L 628 0 
L 628 4666 
L 2053 4666 
Q 2853 4666 3247 4331 
Q 3641 3997 3641 3322 
Q 3641 2881 3436 2590 
Q 3231 2300 2841 2188 
z
M 1259 4147 
L 1259 2491 
L 2053 2491 
Q 2509 2491 2742 2702 
Q 2975 2913 2975 3322 
Q 2975 3731 2742 3939 
Q 2509 4147 2053 4147 
L 1259 4147 
z
" transform="scale(0.015625)"/>
      <path id="DejaVuSans-77" d="M 269 3500 
L 844 3500 
L 1563 769 
L 2278 3500 
L 2956 3500 
L 3675 769 
L 4391 3500 
L 4966 3500 
L 4050 0 
L 3372 0 
L 2619 2869 
L 1863 0 
L 1184 0 
L 269 3500 
z
" transform="scale(0.015625)"/>
      <path id="DejaVuSans-6c" d="M 603 4863 
L 1178 4863 
L 1178 0 
L 603 0 
L 603 4863 
z
" transform="scale(0.015625)"/>
     </defs>
     <use xlink:href="#DejaVuSans-52"/>
     <use xlink:href="#DejaVuSans-65" transform="translate(64.982422 0)"/>
     <use xlink:href="#DejaVuSans-6e" transform="translate(126.505859 0)"/>
     <use xlink:href="#DejaVuSans-65" transform="translate(189.884766 0)"/>
     <use xlink:href="#DejaVuSans-77" transform="translate(251.408203 0)"/>
     <use xlink:href="#DejaVuSans-61" transform="translate(333.195312 0)"/>
     <use xlink:href="#DejaVuSans-62" transform="translate(394.474609 0)"/>
     <use xlink:href="#DejaVuSans-6c" transform="translate(457.951172 0)"/>
     <use xlink:href="#DejaVuSans-65" transform="translate(485.734375 0)"/>
     <use xlink:href="#DejaVuSans-20" transform="translate(547.257812 0)"/>
     <use xlink:href="#DejaVuSans-28" transform="translate(579.044922 0)"/>
     <use xlink:href="#DejaVuSans-6e" transform="translate(618.058594 0)"/>
     <use xlink:href="#DejaVuSans-3d" transform="translate(681.4375 0)"/>
     <use xlink:href="#DejaVuSans-32" transform="translate(765.226562 0)"/>
     <use xlink:href="#DejaVuSans-29" transform="translate(828.849609 0)"/>
    </g>
   </g>
   <g id="legend_3">
    <g id="line2d_54">
     <path d="M 66.69125 381.56875 
L 74.69125 381.56875 
L 82.69125 381.56875 
" style="fill: none; stroke: #59a14f; stroke-opacity: 0.95; stroke-width: 1.8; stroke-linecap: square"/>
    </g>
    <g id="text_38">
     <!-- Forecast Wind Onshore Day Ahead -->
     <g transform="translate(89.09125 384.36875) scale(0.08 -0.08)">
      <defs>
       <path id="DejaVuSans-46" d="M 628 4666 
L 3309 4666 
L 3309 4134 
L 1259 4134 
L 1259 2759 
L 3109 2759 
L 3109 2228 
L 1259 2228 
L 1259 0 
L 628 0 
L 628 4666 
z
" transform="scale(0.015625)"/>
       <path id="DejaVuSans-57" d="M 213 4666 
L 850 4666 
L 1831 722 
L 2809 4666 
L 3519 4666 
L 4500 722 
L 5478 4666 
L 6119 4666 
L 4947 0 
L 4153 0 
L 3169 4050 
L 2175 0 
L 1381 0 
L 213 4666 
z
" transform="scale(0.015625)"/>
      </defs>
      <use xlink:href="#DejaVuSans-46"/>
      <use xlink:href="#DejaVuSans-6f" transform="translate(53.894531 0)"/>
      <use xlink:href="#DejaVuSans-72" transform="translate(115.076172 0)"/>
      <use xlink:href="#DejaVuSans-65" transform="translate(153.939453 0)"/>
      <use xlink:href="#DejaVuSans-63" transform="translate(215.462891 0)"/>
      <use xlink:href="#DejaVuSans-61" transform="translate(270.443359 0)"/>
      <use xlink:href="#DejaVuSans-73" transform="translate(331.722656 0)"/>
      <use xlink:href="#DejaVuSans-74" transform="translate(383.822266 0)"/>
      <use xlink:href="#DejaVuSans-20" transform="translate(423.03125 0)"/>
      <use xlink:href="#DejaVuSans-57" transform="translate(454.818359 0)"/>
      <use xlink:href="#DejaVuSans-69" transform="translate(551.445312 0)"/>
      <use xlink:href="#DejaVuSans-6e" transform="translate(579.228516 0)"/>
      <use xlink:href="#DejaVuSans-64" transform="translate(642.607422 0)"/>
      <use xlink:href="#DejaVuSans-20" transform="translate(706.083984 0)"/>
      <use xlink:href="#DejaVuSans-4f" transform="translate(737.871094 0)"/>
      <use xlink:href="#DejaVuSans-6e" transform="translate(816.582031 0)"/>
      <use xlink:href="#DejaVuSans-73" transform="translate(879.960938 0)"/>
      <use xlink:href="#DejaVuSans-68" transform="translate(932.060547 0)"/>
      <use xlink:href="#DejaVuSans-6f" transform="translate(995.439453 0)"/>
      <use xlink:href="#DejaVuSans-72" transform="translate(1056.621094 0)"/>
      <use xlink:href="#DejaVuSans-65" transform="translate(1095.484375 0)"/>
      <use xlink:href="#DejaVuSans-20" transform="translate(1157.007812 0)"/>
      <use xlink:href="#DejaVuSans-44" transform="translate(1188.794922 0)"/>
      <use xlink:href="#DejaVuSans-61" transform="translate(1265.796875 0)"/>
      <use xlink:href="#DejaVuSans-79" transform="translate(1327.076172 0)"/>
      <use xlink:href="#DejaVuSans-20" transform="translate(1386.255859 0)"/>
      <use xlink:href="#DejaVuSans-41" transform="translate(1418.042969 0)"/>
      <use xlink:href="#DejaVuSans-68" transform="translate(1486.451172 0)"/>
      <use xlink:href="#DejaVuSans-65" transform="translate(1549.830078 0)"/>
      <use xlink:href="#DejaVuSans-61" transform="translate(1611.353516 0)"/>
      <use xlink:href="#DejaVuSans-64" transform="translate(1672.632812 0)"/>
     </g>
    </g>
    <g id="line2d_55">
     <path d="M 66.69125 393.31125 
L 74.69125 393.31125 
L 82.69125 393.31125 
" style="fill: none; stroke: #8cd17d; stroke-opacity: 0.95; stroke-width: 1.8; stroke-linecap: square"/>
    </g>
    <g id="text_39">
     <!-- Forecast Solar Day Ahead -->
     <g transform="translate(89.09125 396.11125) scale(0.08 -0.08)">
      <use xlink:href="#DejaVuSans-46"/>
      <use xlink:href="#DejaVuSans-6f" transform="translate(53.894531 0)"/>
      <use xlink:href="#DejaVuSans-72" transform="translate(115.076172 0)"/>
      <use xlink:href="#DejaVuSans-65" transform="translate(153.939453 0)"/>
      <use xlink:href="#DejaVuSans-63" transform="translate(215.462891 0)"/>
      <use xlink:href="#DejaVuSans-61" transform="translate(270.443359 0)"/>
      <use xlink:href="#DejaVuSans-73" transform="translate(331.722656 0)"/>
      <use xlink:href="#DejaVuSans-74" transform="translate(383.822266 0)"/>
      <use xlink:href="#DejaVuSans-20" transform="translate(423.03125 0)"/>
      <use xlink:href="#DejaVuSans-53" transform="translate(454.818359 0)"/>
      <use xlink:href="#DejaVuSans-6f" transform="translate(518.294922 0)"/>
      <use xlink:href="#DejaVuSans-6c" transform="translate(579.476562 0)"/>
      <use xlink:href="#DejaVuSans-61" transform="translate(607.259766 0)"/>
      <use xlink:href="#DejaVuSans-72" transform="translate(668.539062 0)"/>
      <use xlink:href="#DejaVuSans-20" transform="translate(709.652344 0)"/>
      <use xlink:href="#DejaVuSans-44" transform="translate(741.439453 0)"/>
      <use xlink:href="#DejaVuSans-61" transform="translate(818.441406 0)"/>
      <use xlink:href="#DejaVuSans-79" transform="translate(879.720703 0)"/>
      <use xlink:href="#DejaVuSans-20" transform="translate(938.900391 0)"/>
      <use xlink:href="#DejaVuSans-41" transform="translate(970.6875 0)"/>
      <use xlink:href="#DejaVuSans-68" transform="translate(1039.095703 0)"/>
      <use xlink:href="#DejaVuSans-65" transform="translate(1102.474609 0)"/>
      <use xlink:href="#DejaVuSans-61" transform="translate(1163.998047 0)"/>
      <use xlink:href="#DejaVuSans-64" transform="translate(1225.277344 0)"/>
     </g>
    </g>
   </g>
  </g>
  <g id="axes_4">
   <g id="patch_17">
    <path d="M 414.09125 628.36 
L 698.37022 628.36 
L 698.37022 371.09 
L 414.09125 371.09 
z
" style="fill: #ffffff"/>
   </g>
   <g id="matplotlib.axis_7">
    <g id="xtick_28">
     <g id="line2d_56">
      <g>
       <use xlink:href="#m43e8dcb98a" x="427.013021" y="628.36" style="stroke: #000000; stroke-width: 0.8"/>
      </g>
     </g>
     <g id="text_40">
      <!-- 0 -->
      <g transform="translate(424.468021 641.43875) scale(0.08 -0.08)">
       <use xlink:href="#DejaVuSans-30"/>
      </g>
     </g>
    </g>
    <g id="xtick_29">
     <g id="line2d_57">
      <g>
       <use xlink:href="#m43e8dcb98a" x="460.839648" y="628.36" style="stroke: #000000; stroke-width: 0.8"/>
      </g>
     </g>
     <g id="text_41">
      <!-- 25 -->
      <g transform="translate(455.749648 641.43875) scale(0.08 -0.08)">
       <use xlink:href="#DejaVuSans-32"/>
       <use xlink:href="#DejaVuSans-35" transform="translate(63.623047 0)"/>
      </g>
     </g>
    </g>
    <g id="xtick_30">
     <g id="line2d_58">
      <g>
       <use xlink:href="#m43e8dcb98a" x="494.666274" y="628.36" style="stroke: #000000; stroke-width: 0.8"/>
      </g>
     </g>
     <g id="text_42">
      <!-- 50 -->
      <g transform="translate(489.576274 641.43875) scale(0.08 -0.08)">
       <use xlink:href="#DejaVuSans-35"/>
       <use xlink:href="#DejaVuSans-30" transform="translate(63.623047 0)"/>
      </g>
     </g>
    </g>
    <g id="xtick_31">
     <g id="line2d_59">
      <g>
       <use xlink:href="#m43e8dcb98a" x="528.492901" y="628.36" style="stroke: #000000; stroke-width: 0.8"/>
      </g>
     </g>
     <g id="text_43">
      <!-- 75 -->
      <g transform="translate(523.402901 641.43875) scale(0.08 -0.08)">
       <use xlink:href="#DejaVuSans-37"/>
       <use xlink:href="#DejaVuSans-35" transform="translate(63.623047 0)"/>
      </g>
     </g>
    </g>
    <g id="xtick_32">
     <g id="line2d_60">
      <g>
       <use xlink:href="#m43e8dcb98a" x="562.319528" y="628.36" style="stroke: #000000; stroke-width: 0.8"/>
      </g>
     </g>
     <g id="text_44">
      <!-- 100 -->
      <g transform="translate(554.684528 641.43875) scale(0.08 -0.08)">
       <use xlink:href="#DejaVuSans-31"/>
       <use xlink:href="#DejaVuSans-30" transform="translate(63.623047 0)"/>
       <use xlink:href="#DejaVuSans-30" transform="translate(127.246094 0)"/>
      </g>
     </g>
    </g>
    <g id="xtick_33">
     <g id="line2d_61">
      <g>
       <use xlink:href="#m43e8dcb98a" x="596.146154" y="628.36" style="stroke: #000000; stroke-width: 0.8"/>
      </g>
     </g>
     <g id="text_45">
      <!-- 125 -->
      <g transform="translate(588.511154 641.43875) scale(0.08 -0.08)">
       <use xlink:href="#DejaVuSans-31"/>
       <use xlink:href="#DejaVuSans-32" transform="translate(63.623047 0)"/>
       <use xlink:href="#DejaVuSans-35" transform="translate(127.246094 0)"/>
      </g>
     </g>
    </g>
    <g id="xtick_34">
     <g id="line2d_62">
      <g>
       <use xlink:href="#m43e8dcb98a" x="629.972781" y="628.36" style="stroke: #000000; stroke-width: 0.8"/>
      </g>
     </g>
     <g id="text_46">
      <!-- 150 -->
      <g transform="translate(622.337781 641.43875) scale(0.08 -0.08)">
       <use xlink:href="#DejaVuSans-31"/>
       <use xlink:href="#DejaVuSans-35" transform="translate(63.623047 0)"/>
       <use xlink:href="#DejaVuSans-30" transform="translate(127.246094 0)"/>
      </g>
     </g>
    </g>
    <g id="xtick_35">
     <g id="line2d_63">
      <g>
       <use xlink:href="#m43e8dcb98a" x="663.799407" y="628.36" style="stroke: #000000; stroke-width: 0.8"/>
      </g>
     </g>
     <g id="text_47">
      <!-- 175 -->
      <g transform="translate(656.164407 641.43875) scale(0.08 -0.08)">
       <use xlink:href="#DejaVuSans-31"/>
       <use xlink:href="#DejaVuSans-37" transform="translate(63.623047 0)"/>
       <use xlink:href="#DejaVuSans-35" transform="translate(127.246094 0)"/>
      </g>
     </g>
    </g>
    <g id="xtick_36">
     <g id="line2d_64">
      <g>
       <use xlink:href="#m43e8dcb98a" x="697.626034" y="628.36" style="stroke: #000000; stroke-width: 0.8"/>
      </g>
     </g>
     <g id="text_48">
      <!-- 200 -->
      <g transform="translate(689.991034 641.43875) scale(0.08 -0.08)">
       <use xlink:href="#DejaVuSans-32"/>
       <use xlink:href="#DejaVuSans-30" transform="translate(63.623047 0)"/>
       <use xlink:href="#DejaVuSans-30" transform="translate(127.246094 0)"/>
      </g>
     </g>
    </g>
    <g id="text_49">
     <!-- Time Steps -->
     <g transform="translate(525.636985 655.460781) scale(0.11 -0.11)">
      <use xlink:href="#DejaVuSans-54"/>
      <use xlink:href="#DejaVuSans-69" transform="translate(57.958984 0)"/>
      <use xlink:href="#DejaVuSans-6d" transform="translate(85.742188 0)"/>
      <use xlink:href="#DejaVuSans-65" transform="translate(183.154297 0)"/>
      <use xlink:href="#DejaVuSans-20" transform="translate(244.677734 0)"/>
      <use xlink:href="#DejaVuSans-53" transform="translate(276.464844 0)"/>
      <use xlink:href="#DejaVuSans-74" transform="translate(339.941406 0)"/>
      <use xlink:href="#DejaVuSans-65" transform="translate(379.150391 0)"/>
      <use xlink:href="#DejaVuSans-70" transform="translate(440.673828 0)"/>
      <use xlink:href="#DejaVuSans-73" transform="translate(504.150391 0)"/>
     </g>
    </g>
   </g>
   <g id="matplotlib.axis_8">
    <g id="ytick_18">
     <g id="line2d_65">
      <g>
       <use xlink:href="#m470573bb7e" x="414.09125" y="608.64616" style="stroke: #000000; stroke-width: 0.8"/>
      </g>
     </g>
     <g id="text_50">
      <!-- −0.08 -->
      <g transform="translate(376.445937 612.445378) scale(0.1 -0.1)">
       <use xlink:href="#DejaVuSans-2212"/>
       <use xlink:href="#DejaVuSans-30" transform="translate(83.789062 0)"/>
       <use xlink:href="#DejaVuSans-2e" transform="translate(147.412109 0)"/>
       <use xlink:href="#DejaVuSans-30" transform="translate(179.199219 0)"/>
       <use xlink:href="#DejaVuSans-38" transform="translate(242.822266 0)"/>
      </g>
     </g>
    </g>
    <g id="ytick_19">
     <g id="line2d_66">
      <g>
       <use xlink:href="#m470573bb7e" x="414.09125" y="567.291281" style="stroke: #000000; stroke-width: 0.8"/>
      </g>
     </g>
     <g id="text_51">
      <!-- −0.06 -->
      <g transform="translate(376.445937 571.0905) scale(0.1 -0.1)">
       <use xlink:href="#DejaVuSans-2212"/>
       <use xlink:href="#DejaVuSans-30" transform="translate(83.789062 0)"/>
       <use xlink:href="#DejaVuSans-2e" transform="translate(147.412109 0)"/>
       <use xlink:href="#DejaVuSans-30" transform="translate(179.199219 0)"/>
       <use xlink:href="#DejaVuSans-36" transform="translate(242.822266 0)"/>
      </g>
     </g>
    </g>
    <g id="ytick_20">
     <g id="line2d_67">
      <g>
       <use xlink:href="#m470573bb7e" x="414.09125" y="525.936403" style="stroke: #000000; stroke-width: 0.8"/>
      </g>
     </g>
     <g id="text_52">
      <!-- −0.04 -->
      <g transform="translate(376.445937 529.735622) scale(0.1 -0.1)">
       <use xlink:href="#DejaVuSans-2212"/>
       <use xlink:href="#DejaVuSans-30" transform="translate(83.789062 0)"/>
       <use xlink:href="#DejaVuSans-2e" transform="translate(147.412109 0)"/>
       <use xlink:href="#DejaVuSans-30" transform="translate(179.199219 0)"/>
       <use xlink:href="#DejaVuSans-34" transform="translate(242.822266 0)"/>
      </g>
     </g>
    </g>
    <g id="ytick_21">
     <g id="line2d_68">
      <g>
       <use xlink:href="#m470573bb7e" x="414.09125" y="484.581524" style="stroke: #000000; stroke-width: 0.8"/>
      </g>
     </g>
     <g id="text_53">
      <!-- −0.02 -->
      <g transform="translate(376.445937 488.380743) scale(0.1 -0.1)">
       <use xlink:href="#DejaVuSans-2212"/>
       <use xlink:href="#DejaVuSans-30" transform="translate(83.789062 0)"/>
       <use xlink:href="#DejaVuSans-2e" transform="translate(147.412109 0)"/>
       <use xlink:href="#DejaVuSans-30" transform="translate(179.199219 0)"/>
       <use xlink:href="#DejaVuSans-32" transform="translate(242.822266 0)"/>
      </g>
     </g>
    </g>
    <g id="ytick_22">
     <g id="line2d_69">
      <g>
       <use xlink:href="#m470573bb7e" x="414.09125" y="443.226646" style="stroke: #000000; stroke-width: 0.8"/>
      </g>
     </g>
     <g id="text_54">
      <!-- 0.00 -->
      <g transform="translate(384.825625 447.025865) scale(0.1 -0.1)">
       <use xlink:href="#DejaVuSans-30"/>
       <use xlink:href="#DejaVuSans-2e" transform="translate(63.623047 0)"/>
       <use xlink:href="#DejaVuSans-30" transform="translate(95.410156 0)"/>
       <use xlink:href="#DejaVuSans-30" transform="translate(159.033203 0)"/>
      </g>
     </g>
    </g>
    <g id="ytick_23">
     <g id="line2d_70">
      <g>
       <use xlink:href="#m470573bb7e" x="414.09125" y="401.871768" style="stroke: #000000; stroke-width: 0.8"/>
      </g>
     </g>
     <g id="text_55">
      <!-- 0.02 -->
      <g transform="translate(384.825625 405.670986) scale(0.1 -0.1)">
       <use xlink:href="#DejaVuSans-30"/>
       <use xlink:href="#DejaVuSans-2e" transform="translate(63.623047 0)"/>
       <use xlink:href="#DejaVuSans-30" transform="translate(95.410156 0)"/>
       <use xlink:href="#DejaVuSans-32" transform="translate(159.033203 0)"/>
      </g>
     </g>
    </g>
    <g id="text_56">
     <!-- Attribution (IG) -->
     <g transform="translate(370.158281 540.928594) rotate(-90) scale(0.11 -0.11)">
      <use xlink:href="#DejaVuSans-41"/>
      <use xlink:href="#DejaVuSans-74" transform="translate(66.658203 0)"/>
      <use xlink:href="#DejaVuSans-74" transform="translate(105.867188 0)"/>
      <use xlink:href="#DejaVuSans-72" transform="translate(145.076172 0)"/>
      <use xlink:href="#DejaVuSans-69" transform="translate(186.189453 0)"/>
      <use xlink:href="#DejaVuSans-62" transform="translate(213.972656 0)"/>
      <use xlink:href="#DejaVuSans-75" transform="translate(277.449219 0)"/>
      <use xlink:href="#DejaVuSans-74" transform="translate(340.828125 0)"/>
      <use xlink:href="#DejaVuSans-69" transform="translate(380.037109 0)"/>
      <use xlink:href="#DejaVuSans-6f" transform="translate(407.820312 0)"/>
      <use xlink:href="#DejaVuSans-6e" transform="translate(469.001953 0)"/>
      <use xlink:href="#DejaVuSans-20" transform="translate(532.380859 0)"/>
      <use xlink:href="#DejaVuSans-28" transform="translate(564.167969 0)"/>
      <use xlink:href="#DejaVuSans-49" transform="translate(603.181641 0)"/>
      <use xlink:href="#DejaVuSans-47" transform="translate(632.673828 0)"/>
      <use xlink:href="#DejaVuSans-29" transform="translate(710.164062 0)"/>
     </g>
    </g>
   </g>
   <g id="line2d_71">
    <path d="M 427.013021 443.241009 
L 479.782559 443.227575 
L 565.025658 443.300491 
L 573.144048 443.595132 
L 575.850178 443.670095 
L 577.203243 443.638974 
L 578.556308 443.450383 
L 579.909373 443.563897 
L 581.262438 443.553188 
L 582.615503 443.408717 
L 583.968569 443.741764 
L 585.321634 444.241231 
L 589.380829 443.479726 
L 592.086959 443.33245 
L 597.499219 443.147887 
L 598.852284 443.181869 
L 600.205349 443.449498 
L 601.558414 443.431448 
L 602.911479 443.607934 
L 606.970675 443.235818 
L 608.32374 443.231713 
L 609.676805 443.465123 
L 611.02987 443.477433 
L 612.382935 444.266673 
L 613.736 443.385344 
L 615.089065 443.178474 
L 616.44213 443.909615 
L 617.795195 443.452391 
L 619.14826 444.661595 
L 620.501325 444.761678 
L 621.85439 443.955399 
L 623.207455 443.63933 
L 624.56052 443.167125 
L 627.266651 442.880227 
L 628.619716 442.448322 
L 629.972781 442.829858 
L 631.325846 442.954855 
L 632.678911 444.123383 
L 634.031976 444.49516 
L 635.385041 445.138888 
L 636.738106 444.853768 
L 639.444236 449.91757 
L 640.797301 452.919761 
L 642.150366 451.643056 
L 643.503431 451.726321 
L 644.856496 451.316006 
L 647.562626 456.586106 
L 648.915692 464.910427 
L 650.268757 505.858402 
L 651.621822 553.421184 
L 652.974887 616.665909 
L 654.327952 444.650655 
L 655.681017 446.058351 
L 657.034082 445.197519 
L 658.387147 445.850835 
L 659.740212 445.590698 
L 661.093277 445.674584 
L 662.446342 447.724715 
L 663.799407 450.844659 
L 665.152472 447.150135 
L 666.505537 444.204323 
L 669.211667 440.387508 
L 670.564733 439.764147 
L 671.917798 439.451616 
L 673.270863 437.806547 
L 674.623928 437.07401 
L 675.976993 436.678069 
L 677.330058 436.128426 
L 678.683123 437.807812 
L 680.036188 436.570323 
L 682.742318 439.117246 
L 684.095383 441.090658 
L 685.448448 438.935882 
L 685.448448 438.935882 
" clip-path="url(#p87c0a098c5)" style="fill: none; stroke: #b07aa1; stroke-opacity: 0.95; stroke-width: 1.8; stroke-linecap: square"/>
   </g>
   <g id="line2d_72">
    <path d="M 427.013021 443.259712 
L 443.249802 443.227459 
L 619.14826 443.13188 
L 620.501325 442.985922 
L 621.85439 443.615345 
L 624.56052 444.003033 
L 625.913585 444.337833 
L 627.266651 444.323733 
L 628.619716 444.69254 
L 629.972781 444.395202 
L 631.325846 443.556896 
L 632.678911 443.495262 
L 634.031976 444.197676 
L 635.385041 444.703012 
L 638.091171 445.316116 
L 639.444236 446.898862 
L 640.797301 447.832937 
L 644.856496 450.057257 
L 646.209561 450.491466 
L 647.562626 451.987292 
L 648.915692 455.868386 
L 650.268757 458.114886 
L 651.621822 461.046914 
L 652.974887 465.695166 
L 654.327952 428.01806 
L 657.034082 433.527192 
L 659.740212 440.790227 
L 661.093277 444.941606 
L 662.446342 445.902001 
L 665.152472 446.72792 
L 666.505537 444.022172 
L 667.858602 430.815374 
L 670.564733 422.017868 
L 671.917798 417.859862 
L 673.270863 415.536274 
L 674.623928 411.36021 
L 677.330058 407.140723 
L 678.683123 407.357399 
L 680.036188 409.558296 
L 682.742318 418.283703 
L 684.095383 422.125844 
L 685.448448 426.409289 
L 685.448448 426.409289 
" clip-path="url(#p87c0a098c5)" style="fill: none; stroke: #d4a6c8; stroke-opacity: 0.95; stroke-width: 1.8; stroke-linecap: square"/>
   </g>
   <g id="line2d_73">
    <path d="M 427.013021 443.212917 
L 441.896737 443.226721 
L 619.14826 443.219566 
L 620.501325 443.034877 
L 621.85439 439.950405 
L 623.207455 438.480902 
L 624.56052 439.991294 
L 627.266651 437.61715 
L 628.619716 437.335845 
L 629.972781 437.49128 
L 631.325846 437.77485 
L 632.678911 440.049719 
L 634.031976 438.60003 
L 635.385041 434.583555 
L 636.738106 434.931961 
L 638.091171 434.549014 
L 639.444236 433.994608 
L 640.797301 432.99489 
L 642.150366 432.42564 
L 643.503431 432.694762 
L 644.856496 432.146809 
L 647.562626 429.37637 
L 648.915692 422.773583 
L 650.268757 418.201119 
L 651.621822 410.075676 
L 652.974887 382.784091 
L 654.327952 440.880867 
L 655.681017 442.749595 
L 657.034082 441.267191 
L 658.387147 441.278301 
L 659.740212 443.2029 
L 661.093277 443.012835 
L 662.446342 444.043894 
L 663.799407 442.977006 
L 665.152472 443.393967 
L 666.505537 443.198994 
L 667.858602 437.341808 
L 669.211667 432.165756 
L 673.270863 427.282774 
L 674.623928 426.944474 
L 675.976993 423.394608 
L 677.330058 423.173893 
L 678.683123 424.521229 
L 680.036188 426.503511 
L 681.389253 428.147496 
L 682.742318 430.800122 
L 684.095383 431.296722 
L 685.448448 431.532389 
L 685.448448 431.532389 
" clip-path="url(#p87c0a098c5)" style="fill: none; stroke: #7b6194; stroke-opacity: 0.95; stroke-width: 1.8; stroke-linecap: square"/>
   </g>
   <g id="line2d_74">
    <path d="M 427.013021 443.230033 
L 463.545778 443.222009 
L 555.554202 443.273849 
L 567.731788 443.410423 
L 571.790983 444.001083 
L 573.144048 444.146873 
L 574.497113 444.059477 
L 575.850178 444.281268 
L 578.556308 444.471108 
L 579.909373 444.347759 
L 582.615503 444.33525 
L 583.968569 444.323481 
L 585.321634 444.492135 
L 588.027764 444.622717 
L 589.380829 443.993857 
L 592.086959 443.976694 
L 593.440024 443.728653 
L 594.793089 443.716314 
L 596.146154 443.561339 
L 597.499219 443.569711 
L 600.205349 443.355929 
L 605.61761 443.437425 
L 606.970675 443.576749 
L 608.32374 443.526899 
L 609.676805 443.661461 
L 611.02987 443.625637 
L 612.382935 443.46681 
L 613.736 443.711714 
L 616.44213 443.132398 
L 619.14826 441.637055 
L 620.501325 440.563882 
L 621.85439 438.94786 
L 623.207455 439.645454 
L 624.56052 440.125189 
L 625.913585 440.246023 
L 627.266651 440.197653 
L 628.619716 439.299064 
L 632.678911 441.77314 
L 634.031976 438.966051 
L 635.385041 440.228132 
L 636.738106 440.978975 
L 638.091171 441.919826 
L 639.444236 443.066347 
L 640.797301 443.648563 
L 642.150366 443.447095 
L 644.856496 444.718845 
L 646.209561 445.946543 
L 648.915692 449.376191 
L 650.268757 450.308453 
L 651.621822 445.784194 
L 652.974887 431.588546 
L 654.327952 439.578447 
L 655.681017 435.983769 
L 657.034082 439.643448 
L 658.387147 441.840419 
L 659.740212 441.96045 
L 661.093277 444.65524 
L 662.446342 445.273415 
L 663.799407 445.474807 
L 665.152472 441.709262 
L 666.505537 449.198885 
L 667.858602 456.052238 
L 669.211667 453.068884 
L 671.917798 455.646924 
L 673.270863 459.972018 
L 674.623928 464.713264 
L 675.976993 462.01434 
L 677.330058 461.639904 
L 678.683123 462.660731 
L 680.036188 462.963909 
L 681.389253 461.292424 
L 682.742318 452.906567 
L 684.095383 452.863558 
L 685.448448 453.567464 
L 685.448448 453.567464 
" clip-path="url(#p87c0a098c5)" style="fill: none; stroke: #b07aa1; stroke-opacity: 0.95; stroke-width: 1.8; stroke-linecap: square"/>
   </g>
   <g id="line2d_75">
    <path d="M 414.09125 443.226646 
L 698.37022 443.226646 
" clip-path="url(#p87c0a098c5)" style="fill: none; stroke: #888888; stroke-opacity: 0.6; stroke-linecap: square"/>
   </g>
   <g id="patch_18">
    <path d="M 414.09125 628.36 
L 414.09125 371.09 
" style="fill: none; stroke: #000000; stroke-width: 0.8; stroke-linejoin: miter; stroke-linecap: square"/>
   </g>
   <g id="patch_19">
    <path d="M 698.37022 628.36 
L 698.37022 371.09 
" style="fill: none; stroke: #000000; stroke-width: 0.8; stroke-linejoin: miter; stroke-linecap: square"/>
   </g>
   <g id="patch_20">
    <path d="M 414.09125 628.36 
L 698.37022 628.36 
" style="fill: none; stroke: #000000; stroke-width: 0.8; stroke-linejoin: miter; stroke-linecap: square"/>
   </g>
   <g id="patch_21">
    <path d="M 414.09125 371.09 
L 698.37022 371.09 
" style="fill: none; stroke: #000000; stroke-width: 0.8; stroke-linejoin: miter; stroke-linecap: square"/>
   </g>
   <g id="text_57">
    <!-- Weather (n=4) -->
    <g transform="translate(515.4405 365.09) scale(0.11 -0.11)">
     <use xlink:href="#DejaVuSans-57"/>
     <use xlink:href="#DejaVuSans-65" transform="translate(93.001953 0)"/>
     <use xlink:href="#DejaVuSans-61" transform="translate(154.525391 0)"/>
     <use xlink:href="#DejaVuSans-74" transform="translate(215.804688 0)"/>
     <use xlink:href="#DejaVuSans-68" transform="translate(255.013672 0)"/>
     <use xlink:href="#DejaVuSans-65" transform="translate(318.392578 0)"/>
     <use xlink:href="#DejaVuSans-72" transform="translate(379.916016 0)"/>
     <use xlink:href="#DejaVuSans-20" transform="translate(421.029297 0)"/>
     <use xlink:href="#DejaVuSans-28" transform="translate(452.816406 0)"/>
     <use xlink:href="#DejaVuSans-6e" transform="translate(491.830078 0)"/>
     <use xlink:href="#DejaVuSans-3d" transform="translate(555.208984 0)"/>
     <use xlink:href="#DejaVuSans-34" transform="translate(638.998047 0)"/>
     <use xlink:href="#DejaVuSans-29" transform="translate(702.621094 0)"/>
    </g>
   </g>
   <g id="legend_4">
    <g id="line2d_76">
     <path d="M 421.29125 381.56875 
L 429.29125 381.56875 
L 437.29125 381.56875 
" style="fill: none; stroke: #b07aa1; stroke-opacity: 0.95; stroke-width: 1.8; stroke-linecap: square"/>
    </g>
    <g id="text_58">
     <!-- Clouds All Weighted -->
     <g transform="translate(443.69125 384.36875) scale(0.08 -0.08)">
      <defs>
       <path id="DejaVuSans-43" d="M 4122 4306 
L 4122 3641 
Q 3803 3938 3442 4084 
Q 3081 4231 2675 4231 
Q 1875 4231 1450 3742 
Q 1025 3253 1025 2328 
Q 1025 1406 1450 917 
Q 1875 428 2675 428 
Q 3081 428 3442 575 
Q 3803 722 4122 1019 
L 4122 359 
Q 3791 134 3420 21 
Q 3050 -91 2638 -91 
Q 1578 -91 968 557 
Q 359 1206 359 2328 
Q 359 3453 968 4101 
Q 1578 4750 2638 4750 
Q 3056 4750 3426 4639 
Q 3797 4528 4122 4306 
z
" transform="scale(0.015625)"/>
       <path id="DejaVuSans-67" d="M 2906 1791 
Q 2906 2416 2648 2759 
Q 2391 3103 1925 3103 
Q 1463 3103 1205 2759 
Q 947 2416 947 1791 
Q 947 1169 1205 825 
Q 1463 481 1925 481 
Q 2391 481 2648 825 
Q 2906 1169 2906 1791 
z
M 3481 434 
Q 3481 -459 3084 -895 
Q 2688 -1331 1869 -1331 
Q 1566 -1331 1297 -1286 
Q 1028 -1241 775 -1147 
L 775 -588 
Q 1028 -725 1275 -790 
Q 1522 -856 1778 -856 
Q 2344 -856 2625 -561 
Q 2906 -266 2906 331 
L 2906 616 
Q 2728 306 2450 153 
Q 2172 0 1784 0 
Q 1141 0 747 490 
Q 353 981 353 1791 
Q 353 2603 747 3093 
Q 1141 3584 1784 3584 
Q 2172 3584 2450 3431 
Q 2728 3278 2906 2969 
L 2906 3500 
L 3481 3500 
L 3481 434 
z
" transform="scale(0.015625)"/>
      </defs>
      <use xlink:href="#DejaVuSans-43"/>
      <use xlink:href="#DejaVuSans-6c" transform="translate(69.824219 0)"/>
      <use xlink:href="#DejaVuSans-6f" transform="translate(97.607422 0)"/>
      <use xlink:href="#DejaVuSans-75" transform="translate(158.789062 0)"/>
      <use xlink:href="#DejaVuSans-64" transform="translate(222.167969 0)"/>
      <use xlink:href="#DejaVuSans-73" transform="translate(285.644531 0)"/>
      <use xlink:href="#DejaVuSans-20" transform="translate(337.744141 0)"/>
      <use xlink:href="#DejaVuSans-41" transform="translate(369.53125 0)"/>
      <use xlink:href="#DejaVuSans-6c" transform="translate(437.939453 0)"/>
      <use xlink:href="#DejaVuSans-6c" transform="translate(465.722656 0)"/>
      <use xlink:href="#DejaVuSans-20" transform="translate(493.505859 0)"/>
      <use xlink:href="#DejaVuSans-57" transform="translate(525.292969 0)"/>
      <use xlink:href="#DejaVuSans-65" transform="translate(618.294922 0)"/>
      <use xlink:href="#DejaVuSans-69" transform="translate(679.818359 0)"/>
      <use xlink:href="#DejaVuSans-67" transform="translate(707.601562 0)"/>
      <use xlink:href="#DejaVuSans-68" transform="translate(771.078125 0)"/>
      <use xlink:href="#DejaVuSans-74" transform="translate(834.457031 0)"/>
      <use xlink:href="#DejaVuSans-65" transform="translate(873.666016 0)"/>
      <use xlink:href="#DejaVuSans-64" transform="translate(935.189453 0)"/>
     </g>
    </g>
    <g id="line2d_77">
     <path d="M 421.29125 393.31125 
L 429.29125 393.31125 
L 437.29125 393.31125 
" style="fill: none; stroke: #d4a6c8; stroke-opacity: 0.95; stroke-width: 1.8; stroke-linecap: square"/>
    </g>
    <g id="text_59">
     <!-- Temp Max Weighted -->
     <g transform="translate(443.69125 396.11125) scale(0.08 -0.08)">
      <defs>
       <path id="DejaVuSans-4d" d="M 628 4666 
L 1569 4666 
L 2759 1491 
L 3956 4666 
L 4897 4666 
L 4897 0 
L 4281 0 
L 4281 4097 
L 3078 897 
L 2444 897 
L 1241 4097 
L 1241 0 
L 628 0 
L 628 4666 
z
" transform="scale(0.015625)"/>
       <path id="DejaVuSans-78" d="M 3513 3500 
L 2247 1797 
L 3578 0 
L 2900 0 
L 1881 1375 
L 863 0 
L 184 0 
L 1544 1831 
L 300 3500 
L 978 3500 
L 1906 2253 
L 2834 3500 
L 3513 3500 
z
" transform="scale(0.015625)"/>
      </defs>
      <use xlink:href="#DejaVuSans-54"/>
      <use xlink:href="#DejaVuSans-65" transform="translate(44.083984 0)"/>
      <use xlink:href="#DejaVuSans-6d" transform="translate(105.607422 0)"/>
      <use xlink:href="#DejaVuSans-70" transform="translate(203.019531 0)"/>
      <use xlink:href="#DejaVuSans-20" transform="translate(266.496094 0)"/>
      <use xlink:href="#DejaVuSans-4d" transform="translate(298.283203 0)"/>
      <use xlink:href="#DejaVuSans-61" transform="translate(384.5625 0)"/>
      <use xlink:href="#DejaVuSans-78" transform="translate(445.841797 0)"/>
      <use xlink:href="#DejaVuSans-20" transform="translate(505.021484 0)"/>
      <use xlink:href="#DejaVuSans-57" transform="translate(536.808594 0)"/>
      <use xlink:href="#DejaVuSans-65" transform="translate(629.810547 0)"/>
      <use xlink:href="#DejaVuSans-69" transform="translate(691.333984 0)"/>
      <use xlink:href="#DejaVuSans-67" transform="translate(719.117188 0)"/>
      <use xlink:href="#DejaVuSans-68" transform="translate(782.59375 0)"/>
      <use xlink:href="#DejaVuSans-74" transform="translate(845.972656 0)"/>
      <use xlink:href="#DejaVuSans-65" transform="translate(885.181641 0)"/>
      <use xlink:href="#DejaVuSans-64" transform="translate(946.705078 0)"/>
     </g>
    </g>
    <g id="line2d_78">
     <path d="M 421.29125 405.05375 
L 429.29125 405.05375 
L 437.29125 405.05375 
" style="fill: none; stroke: #7b6194; stroke-opacity: 0.95; stroke-width: 1.8; stroke-linecap: square"/>
    </g>
    <g id="text_60">
     <!-- Temp Min Weighted -->
     <g transform="translate(443.69125 407.85375) scale(0.08 -0.08)">
      <use xlink:href="#DejaVuSans-54"/>
      <use xlink:href="#DejaVuSans-65" transform="translate(44.083984 0)"/>
      <use xlink:href="#DejaVuSans-6d" transform="translate(105.607422 0)"/>
      <use xlink:href="#DejaVuSans-70" transform="translate(203.019531 0)"/>
      <use xlink:href="#DejaVuSans-20" transform="translate(266.496094 0)"/>
      <use xlink:href="#DejaVuSans-4d" transform="translate(298.283203 0)"/>
      <use xlink:href="#DejaVuSans-69" transform="translate(384.5625 0)"/>
      <use xlink:href="#DejaVuSans-6e" transform="translate(412.345703 0)"/>
      <use xlink:href="#DejaVuSans-20" transform="translate(475.724609 0)"/>
      <use xlink:href="#DejaVuSans-57" transform="translate(507.511719 0)"/>
      <use xlink:href="#DejaVuSans-65" transform="translate(600.513672 0)"/>
      <use xlink:href="#DejaVuSans-69" transform="translate(662.037109 0)"/>
      <use xlink:href="#DejaVuSans-67" transform="translate(689.820312 0)"/>
      <use xlink:href="#DejaVuSans-68" transform="translate(753.296875 0)"/>
      <use xlink:href="#DejaVuSans-74" transform="translate(816.675781 0)"/>
      <use xlink:href="#DejaVuSans-65" transform="translate(855.884766 0)"/>
      <use xlink:href="#DejaVuSans-64" transform="translate(917.408203 0)"/>
     </g>
    </g>
    <g id="line2d_79">
     <path d="M 421.29125 416.79625 
L 429.29125 416.79625 
L 437.29125 416.79625 
" style="fill: none; stroke: #b07aa1; stroke-opacity: 0.95; stroke-width: 1.8; stroke-linecap: square"/>
    </g>
    <g id="text_61">
     <!-- Humidity Weighted -->
     <g transform="translate(443.69125 419.59625) scale(0.08 -0.08)">
      <use xlink:href="#DejaVuSans-48"/>
      <use xlink:href="#DejaVuSans-75" transform="translate(75.195312 0)"/>
      <use xlink:href="#DejaVuSans-6d" transform="translate(138.574219 0)"/>
      <use xlink:href="#DejaVuSans-69" transform="translate(235.986328 0)"/>
      <use xlink:href="#DejaVuSans-64" transform="translate(263.769531 0)"/>
      <use xlink:href="#DejaVuSans-69" transform="translate(327.246094 0)"/>
      <use xlink:href="#DejaVuSans-74" transform="translate(355.029297 0)"/>
      <use xlink:href="#DejaVuSans-79" transform="translate(394.238281 0)"/>
      <use xlink:href="#DejaVuSans-20" transform="translate(453.417969 0)"/>
      <use xlink:href="#DejaVuSans-57" transform="translate(485.205078 0)"/>
      <use xlink:href="#DejaVuSans-65" transform="translate(578.207031 0)"/>
      <use xlink:href="#DejaVuSans-69" transform="translate(639.730469 0)"/>
      <use xlink:href="#DejaVuSans-67" transform="translate(667.513672 0)"/>
      <use xlink:href="#DejaVuSans-68" transform="translate(730.990234 0)"/>
      <use xlink:href="#DejaVuSans-74" transform="translate(794.369141 0)"/>
      <use xlink:href="#DejaVuSans-65" transform="translate(833.578125 0)"/>
      <use xlink:href="#DejaVuSans-64" transform="translate(895.101562 0)"/>
     </g>
    </g>
   </g>
  </g>
  <g id="text_62">
   <!-- IG — KNOWN (version=E1) · sample 0 -->
   <g transform="translate(222.896094 17.837812) scale(0.14 -0.14)">
    <defs>
     <path id="DejaVuSans-2014" d="M 313 1978 
L 6088 1978 
L 6088 1528 
L 313 1528 
L 313 1978 
z
" transform="scale(0.015625)"/>
     <path id="DejaVuSans-4b" d="M 628 4666 
L 1259 4666 
L 1259 2694 
L 3353 4666 
L 4166 4666 
L 1850 2491 
L 4331 0 
L 3500 0 
L 1259 2247 
L 1259 0 
L 628 0 
L 628 4666 
z
" transform="scale(0.015625)"/>
     <path id="DejaVuSans-4e" d="M 628 4666 
L 1478 4666 
L 3547 763 
L 3547 4666 
L 4159 4666 
L 4159 0 
L 3309 0 
L 1241 3903 
L 1241 0 
L 628 0 
L 628 4666 
z
" transform="scale(0.015625)"/>
     <path id="DejaVuSans-76" d="M 191 3500 
L 800 3500 
L 1894 563 
L 2988 3500 
L 3597 3500 
L 2284 0 
L 1503 0 
L 191 3500 
z
" transform="scale(0.015625)"/>
     <path id="DejaVuSans-45" d="M 628 4666 
L 3578 4666 
L 3578 4134 
L 1259 4134 
L 1259 2753 
L 3481 2753 
L 3481 2222 
L 1259 2222 
L 1259 531 
L 3634 531 
L 3634 0 
L 628 0 
L 628 4666 
z
" transform="scale(0.015625)"/>
     <path id="DejaVuSans-b7" d="M 684 2619 
L 1344 2619 
L 1344 1825 
L 684 1825 
L 684 2619 
z
" transform="scale(0.015625)"/>
    </defs>
    <use xlink:href="#DejaVuSans-49"/>
    <use xlink:href="#DejaVuSans-47" transform="translate(29.492188 0)"/>
    <use xlink:href="#DejaVuSans-20" transform="translate(106.982422 0)"/>
    <use xlink:href="#DejaVuSans-2014" transform="translate(138.769531 0)"/>
    <use xlink:href="#DejaVuSans-20" transform="translate(238.769531 0)"/>
    <use xlink:href="#DejaVuSans-4b" transform="translate(270.556641 0)"/>
    <use xlink:href="#DejaVuSans-4e" transform="translate(336.132812 0)"/>
    <use xlink:href="#DejaVuSans-4f" transform="translate(410.9375 0)"/>
    <use xlink:href="#DejaVuSans-57" transform="translate(489.648438 0)"/>
    <use xlink:href="#DejaVuSans-4e" transform="translate(588.525391 0)"/>
    <use xlink:href="#DejaVuSans-20" transform="translate(663.330078 0)"/>
    <use xlink:href="#DejaVuSans-28" transform="translate(695.117188 0)"/>
    <use xlink:href="#DejaVuSans-76" transform="translate(734.130859 0)"/>
    <use xlink:href="#DejaVuSans-65" transform="translate(793.310547 0)"/>
    <use xlink:href="#DejaVuSans-72" transform="translate(854.833984 0)"/>
    <use xlink:href="#DejaVuSans-73" transform="translate(895.947266 0)"/>
    <use xlink:href="#DejaVuSans-69" transform="translate(948.046875 0)"/>
    <use xlink:href="#DejaVuSans-6f" transform="translate(975.830078 0)"/>
    <use xlink:href="#DejaVuSans-6e" transform="translate(1037.011719 0)"/>
    <use xlink:href="#DejaVuSans-3d" transform="translate(1100.390625 0)"/>
    <use xlink:href="#DejaVuSans-45" transform="translate(1184.179688 0)"/>
    <use xlink:href="#DejaVuSans-31" transform="translate(1247.363281 0)"/>
    <use xlink:href="#DejaVuSans-29" transform="translate(1310.986328 0)"/>
    <use xlink:href="#DejaVuSans-20" transform="translate(1350 0)"/>
    <use xlink:href="#DejaVuSans-b7" transform="translate(1381.787109 0)"/>
    <use xlink:href="#DejaVuSans-20" transform="translate(1413.574219 0)"/>
    <use xlink:href="#DejaVuSans-73" transform="translate(1445.361328 0)"/>
    <use xlink:href="#DejaVuSans-61" transform="translate(1497.460938 0)"/>
    <use xlink:href="#DejaVuSans-6d" transform="translate(1558.740234 0)"/>
    <use xlink:href="#DejaVuSans-70" transform="translate(1656.152344 0)"/>
    <use xlink:href="#DejaVuSans-6c" transform="translate(1719.628906 0)"/>
    <use xlink:href="#DejaVuSans-65" transform="translate(1747.412109 0)"/>
    <use xlink:href="#DejaVuSans-20" transform="translate(1808.935547 0)"/>
    <use xlink:href="#DejaVuSans-30" transform="translate(1840.722656 0)"/>
   </g>
  </g>
 </g>
 <defs>
  <clipPath id="p9d3f952a8e">
   <rect x="59.49125" y="70.08" width="284.27897" height="257.27"/>
  </clipPath>
  <clipPath id="p92f412193a">
   <rect x="414.09125" y="70.08" width="284.27897" height="257.27"/>
  </clipPath>
  <clipPath id="p083374da40">
   <rect x="59.49125" y="371.09" width="284.27897" height="257.27"/>
  </clipPath>
  <clipPath id="p87c0a098c5">
   <rect x="414.09125" y="371.09" width="284.27897" height="257.27"/>
  </clipPath>
 </defs>
</svg>
