<?xml version="1.0" encoding="utf-8" standalone="no"?>
<!DOCTYPE svg PUBLIC "-//W3C//DTD SVG 1.1//EN"
  "http://www.w3.org/Graphics/SVG/1.1/DTD/svg11.dtd">
<svg xmlns:xlink="http://www.w3.org/1999/xlink" width="712.60125pt" height="664.948437pt" viewBox="0 0 712.60125 664.948437" xmlns="http://www.w3.org/2000/svg" version="1.1">
 <metadata>
  <rdf:RDF xmlns:dc="http://purl.org/dc/elements/1.1/" xmlns:cc="http://creativecommons.org/ns#" xmlns:rdf="http://www.w3.org/1999/02/22-rdf-syntax-ns#">
   <cc:Work>
    <dc:type rdf:resource="http://purl.org/dc/dcmitype/StillImage"/>
    <dc:date>2025-08-31T20:59:57.894246</dc:date>
    <dc:format>image/svg+xml</dc:format>
    <dc:creator>
     <cc:Agent>
      <dc:title>Matplotlib v3.10.0, https://matplotlib.org/</dc:title>
     </cc:Agent>
    </dc:creator>
   </cc:Work>
  </rdf:RDF>
 </metadata>
 <defs>
  <style type="text/css">*{stroke-linejoin: round; stroke-linecap: butt}</style>
 </defs>
 <g id="figure_1">
  <g id="patch_1">
   <path d="M 0 664.948437 
L 712.60125 664.948437 
L 712.60125 0 
L 0 0 
z
" style="fill: #ffffff"/>
  </g>
  <g id="axes_1">
   <g id="patch_2">
    <path d="M 59.49125 327.35 
L 348.59625 327.35 
L 348.59625 70.08 
L 59.49125 70.08 
z
" style="fill: #ffffff"/>
   </g>
   <g id="matplotlib.axis_1">
    <g id="xtick_1">
     <g id="line2d_1">
      <defs>
       <path id="mf0cd24c351" d="M 0 0 
L 0 3.5 
" style="stroke: #000000; stroke-width: 0.8"/>
      </defs>
      <g>
       <use xlink:href="#mf0cd24c351" x="72.632386" y="327.35" style="stroke: #000000; stroke-width: 0.8"/>
      </g>
     </g>
    </g>
    <g id="xtick_2">
     <g id="line2d_2">
      <g>
       <use xlink:href="#mf0cd24c351" x="107.033267" y="327.35" style="stroke: #000000; stroke-width: 0.8"/>
      </g>
     </g>
    </g>
    <g id="xtick_3">
     <g id="line2d_3">
      <g>
       <use xlink:href="#mf0cd24c351" x="141.434147" y="327.35" style="stroke: #000000; stroke-width: 0.8"/>
      </g>
     </g>
    </g>
    <g id="xtick_4">
     <g id="line2d_4">
      <g>
       <use xlink:href="#mf0cd24c351" x="175.835028" y="327.35" style="stroke: #000000; stroke-width: 0.8"/>
      </g>
     </g>
    </g>
    <g id="xtick_5">
     <g id="line2d_5">
      <g>
       <use xlink:href="#mf0cd24c351" x="210.235908" y="327.35" style="stroke: #000000; stroke-width: 0.8"/>
      </g>
     </g>
    </g>
    <g id="xtick_6">
     <g id="line2d_6">
      <g>
       <use xlink:href="#mf0cd24c351" x="244.636789" y="327.35" style="stroke: #000000; stroke-width: 0.8"/>
      </g>
     </g>
    </g>
    <g id="xtick_7">
     <g id="line2d_7">
      <g>
       <use xlink:href="#mf0cd24c351" x="279.03767" y="327.35" style="stroke: #000000; stroke-width: 0.8"/>
      </g>
     </g>
    </g>
    <g id="xtick_8">
     <g id="line2d_8">
      <g>
       <use xlink:href="#mf0cd24c351" x="313.43855" y="327.35" style="stroke: #000000; stroke-width: 0.8"/>
      </g>
     </g>
    </g>
    <g id="xtick_9">
     <g id="line2d_9">
      <g>
       <use xlink:href="#mf0cd24c351" x="347.839431" y="327.35" style="stroke: #000000; stroke-width: 0.8"/>
      </g>
     </g>
    </g>
    <g id="text_1">
     <!-- Time Steps -->
     <g transform="translate(173.45 343.208281) scale(0.11 -0.11)">
      <defs>
       <path id="DejaVuSans-54" d="M -19 4666 
L 3928 4666 
L 3928 4134 
L 2272 4134 
L 2272 0 
L 1638 0 
L 1638 4134 
L -19 4134 
L -19 4666 
z
" transform="scale(0.015625)"/>
       <path id="DejaVuSans-69" d="M 603 3500 
L 1178 3500 
L 1178 0 
L 603 0 
L 603 3500 
z
M 603 4863 
L 1178 4863 
L 1178 4134 
L 603 4134 
L 603 4863 
z
" transform="scale(0.015625)"/>
       <path id="DejaVuSans-6d" d="M 3328 2828 
Q 3544 3216 3844 3400 
Q 4144 3584 4550 3584 
Q 5097 3584 5394 3201 
Q 5691 2819 5691 2113 
L 5691 0 
L 5113 0 
L 5113 2094 
Q 5113 2597 4934 2840 
Q 4756 3084 4391 3084 
Q 3944 3084 3684 2787 
Q 3425 2491 3425 1978 
L 3425 0 
L 2847 0 
L 2847 2094 
Q 2847 2600 2669 2842 
Q 2491 3084 2119 3084 
Q 1678 3084 1418 2786 
Q 1159 2488 1159 1978 
L 1159 0 
L 581 0 
L 581 3500 
L 1159 3500 
L 1159 2956 
Q 1356 3278 1631 3431 
Q 1906 3584 2284 3584 
Q 2666 3584 2933 3390 
Q 3200 3197 3328 2828 
z
" transform="scale(0.015625)"/>
       <path id="DejaVuSans-65" d="M 3597 1894 
L 3597 1613 
L 953 1613 
Q 991 1019 1311 708 
Q 1631 397 2203 397 
Q 2534 397 2845 478 
Q 3156 559 3463 722 
L 3463 178 
Q 3153 47 2828 -22 
Q 2503 -91 2169 -91 
Q 1331 -91 842 396 
Q 353 884 353 1716 
Q 353 2575 817 3079 
Q 1281 3584 2069 3584 
Q 2775 3584 3186 3129 
Q 3597 2675 3597 1894 
z
M 3022 2063 
Q 3016 2534 2758 2815 
Q 2500 3097 2075 3097 
Q 1594 3097 1305 2825 
Q 1016 2553 972 2059 
L 3022 2063 
z
" transform="scale(0.015625)"/>
       <path id="DejaVuSans-20" transform="scale(0.015625)"/>
       <path id="DejaVuSans-53" d="M 3425 4513 
L 3425 3897 
Q 3066 4069 2747 4153 
Q 2428 4238 2131 4238 
Q 1616 4238 1336 4038 
Q 1056 3838 1056 3469 
Q 1056 3159 1242 3001 
Q 1428 2844 1947 2747 
L 2328 2669 
Q 3034 2534 3370 2195 
Q 3706 1856 3706 1288 
Q 3706 609 3251 259 
Q 2797 -91 1919 -91 
Q 1588 -91 1214 -16 
Q 841 59 441 206 
L 441 856 
Q 825 641 1194 531 
Q 1563 422 1919 422 
Q 2459 422 2753 634 
Q 3047 847 3047 1241 
Q 3047 1584 2836 1778 
Q 2625 1972 2144 2069 
L 1759 2144 
Q 1053 2284 737 2584 
Q 422 2884 422 3419 
Q 422 4038 858 4394 
Q 1294 4750 2059 4750 
Q 2388 4750 2728 4690 
Q 3069 4631 3425 4513 
z
" transform="scale(0.015625)"/>
       <path id="DejaVuSans-74" d="M 1172 4494 
L 1172 3500 
L 2356 3500 
L 2356 3053 
L 1172 3053 
L 1172 1153 
Q 1172 725 1289 603 
Q 1406 481 1766 481 
L 2356 481 
L 2356 0 
L 1766 0 
Q 1100 0 847 248 
Q 594 497 594 1153 
L 594 3053 
L 172 3053 
L 172 3500 
L 594 3500 
L 594 4494 
L 1172 4494 
z
" transform="scale(0.015625)"/>
       <path id="DejaVuSans-70" d="M 1159 525 
L 1159 -1331 
L 581 -1331 
L 581 3500 
L 1159 3500 
L 1159 2969 
Q 1341 3281 1617 3432 
Q 1894 3584 2278 3584 
Q 2916 3584 3314 3078 
Q 3713 2572 3713 1747 
Q 3713 922 3314 415 
Q 2916 -91 2278 -91 
Q 1894 -91 1617 61 
Q 1341 213 1159 525 
z
M 3116 1747 
Q 3116 2381 2855 2742 
Q 2594 3103 2138 3103 
Q 1681 3103 1420 2742 
Q 1159 2381 1159 1747 
Q 1159 1113 1420 752 
Q 1681 391 2138 391 
Q 2594 391 2855 752 
Q 3116 1113 3116 1747 
z
" transform="scale(0.015625)"/>
       <path id="DejaVuSans-73" d="M 2834 3397 
L 2834 2853 
Q 2591 2978 2328 3040 
Q 2066 3103 1784 3103 
Q 1356 3103 1142 2972 
Q 928 2841 928 2578 
Q 928 2378 1081 2264 
Q 1234 2150 1697 2047 
L 1894 2003 
Q 2506 1872 2764 1633 
Q 3022 1394 3022 966 
Q 3022 478 2636 193 
Q 2250 -91 1575 -91 
Q 1294 -91 989 -36 
Q 684 19 347 128 
L 347 722 
Q 666 556 975 473 
Q 1284 391 1588 391 
Q 1994 391 2212 530 
Q 2431 669 2431 922 
Q 2431 1156 2273 1281 
Q 2116 1406 1581 1522 
L 1381 1569 
Q 847 1681 609 1914 
Q 372 2147 372 2553 
Q 372 3047 722 3315 
Q 1072 3584 1716 3584 
Q 2034 3584 2315 3537 
Q 2597 3491 2834 3397 
z
" transform="scale(0.015625)"/>
      </defs>
      <use xlink:href="#DejaVuSans-54"/>
      <use xlink:href="#DejaVuSans-69" transform="translate(57.958984 0)"/>
      <use xlink:href="#DejaVuSans-6d" transform="translate(85.742188 0)"/>
      <use xlink:href="#DejaVuSans-65" transform="translate(183.154297 0)"/>
      <use xlink:href="#DejaVuSans-20" transform="translate(244.677734 0)"/>
      <use xlink:href="#DejaVuSans-53" transform="translate(276.464844 0)"/>
      <use xlink:href="#DejaVuSans-74" transform="translate(339.941406 0)"/>
      <use xlink:href="#DejaVuSans-65" transform="translate(379.150391 0)"/>
      <use xlink:href="#DejaVuSans-70" transform="translate(440.673828 0)"/>
      <use xlink:href="#DejaVuSans-73" transform="translate(504.150391 0)"/>
     </g>
    </g>
   </g>
   <g id="matplotlib.axis_2">
    <g id="ytick_1">
     <g id="line2d_10">
      <defs>
       <path id="m1a60c80be7" d="M 0 0 
L -3.5 0 
" style="stroke: #000000; stroke-width: 0.8"/>
      </defs>
      <g>
       <use xlink:href="#m1a60c80be7" x="59.49125" y="293.563648" style="stroke: #000000; stroke-width: 0.8"/>
      </g>
     </g>
     <g id="text_2">
      <!-- −0.03 -->
      <g transform="translate(21.845938 297.362867) scale(0.1 -0.1)">
       <defs>
        <path id="DejaVuSans-2212" d="M 678 2272 
L 4684 2272 
L 4684 1741 
L 678 1741 
L 678 2272 
z
" transform="scale(0.015625)"/>
        <path id="DejaVuSans-30" d="M 2034 4250 
Q 1547 4250 1301 3770 
Q 1056 3291 1056 2328 
Q 1056 1369 1301 889 
Q 1547 409 2034 409 
Q 2525 409 2770 889 
Q 3016 1369 3016 2328 
Q 3016 3291 2770 3770 
Q 2525 4250 2034 4250 
z
M 2034 4750 
Q 2819 4750 3233 4129 
Q 3647 3509 3647 2328 
Q 3647 1150 3233 529 
Q 2819 -91 2034 -91 
Q 1250 -91 836 529 
Q 422 1150 422 2328 
Q 422 3509 836 4129 
Q 1250 4750 2034 4750 
z
" transform="scale(0.015625)"/>
        <path id="DejaVuSans-2e" d="M 684 794 
L 1344 794 
L 1344 0 
L 684 0 
L 684 794 
z
" transform="scale(0.015625)"/>
        <path id="DejaVuSans-33" d="M 2597 2516 
Q 3050 2419 3304 2112 
Q 3559 1806 3559 1356 
Q 3559 666 3084 287 
Q 2609 -91 1734 -91 
Q 1441 -91 1130 -33 
Q 819 25 488 141 
L 488 750 
Q 750 597 1062 519 
Q 1375 441 1716 441 
Q 2309 441 2620 675 
Q 2931 909 2931 1356 
Q 2931 1769 2642 2001 
Q 2353 2234 1838 2234 
L 1294 2234 
L 1294 2753 
L 1863 2753 
Q 2328 2753 2575 2939 
Q 2822 3125 2822 3475 
Q 2822 3834 2567 4026 
Q 2313 4219 1838 4219 
Q 1578 4219 1281 4162 
Q 984 4106 628 3988 
L 628 4550 
Q 988 4650 1302 4700 
Q 1616 4750 1894 4750 
Q 2613 4750 3031 4423 
Q 3450 4097 3450 3541 
Q 3450 3153 3228 2886 
Q 3006 2619 2597 2516 
z
" transform="scale(0.015625)"/>
       </defs>
       <use xlink:href="#DejaVuSans-2212"/>
       <use xlink:href="#DejaVuSans-30" transform="translate(83.789062 0)"/>
       <use xlink:href="#DejaVuSans-2e" transform="translate(147.412109 0)"/>
       <use xlink:href="#DejaVuSans-30" transform="translate(179.199219 0)"/>
       <use xlink:href="#DejaVuSans-33" transform="translate(242.822266 0)"/>
      </g>
     </g>
    </g>
    <g id="ytick_2">
     <g id="line2d_11">
      <g>
       <use xlink:href="#m1a60c80be7" x="59.49125" y="245.443786" style="stroke: #000000; stroke-width: 0.8"/>
      </g>
     </g>
     <g id="text_3">
      <!-- −0.02 -->
      <g transform="translate(21.845938 249.243005) scale(0.1 -0.1)">
       <defs>
        <path id="DejaVuSans-32" d="M 1228 531 
L 3431 531 
L 3431 0 
L 469 0 
L 469 531 
Q 828 903 1448 1529 
Q 2069 2156 2228 2338 
Q 2531 2678 2651 2914 
Q 2772 3150 2772 3378 
Q 2772 3750 2511 3984 
Q 2250 4219 1831 4219 
Q 1534 4219 1204 4116 
Q 875 4013 500 3803 
L 500 4441 
Q 881 4594 1212 4672 
Q 1544 4750 1819 4750 
Q 2544 4750 2975 4387 
Q 3406 4025 3406 3419 
Q 3406 3131 3298 2873 
Q 3191 2616 2906 2266 
Q 2828 2175 2409 1742 
Q 1991 1309 1228 531 
z
" transform="scale(0.015625)"/>
       </defs>
       <use xlink:href="#DejaVuSans-2212"/>
       <use xlink:href="#DejaVuSans-30" transform="translate(83.789062 0)"/>
       <use xlink:href="#DejaVuSans-2e" transform="translate(147.412109 0)"/>
       <use xlink:href="#DejaVuSans-30" transform="translate(179.199219 0)"/>
       <use xlink:href="#DejaVuSans-32" transform="translate(242.822266 0)"/>
      </g>
     </g>
    </g>
    <g id="ytick_3">
     <g id="line2d_12">
      <g>
       <use xlink:href="#m1a60c80be7" x="59.49125" y="197.323924" style="stroke: #000000; stroke-width: 0.8"/>
      </g>
     </g>
     <g id="text_4">
      <!-- −0.01 -->
      <g transform="translate(21.845938 201.123143) scale(0.1 -0.1)">
       <defs>
        <path id="DejaVuSans-31" d="M 794 531 
L 1825 531 
L 1825 4091 
L 703 3866 
L 703 4441 
L 1819 4666 
L 2450 4666 
L 2450 531 
L 3481 531 
L 3481 0 
L 794 0 
L 794 531 
z
" transform="scale(0.015625)"/>
       </defs>
       <use xlink:href="#DejaVuSans-2212"/>
       <use xlink:href="#DejaVuSans-30" transform="translate(83.789062 0)"/>
       <use xlink:href="#DejaVuSans-2e" transform="translate(147.412109 0)"/>
       <use xlink:href="#DejaVuSans-30" transform="translate(179.199219 0)"/>
       <use xlink:href="#DejaVuSans-31" transform="translate(242.822266 0)"/>
      </g>
     </g>
    </g>
    <g id="ytick_4">
     <g id="line2d_13">
      <g>
       <use xlink:href="#m1a60c80be7" x="59.49125" y="149.204063" style="stroke: #000000; stroke-width: 0.8"/>
      </g>
     </g>
     <g id="text_5">
      <!-- 0.00 -->
      <g transform="translate(30.225625 153.003281) scale(0.1 -0.1)">
       <use xlink:href="#DejaVuSans-30"/>
       <use xlink:href="#DejaVuSans-2e" transform="translate(63.623047 0)"/>
       <use xlink:href="#DejaVuSans-30" transform="translate(95.410156 0)"/>
       <use xlink:href="#DejaVuSans-30" transform="translate(159.033203 0)"/>
      </g>
     </g>
    </g>
    <g id="ytick_5">
     <g id="line2d_14">
      <g>
       <use xlink:href="#m1a60c80be7" x="59.49125" y="101.084201" style="stroke: #000000; stroke-width: 0.8"/>
      </g>
     </g>
     <g id="text_6">
      <!-- 0.01 -->
      <g transform="translate(30.225625 104.883419) scale(0.1 -0.1)">
       <use xlink:href="#DejaVuSans-30"/>
       <use xlink:href="#DejaVuSans-2e" transform="translate(63.623047 0)"/>
       <use xlink:href="#DejaVuSans-30" transform="translate(95.410156 0)"/>
       <use xlink:href="#DejaVuSans-31" transform="translate(159.033203 0)"/>
      </g>
     </g>
    </g>
    <g id="text_7">
     <!-- Attribution (IG) -->
     <g transform="translate(15.558281 239.918594) rotate(-90) scale(0.11 -0.11)">
      <defs>
       <path id="DejaVuSans-41" d="M 2188 4044 
L 1331 1722 
L 3047 1722 
L 2188 4044 
z
M 1831 4666 
L 2547 4666 
L 4325 0 
L 3669 0 
L 3244 1197 
L 1141 1197 
L 716 0 
L 50 0 
L 1831 4666 
z
" transform="scale(0.015625)"/>
       <path id="DejaVuSans-72" d="M 2631 2963 
Q 2534 3019 2420 3045 
Q 2306 3072 2169 3072 
Q 1681 3072 1420 2755 
Q 1159 2438 1159 1844 
L 1159 0 
L 581 0 
L 581 3500 
L 1159 3500 
L 1159 2956 
Q 1341 3275 1631 3429 
Q 1922 3584 2338 3584 
Q 2397 3584 2469 3576 
Q 2541 3569 2628 3553 
L 2631 2963 
z
" transform="scale(0.015625)"/>
       <path id="DejaVuSans-62" d="M 3116 1747 
Q 3116 2381 2855 2742 
Q 2594 3103 2138 3103 
Q 1681 3103 1420 2742 
Q 1159 2381 1159 1747 
Q 1159 1113 1420 752 
Q 1681 391 2138 391 
Q 2594 391 2855 752 
Q 3116 1113 3116 1747 
z
M 1159 2969 
Q 1341 3281 1617 3432 
Q 1894 3584 2278 3584 
Q 2916 3584 3314 3078 
Q 3713 2572 3713 1747 
Q 3713 922 3314 415 
Q 2916 -91 2278 -91 
Q 1894 -91 1617 61 
Q 1341 213 1159 525 
L 1159 0 
L 581 0 
L 581 4863 
L 1159 4863 
L 1159 2969 
z
" transform="scale(0.015625)"/>
       <path id="DejaVuSans-75" d="M 544 1381 
L 544 3500 
L 1119 3500 
L 1119 1403 
Q 1119 906 1312 657 
Q 1506 409 1894 409 
Q 2359 409 2629 706 
Q 2900 1003 2900 1516 
L 2900 3500 
L 3475 3500 
L 3475 0 
L 2900 0 
L 2900 538 
Q 2691 219 2414 64 
Q 2138 -91 1772 -91 
Q 1169 -91 856 284 
Q 544 659 544 1381 
z
M 1991 3584 
L 1991 3584 
z
" transform="scale(0.015625)"/>
       <path id="DejaVuSans-6f" d="M 1959 3097 
Q 1497 3097 1228 2736 
Q 959 2375 959 1747 
Q 959 1119 1226 758 
Q 1494 397 1959 397 
Q 2419 397 2687 759 
Q 2956 1122 2956 1747 
Q 2956 2369 2687 2733 
Q 2419 3097 1959 3097 
z
M 1959 3584 
Q 2709 3584 3137 3096 
Q 3566 2609 3566 1747 
Q 3566 888 3137 398 
Q 2709 -91 1959 -91 
Q 1206 -91 779 398 
Q 353 888 353 1747 
Q 353 2609 779 3096 
Q 1206 3584 1959 3584 
z
" transform="scale(0.015625)"/>
       <path id="DejaVuSans-6e" d="M 3513 2113 
L 3513 0 
L 2938 0 
L 2938 2094 
Q 2938 2591 2744 2837 
Q 2550 3084 2163 3084 
Q 1697 3084 1428 2787 
Q 1159 2491 1159 1978 
L 1159 0 
L 581 0 
L 581 3500 
L 1159 3500 
L 1159 2956 
Q 1366 3272 1645 3428 
Q 1925 3584 2291 3584 
Q 2894 3584 3203 3211 
Q 3513 2838 3513 2113 
z
" transform="scale(0.015625)"/>
       <path id="DejaVuSans-28" d="M 1984 4856 
Q 1566 4138 1362 3434 
Q 1159 2731 1159 2009 
Q 1159 1288 1364 580 
Q 1569 -128 1984 -844 
L 1484 -844 
Q 1016 -109 783 600 
Q 550 1309 550 2009 
Q 550 2706 781 3412 
Q 1013 4119 1484 4856 
L 1984 4856 
z
" transform="scale(0.015625)"/>
       <path id="DejaVuSans-49" d="M 628 4666 
L 1259 4666 
L 1259 0 
L 628 0 
L 628 4666 
z
" transform="scale(0.015625)"/>
       <path id="DejaVuSans-47" d="M 3809 666 
L 3809 1919 
L 2778 1919 
L 2778 2438 
L 4434 2438 
L 4434 434 
Q 4069 175 3628 42 
Q 3188 -91 2688 -91 
Q 1594 -91 976 548 
Q 359 1188 359 2328 
Q 359 3472 976 4111 
Q 1594 4750 2688 4750 
Q 3144 4750 3555 4637 
Q 3966 4525 4313 4306 
L 4313 3634 
Q 3963 3931 3569 4081 
Q 3175 4231 2741 4231 
Q 1884 4231 1454 3753 
Q 1025 3275 1025 2328 
Q 1025 1384 1454 906 
Q 1884 428 2741 428 
Q 3075 428 3337 486 
Q 3600 544 3809 666 
z
" transform="scale(0.015625)"/>
       <path id="DejaVuSans-29" d="M 513 4856 
L 1013 4856 
Q 1481 4119 1714 3412 
Q 1947 2706 1947 2009 
Q 1947 1309 1714 600 
Q 1481 -109 1013 -844 
L 513 -844 
Q 928 -128 1133 580 
Q 1338 1288 1338 2009 
Q 1338 2731 1133 3434 
Q 928 4138 513 4856 
z
" transform="scale(0.015625)"/>
      </defs>
      <use xlink:href="#DejaVuSans-41"/>
      <use xlink:href="#DejaVuSans-74" transform="translate(66.658203 0)"/>
      <use xlink:href="#DejaVuSans-74" transform="translate(105.867188 0)"/>
      <use xlink:href="#DejaVuSans-72" transform="translate(145.076172 0)"/>
      <use xlink:href="#DejaVuSans-69" transform="translate(186.189453 0)"/>
      <use xlink:href="#DejaVuSans-62" transform="translate(213.972656 0)"/>
      <use xlink:href="#DejaVuSans-75" transform="translate(277.449219 0)"/>
      <use xlink:href="#DejaVuSans-74" transform="translate(340.828125 0)"/>
      <use xlink:href="#DejaVuSans-69" transform="translate(380.037109 0)"/>
      <use xlink:href="#DejaVuSans-6f" transform="translate(407.820312 0)"/>
      <use xlink:href="#DejaVuSans-6e" transform="translate(469.001953 0)"/>
      <use xlink:href="#DejaVuSans-20" transform="translate(532.380859 0)"/>
      <use xlink:href="#DejaVuSans-28" transform="translate(564.167969 0)"/>
      <use xlink:href="#DejaVuSans-49" transform="translate(603.181641 0)"/>
      <use xlink:href="#DejaVuSans-47" transform="translate(632.673828 0)"/>
      <use xlink:href="#DejaVuSans-29" transform="translate(710.164062 0)"/>
     </g>
    </g>
   </g>
   <g id="line2d_15">
    <path d="M 72.632386 149.224953 
L 87.768774 149.207101 
L 196.475556 149.041079 
L 199.227627 149.005066 
L 201.979697 149.014959 
L 203.355732 148.991874 
L 204.731768 149.176574 
L 212.987979 149.041856 
L 219.868155 149.185233 
L 222.620225 149.203707 
L 223.996261 149.292417 
L 226.748331 149.047705 
L 230.876437 149.127402 
L 232.252472 149.420064 
L 233.628507 149.172758 
L 235.004542 149.971885 
L 236.380578 149.968781 
L 237.756613 148.965943 
L 239.132648 148.695337 
L 241.884719 148.985455 
L 243.260754 148.562851 
L 244.636789 149.689808 
L 246.012824 149.822777 
L 247.388859 151.22078 
L 248.764895 152.976228 
L 250.14093 155.420831 
L 252.893 154.934935 
L 254.269036 154.675328 
L 255.645071 154.557866 
L 257.021106 155.026189 
L 258.397141 153.77731 
L 259.773176 153.423787 
L 261.149212 154.137378 
L 262.525247 155.884245 
L 263.901282 158.096201 
L 265.277317 158.443137 
L 266.653353 157.771732 
L 268.029388 158.868417 
L 269.405423 159.044926 
L 270.781458 127.682917 
L 272.157493 124.226106 
L 273.533529 124.554679 
L 274.909564 133.769665 
L 276.285599 131.164788 
L 279.03767 124.167553 
L 280.413705 123.0706 
L 281.78974 115.655742 
L 283.165775 126.513328 
L 284.54181 119.59584 
L 285.917846 122.265743 
L 287.293881 117.396439 
L 288.669916 119.446072 
L 290.045951 116.05057 
L 291.421987 117.75362 
L 292.798022 113.326481 
L 294.174057 107.195975 
L 295.550092 98.467187 
L 296.926127 91.635764 
L 298.302163 88.014309 
L 299.678198 81.774091 
L 301.054233 126.240234 
L 302.430268 128.051757 
L 303.806304 149.204063 
L 335.455114 149.204063 
L 335.455114 149.204063 
" clip-path="url(#p012c5579fb)" style="fill: none; stroke: #e15759; stroke-opacity: 0.95; stroke-width: 1.8; stroke-linecap: square"/>
   </g>
   <g id="line2d_16">
    <path d="M 72.632386 149.180833 
L 134.553971 149.21245 
L 138.682077 149.192446 
L 203.355732 149.013444 
L 204.731768 148.665491 
L 208.859873 148.720748 
L 211.611944 148.678312 
L 215.740049 148.544211 
L 218.49212 148.426981 
L 226.748331 148.084663 
L 228.124366 148.190238 
L 229.500402 147.694658 
L 230.876437 147.883092 
L 232.252472 147.159907 
L 233.628507 146.925455 
L 235.004542 147.12876 
L 236.380578 147.08091 
L 237.756613 145.903261 
L 239.132648 145.425122 
L 240.508683 145.966375 
L 244.636789 143.597844 
L 246.012824 143.27865 
L 247.388859 143.498509 
L 248.764895 141.947021 
L 250.14093 138.2562 
L 251.516965 139.721009 
L 252.893 140.244642 
L 254.269036 141.32672 
L 255.645071 141.464101 
L 257.021106 142.887734 
L 259.773176 142.153325 
L 261.149212 145.619466 
L 262.525247 143.042112 
L 263.901282 145.994738 
L 265.277317 144.333419 
L 266.653353 146.853472 
L 268.029388 145.84071 
L 269.405423 146.774495 
L 270.781458 146.5753 
L 272.157493 144.589354 
L 273.533529 146.807953 
L 274.909564 148.527116 
L 276.285599 146.893298 
L 277.661634 149.627286 
L 279.03767 150.345748 
L 280.413705 146.106295 
L 281.78974 146.513558 
L 284.54181 148.788859 
L 285.917846 149.145005 
L 287.293881 149.292823 
L 288.669916 151.905497 
L 290.045951 152.454227 
L 291.421987 154.252632 
L 292.798022 155.006098 
L 294.174057 156.193922 
L 295.550092 158.021478 
L 296.926127 158.849168 
L 298.302163 165.617704 
L 299.678198 166.191513 
L 301.054233 179.649716 
L 302.430268 220.971084 
L 303.806304 149.204063 
L 335.455114 149.204063 
L 335.455114 149.204063 
" clip-path="url(#p012c5579fb)" style="fill: none; stroke: #ff9da7; stroke-opacity: 0.95; stroke-width: 1.8; stroke-linecap: square"/>
   </g>
   <g id="line2d_17">
    <path d="M 72.632386 149.205259 
L 104.281196 149.24779 
L 107.033267 149.019119 
L 109.785337 149.114146 
L 115.289478 149.047054 
L 116.665513 149.209159 
L 122.169654 149.292305 
L 127.673795 149.321236 
L 134.553971 149.265813 
L 135.930007 149.127411 
L 140.058112 149.306242 
L 156.570535 149.172731 
L 171.706922 149.210822 
L 181.339169 149.169317 
L 196.475556 149.102223 
L 199.227627 149.199631 
L 203.355732 149.255997 
L 204.731768 149.030806 
L 218.49212 148.958266 
L 221.24419 149.067951 
L 228.124366 148.705052 
L 229.500402 148.501404 
L 232.252472 148.432036 
L 237.756613 149.072494 
L 241.884719 148.944605 
L 243.260754 148.97131 
L 244.636789 148.757529 
L 246.012824 148.885998 
L 248.764895 148.859449 
L 250.14093 148.833658 
L 251.516965 149.038902 
L 257.021106 149.023026 
L 259.773176 148.793943 
L 261.149212 147.557834 
L 262.525247 148.572741 
L 263.901282 149.335336 
L 265.277317 149.178383 
L 266.653353 149.345942 
L 268.029388 148.766659 
L 269.405423 148.527706 
L 270.781458 145.482912 
L 272.157493 146.461324 
L 273.533529 142.517209 
L 274.909564 145.258554 
L 276.285599 151.309554 
L 277.661634 153.657348 
L 279.03767 147.585386 
L 280.413705 140.179108 
L 281.78974 127.677354 
L 283.165775 145.458485 
L 284.54181 147.039947 
L 285.917846 149.068053 
L 287.293881 148.48272 
L 288.669916 148.109601 
L 290.045951 147.944553 
L 291.421987 144.242887 
L 292.798022 143.014405 
L 294.174057 144.069633 
L 295.550092 144.610863 
L 296.926127 144.860183 
L 298.302163 156.458805 
L 299.678198 172.160414 
L 301.054233 199.031805 
L 302.430268 315.655909 
L 303.806304 149.204063 
L 335.455114 149.204063 
L 335.455114 149.204063 
" clip-path="url(#p012c5579fb)" style="fill: none; stroke: #b63c43; stroke-opacity: 0.95; stroke-width: 1.8; stroke-linecap: square"/>
   </g>
   <g id="line2d_18">
    <path d="M 59.49125 149.204063 
L 348.59625 149.204063 
" clip-path="url(#p012c5579fb)" style="fill: none; stroke: #888888; stroke-opacity: 0.6; stroke-linecap: square"/>
   </g>
   <g id="patch_3">
    <path d="M 59.49125 327.35 
L 59.49125 70.08 
" style="fill: none; stroke: #000000; stroke-width: 0.8; stroke-linejoin: miter; stroke-linecap: square"/>
   </g>
   <g id="patch_4">
    <path d="M 348.59625 327.35 
L 348.59625 70.08 
" style="fill: none; stroke: #000000; stroke-width: 0.8; stroke-linejoin: miter; stroke-linecap: square"/>
   </g>
   <g id="patch_5">
    <path d="M 59.49125 327.35 
L 348.59625 327.35 
" style="fill: none; stroke: #000000; stroke-width: 0.8; stroke-linejoin: miter; stroke-linecap: square"/>
   </g>
   <g id="patch_6">
    <path d="M 59.49125 70.08 
L 348.59625 70.08 
" style="fill: none; stroke: #000000; stroke-width: 0.8; stroke-linejoin: miter; stroke-linecap: square"/>
   </g>
   <g id="text_8">
    <!-- Fossil (n=3) -->
    <g transform="translate(171.294688 64.08) scale(0.11 -0.11)">
     <defs>
      <path id="DejaVuSans-46" d="M 628 4666 
L 3309 4666 
L 3309 4134 
L 1259 4134 
L 1259 2759 
L 3109 2759 
L 3109 2228 
L 1259 2228 
L 1259 0 
L 628 0 
L 628 4666 
z
" transform="scale(0.015625)"/>
      <path id="DejaVuSans-6c" d="M 603 4863 
L 1178 4863 
L 1178 0 
L 603 0 
L 603 4863 
z
" transform="scale(0.015625)"/>
      <path id="DejaVuSans-3d" d="M 678 2906 
L 4684 2906 
L 4684 2381 
L 678 2381 
L 678 2906 
z
M 678 1631 
L 4684 1631 
L 4684 1100 
L 678 1100 
L 678 1631 
z
" transform="scale(0.015625)"/>
     </defs>
     <use xlink:href="#DejaVuSans-46"/>
     <use xlink:href="#DejaVuSans-6f" transform="translate(53.894531 0)"/>
     <use xlink:href="#DejaVuSans-73" transform="translate(115.076172 0)"/>
     <use xlink:href="#DejaVuSans-73" transform="translate(167.175781 0)"/>
     <use xlink:href="#DejaVuSans-69" transform="translate(219.275391 0)"/>
     <use xlink:href="#DejaVuSans-6c" transform="translate(247.058594 0)"/>
     <use xlink:href="#DejaVuSans-20" transform="translate(274.841797 0)"/>
     <use xlink:href="#DejaVuSans-28" transform="translate(306.628906 0)"/>
     <use xlink:href="#DejaVuSans-6e" transform="translate(345.642578 0)"/>
     <use xlink:href="#DejaVuSans-3d" transform="translate(409.021484 0)"/>
     <use xlink:href="#DejaVuSans-33" transform="translate(492.810547 0)"/>
     <use xlink:href="#DejaVuSans-29" transform="translate(556.433594 0)"/>
    </g>
   </g>
   <g id="legend_1">
    <g id="line2d_19">
     <path d="M 66.69125 80.55875 
L 74.69125 80.55875 
L 82.69125 80.55875 
" style="fill: none; stroke: #e15759; stroke-opacity: 0.95; stroke-width: 1.8; stroke-linecap: square"/>
    </g>
    <g id="text_9">
     <!-- Generation Fossil Oil -->
     <g transform="translate(89.09125 83.35875) scale(0.08 -0.08)">
      <defs>
       <path id="DejaVuSans-61" d="M 2194 1759 
Q 1497 1759 1228 1600 
Q 959 1441 959 1056 
Q 959 750 1161 570 
Q 1363 391 1709 391 
Q 2188 391 2477 730 
Q 2766 1069 2766 1631 
L 2766 1759 
L 2194 1759 
z
M 3341 1997 
L 3341 0 
L 2766 0 
L 2766 531 
Q 2569 213 2275 61 
Q 1981 -91 1556 -91 
Q 1019 -91 701 211 
Q 384 513 384 1019 
Q 384 1609 779 1909 
Q 1175 2209 1959 2209 
L 2766 2209 
L 2766 2266 
Q 2766 2663 2505 2880 
Q 2244 3097 1772 3097 
Q 1472 3097 1187 3025 
Q 903 2953 641 2809 
L 641 3341 
Q 956 3463 1253 3523 
Q 1550 3584 1831 3584 
Q 2591 3584 2966 3190 
Q 3341 2797 3341 1997 
z
" transform="scale(0.015625)"/>
       <path id="DejaVuSans-4f" d="M 2522 4238 
Q 1834 4238 1429 3725 
Q 1025 3213 1025 2328 
Q 1025 1447 1429 934 
Q 1834 422 2522 422 
Q 3209 422 3611 934 
Q 4013 1447 4013 2328 
Q 4013 3213 3611 3725 
Q 3209 4238 2522 4238 
z
M 2522 4750 
Q 3503 4750 4090 4092 
Q 4678 3434 4678 2328 
Q 4678 1225 4090 567 
Q 3503 -91 2522 -91 
Q 1538 -91 948 565 
Q 359 1222 359 2328 
Q 359 3434 948 4092 
Q 1538 4750 2522 4750 
z
" transform="scale(0.015625)"/>
      </defs>
      <use xlink:href="#DejaVuSans-47"/>
      <use xlink:href="#DejaVuSans-65" transform="translate(77.490234 0)"/>
      <use xlink:href="#DejaVuSans-6e" transform="translate(139.013672 0)"/>
      <use xlink:href="#DejaVuSans-65" transform="translate(202.392578 0)"/>
      <use xlink:href="#DejaVuSans-72" transform="translate(263.916016 0)"/>
      <use xlink:href="#DejaVuSans-61" transform="translate(305.029297 0)"/>
      <use xlink:href="#DejaVuSans-74" transform="translate(366.308594 0)"/>
      <use xlink:href="#DejaVuSans-69" transform="translate(405.517578 0)"/>
      <use xlink:href="#DejaVuSans-6f" transform="translate(433.300781 0)"/>
      <use xlink:href="#DejaVuSans-6e" transform="translate(494.482422 0)"/>
      <use xlink:href="#DejaVuSans-20" transform="translate(557.861328 0)"/>
      <use xlink:href="#DejaVuSans-46" transform="translate(589.648438 0)"/>
      <use xlink:href="#DejaVuSans-6f" transform="translate(643.542969 0)"/>
      <use xlink:href="#DejaVuSans-73" transform="translate(704.724609 0)"/>
      <use xlink:href="#DejaVuSans-73" transform="translate(756.824219 0)"/>
      <use xlink:href="#DejaVuSans-69" transform="translate(808.923828 0)"/>
      <use xlink:href="#DejaVuSans-6c" transform="translate(836.707031 0)"/>
      <use xlink:href="#DejaVuSans-20" transform="translate(864.490234 0)"/>
      <use xlink:href="#DejaVuSans-4f" transform="translate(896.277344 0)"/>
      <use xlink:href="#DejaVuSans-69" transform="translate(974.988281 0)"/>
      <use xlink:href="#DejaVuSans-6c" transform="translate(1002.771484 0)"/>
     </g>
    </g>
    <g id="line2d_20">
     <path d="M 66.69125 92.30125 
L 74.69125 92.30125 
L 82.69125 92.30125 
" style="fill: none; stroke: #ff9da7; stroke-opacity: 0.95; stroke-width: 1.8; stroke-linecap: square"/>
    </g>
    <g id="text_10">
     <!-- Generation Nuclear -->
     <g transform="translate(89.09125 95.10125) scale(0.08 -0.08)">
      <defs>
       <path id="DejaVuSans-4e" d="M 628 4666 
L 1478 4666 
L 3547 763 
L 3547 4666 
L 4159 4666 
L 4159 0 
L 3309 0 
L 1241 3903 
L 1241 0 
L 628 0 
L 628 4666 
z
" transform="scale(0.015625)"/>
       <path id="DejaVuSans-63" d="M 3122 3366 
L 3122 2828 
Q 2878 2963 2633 3030 
Q 2388 3097 2138 3097 
Q 1578 3097 1268 2742 
Q 959 2388 959 1747 
Q 959 1106 1268 751 
Q 1578 397 2138 397 
Q 2388 397 2633 464 
Q 2878 531 3122 666 
L 3122 134 
Q 2881 22 2623 -34 
Q 2366 -91 2075 -91 
Q 1284 -91 818 406 
Q 353 903 353 1747 
Q 353 2603 823 3093 
Q 1294 3584 2113 3584 
Q 2378 3584 2631 3529 
Q 2884 3475 3122 3366 
z
" transform="scale(0.015625)"/>
      </defs>
      <use xlink:href="#DejaVuSans-47"/>
      <use xlink:href="#DejaVuSans-65" transform="translate(77.490234 0)"/>
      <use xlink:href="#DejaVuSans-6e" transform="translate(139.013672 0)"/>
      <use xlink:href="#DejaVuSans-65" transform="translate(202.392578 0)"/>
      <use xlink:href="#DejaVuSans-72" transform="translate(263.916016 0)"/>
      <use xlink:href="#DejaVuSans-61" transform="translate(305.029297 0)"/>
      <use xlink:href="#DejaVuSans-74" transform="translate(366.308594 0)"/>
      <use xlink:href="#DejaVuSans-69" transform="translate(405.517578 0)"/>
      <use xlink:href="#DejaVuSans-6f" transform="translate(433.300781 0)"/>
      <use xlink:href="#DejaVuSans-6e" transform="translate(494.482422 0)"/>
      <use xlink:href="#DejaVuSans-20" transform="translate(557.861328 0)"/>
      <use xlink:href="#DejaVuSans-4e" transform="translate(589.648438 0)"/>
      <use xlink:href="#DejaVuSans-75" transform="translate(664.453125 0)"/>
      <use xlink:href="#DejaVuSans-63" transform="translate(727.832031 0)"/>
      <use xlink:href="#DejaVuSans-6c" transform="translate(782.8125 0)"/>
      <use xlink:href="#DejaVuSans-65" transform="translate(810.595703 0)"/>
      <use xlink:href="#DejaVuSans-61" transform="translate(872.119141 0)"/>
      <use xlink:href="#DejaVuSans-72" transform="translate(933.398438 0)"/>
     </g>
    </g>
    <g id="line2d_21">
     <path d="M 66.69125 104.04375 
L 74.69125 104.04375 
L 82.69125 104.04375 
" style="fill: none; stroke: #b63c43; stroke-opacity: 0.95; stroke-width: 1.8; stroke-linecap: square"/>
    </g>
    <g id="text_11">
     <!-- Generation Fossil Hard Coal -->
     <g transform="translate(89.09125 106.84375) scale(0.08 -0.08)">
      <defs>
       <path id="DejaVuSans-48" d="M 628 4666 
L 1259 4666 
L 1259 2753 
L 3553 2753 
L 3553 4666 
L 4184 4666 
L 4184 0 
L 3553 0 
L 3553 2222 
L 1259 2222 
L 1259 0 
L 628 0 
L 628 4666 
z
" transform="scale(0.015625)"/>
       <path id="DejaVuSans-64" d="M 2906 2969 
L 2906 4863 
L 3481 4863 
L 3481 0 
L 2906 0 
L 2906 525 
Q 2725 213 2448 61 
Q 2172 -91 1784 -91 
Q 1150 -91 751 415 
Q 353 922 353 1747 
Q 353 2572 751 3078 
Q 1150 3584 1784 3584 
Q 2172 3584 2448 3432 
Q 2725 3281 2906 2969 
z
M 947 1747 
Q 947 1113 1208 752 
Q 1469 391 1925 391 
Q 2381 391 2643 752 
Q 2906 1113 2906 1747 
Q 2906 2381 2643 2742 
Q 2381 3103 1925 3103 
Q 1469 3103 1208 2742 
Q 947 2381 947 1747 
z
" transform="scale(0.015625)"/>
       <path id="DejaVuSans-43" d="M 4122 4306 
L 4122 3641 
Q 3803 3938 3442 4084 
Q 3081 4231 2675 4231 
Q 1875 4231 1450 3742 
Q 1025 3253 1025 2328 
Q 1025 1406 1450 917 
Q 1875 428 2675 428 
Q 3081 428 3442 575 
Q 3803 722 4122 1019 
L 4122 359 
Q 3791 134 3420 21 
Q 3050 -91 2638 -91 
Q 1578 -91 968 557 
Q 359 1206 359 2328 
Q 359 3453 968 4101 
Q 1578 4750 2638 4750 
Q 3056 4750 3426 4639 
Q 3797 4528 4122 4306 
z
" transform="scale(0.015625)"/>
      </defs>
      <use xlink:href="#DejaVuSans-47"/>
      <use xlink:href="#DejaVuSans-65" transform="translate(77.490234 0)"/>
      <use xlink:href="#DejaVuSans-6e" transform="translate(139.013672 0)"/>
      <use xlink:href="#DejaVuSans-65" transform="translate(202.392578 0)"/>
      <use xlink:href="#DejaVuSans-72" transform="translate(263.916016 0)"/>
      <use xlink:href="#DejaVuSans-61" transform="translate(305.029297 0)"/>
      <use xlink:href="#DejaVuSans-74" transform="translate(366.308594 0)"/>
      <use xlink:href="#DejaVuSans-69" transform="translate(405.517578 0)"/>
      <use xlink:href="#DejaVuSans-6f" transform="translate(433.300781 0)"/>
      <use xlink:href="#DejaVuSans-6e" transform="translate(494.482422 0)"/>
      <use xlink:href="#DejaVuSans-20" transform="translate(557.861328 0)"/>
      <use xlink:href="#DejaVuSans-46" transform="translate(589.648438 0)"/>
      <use xlink:href="#DejaVuSans-6f" transform="translate(643.542969 0)"/>
      <use xlink:href="#DejaVuSans-73" transform="translate(704.724609 0)"/>
      <use xlink:href="#DejaVuSans-73" transform="translate(756.824219 0)"/>
      <use xlink:href="#DejaVuSans-69" transform="translate(808.923828 0)"/>
      <use xlink:href="#DejaVuSans-6c" transform="translate(836.707031 0)"/>
      <use xlink:href="#DejaVuSans-20" transform="translate(864.490234 0)"/>
      <use xlink:href="#DejaVuSans-48" transform="translate(896.277344 0)"/>
      <use xlink:href="#DejaVuSans-61" transform="translate(971.472656 0)"/>
      <use xlink:href="#DejaVuSans-72" transform="translate(1032.751953 0)"/>
      <use xlink:href="#DejaVuSans-64" transform="translate(1072.115234 0)"/>
      <use xlink:href="#DejaVuSans-20" transform="translate(1135.591797 0)"/>
      <use xlink:href="#DejaVuSans-43" transform="translate(1167.378906 0)"/>
      <use xlink:href="#DejaVuSans-6f" transform="translate(1237.203125 0)"/>
      <use xlink:href="#DejaVuSans-61" transform="translate(1298.384766 0)"/>
      <use xlink:href="#DejaVuSans-6c" transform="translate(1359.664062 0)"/>
     </g>
    </g>
   </g>
  </g>
  <g id="axes_2">
   <g id="patch_7">
    <path d="M 416.29625 327.35 
L 705.40125 327.35 
L 705.40125 70.08 
L 416.29625 70.08 
z
" style="fill: #ffffff"/>
   </g>
   <g id="matplotlib.axis_3">
    <g id="xtick_10">
     <g id="line2d_22">
      <g>
       <use xlink:href="#mf0cd24c351" x="429.437386" y="327.35" style="stroke: #000000; stroke-width: 0.8"/>
      </g>
     </g>
    </g>
    <g id="xtick_11">
     <g id="line2d_23">
      <g>
       <use xlink:href="#mf0cd24c351" x="463.838267" y="327.35" style="stroke: #000000; stroke-width: 0.8"/>
      </g>
     </g>
    </g>
    <g id="xtick_12">
     <g id="line2d_24">
      <g>
       <use xlink:href="#mf0cd24c351" x="498.239147" y="327.35" style="stroke: #000000; stroke-width: 0.8"/>
      </g>
     </g>
    </g>
    <g id="xtick_13">
     <g id="line2d_25">
      <g>
       <use xlink:href="#mf0cd24c351" x="532.640028" y="327.35" style="stroke: #000000; stroke-width: 0.8"/>
      </g>
     </g>
    </g>
    <g id="xtick_14">
     <g id="line2d_26">
      <g>
       <use xlink:href="#mf0cd24c351" x="567.040908" y="327.35" style="stroke: #000000; stroke-width: 0.8"/>
      </g>
     </g>
    </g>
    <g id="xtick_15">
     <g id="line2d_27">
      <g>
       <use xlink:href="#mf0cd24c351" x="601.441789" y="327.35" style="stroke: #000000; stroke-width: 0.8"/>
      </g>
     </g>
    </g>
    <g id="xtick_16">
     <g id="line2d_28">
      <g>
       <use xlink:href="#mf0cd24c351" x="635.84267" y="327.35" style="stroke: #000000; stroke-width: 0.8"/>
      </g>
     </g>
    </g>
    <g id="xtick_17">
     <g id="line2d_29">
      <g>
       <use xlink:href="#mf0cd24c351" x="670.24355" y="327.35" style="stroke: #000000; stroke-width: 0.8"/>
      </g>
     </g>
    </g>
    <g id="xtick_18">
     <g id="line2d_30">
      <g>
       <use xlink:href="#mf0cd24c351" x="704.644431" y="327.35" style="stroke: #000000; stroke-width: 0.8"/>
      </g>
     </g>
    </g>
    <g id="text_12">
     <!-- Time Steps -->
     <g transform="translate(530.255 343.208281) scale(0.11 -0.11)">
      <use xlink:href="#DejaVuSans-54"/>
      <use xlink:href="#DejaVuSans-69" transform="translate(57.958984 0)"/>
      <use xlink:href="#DejaVuSans-6d" transform="translate(85.742188 0)"/>
      <use xlink:href="#DejaVuSans-65" transform="translate(183.154297 0)"/>
      <use xlink:href="#DejaVuSans-20" transform="translate(244.677734 0)"/>
      <use xlink:href="#DejaVuSans-53" transform="translate(276.464844 0)"/>
      <use xlink:href="#DejaVuSans-74" transform="translate(339.941406 0)"/>
      <use xlink:href="#DejaVuSans-65" transform="translate(379.150391 0)"/>
      <use xlink:href="#DejaVuSans-70" transform="translate(440.673828 0)"/>
      <use xlink:href="#DejaVuSans-73" transform="translate(504.150391 0)"/>
     </g>
    </g>
   </g>
   <g id="matplotlib.axis_4">
    <g id="ytick_6">
     <g id="line2d_31">
      <g>
       <use xlink:href="#m1a60c80be7" x="416.29625" y="313.092482" style="stroke: #000000; stroke-width: 0.8"/>
      </g>
     </g>
     <g id="text_13">
      <!-- 0.0000 -->
      <g transform="translate(374.305625 316.891701) scale(0.1 -0.1)">
       <use xlink:href="#DejaVuSans-30"/>
       <use xlink:href="#DejaVuSans-2e" transform="translate(63.623047 0)"/>
       <use xlink:href="#DejaVuSans-30" transform="translate(95.410156 0)"/>
       <use xlink:href="#DejaVuSans-30" transform="translate(159.033203 0)"/>
       <use xlink:href="#DejaVuSans-30" transform="translate(222.65625 0)"/>
       <use xlink:href="#DejaVuSans-30" transform="translate(286.279297 0)"/>
      </g>
     </g>
    </g>
    <g id="ytick_7">
     <g id="line2d_32">
      <g>
       <use xlink:href="#m1a60c80be7" x="416.29625" y="283.95612" style="stroke: #000000; stroke-width: 0.8"/>
      </g>
     </g>
     <g id="text_14">
      <!-- 0.0025 -->
      <g transform="translate(374.305625 287.755339) scale(0.1 -0.1)">
       <defs>
        <path id="DejaVuSans-35" d="M 691 4666 
L 3169 4666 
L 3169 4134 
L 1269 4134 
L 1269 2991 
Q 1406 3038 1543 3061 
Q 1681 3084 1819 3084 
Q 2600 3084 3056 2656 
Q 3513 2228 3513 1497 
Q 3513 744 3044 326 
Q 2575 -91 1722 -91 
Q 1428 -91 1123 -41 
Q 819 9 494 109 
L 494 744 
Q 775 591 1075 516 
Q 1375 441 1709 441 
Q 2250 441 2565 725 
Q 2881 1009 2881 1497 
Q 2881 1984 2565 2268 
Q 2250 2553 1709 2553 
Q 1456 2553 1204 2497 
Q 953 2441 691 2322 
L 691 4666 
z
" transform="scale(0.015625)"/>
       </defs>
       <use xlink:href="#DejaVuSans-30"/>
       <use xlink:href="#DejaVuSans-2e" transform="translate(63.623047 0)"/>
       <use xlink:href="#DejaVuSans-30" transform="translate(95.410156 0)"/>
       <use xlink:href="#DejaVuSans-30" transform="translate(159.033203 0)"/>
       <use xlink:href="#DejaVuSans-32" transform="translate(222.65625 0)"/>
       <use xlink:href="#DejaVuSans-35" transform="translate(286.279297 0)"/>
      </g>
     </g>
    </g>
    <g id="ytick_8">
     <g id="line2d_33">
      <g>
       <use xlink:href="#m1a60c80be7" x="416.29625" y="254.819758" style="stroke: #000000; stroke-width: 0.8"/>
      </g>
     </g>
     <g id="text_15">
      <!-- 0.0050 -->
      <g transform="translate(374.305625 258.618976) scale(0.1 -0.1)">
       <use xlink:href="#DejaVuSans-30"/>
       <use xlink:href="#DejaVuSans-2e" transform="translate(63.623047 0)"/>
       <use xlink:href="#DejaVuSans-30" transform="translate(95.410156 0)"/>
       <use xlink:href="#DejaVuSans-30" transform="translate(159.033203 0)"/>
       <use xlink:href="#DejaVuSans-35" transform="translate(222.65625 0)"/>
       <use xlink:href="#DejaVuSans-30" transform="translate(286.279297 0)"/>
      </g>
     </g>
    </g>
    <g id="ytick_9">
     <g id="line2d_34">
      <g>
       <use xlink:href="#m1a60c80be7" x="416.29625" y="225.683395" style="stroke: #000000; stroke-width: 0.8"/>
      </g>
     </g>
     <g id="text_16">
      <!-- 0.0075 -->
      <g transform="translate(374.305625 229.482614) scale(0.1 -0.1)">
       <defs>
        <path id="DejaVuSans-37" d="M 525 4666 
L 3525 4666 
L 3525 4397 
L 1831 0 
L 1172 0 
L 2766 4134 
L 525 4134 
L 525 4666 
z
" transform="scale(0.015625)"/>
       </defs>
       <use xlink:href="#DejaVuSans-30"/>
       <use xlink:href="#DejaVuSans-2e" transform="translate(63.623047 0)"/>
       <use xlink:href="#DejaVuSans-30" transform="translate(95.410156 0)"/>
       <use xlink:href="#DejaVuSans-30" transform="translate(159.033203 0)"/>
       <use xlink:href="#DejaVuSans-37" transform="translate(222.65625 0)"/>
       <use xlink:href="#DejaVuSans-35" transform="translate(286.279297 0)"/>
      </g>
     </g>
    </g>
    <g id="ytick_10">
     <g id="line2d_35">
      <g>
       <use xlink:href="#m1a60c80be7" x="416.29625" y="196.547033" style="stroke: #000000; stroke-width: 0.8"/>
      </g>
     </g>
     <g id="text_17">
      <!-- 0.0100 -->
      <g transform="translate(374.305625 200.346251) scale(0.1 -0.1)">
       <use xlink:href="#DejaVuSans-30"/>
       <use xlink:href="#DejaVuSans-2e" transform="translate(63.623047 0)"/>
       <use xlink:href="#DejaVuSans-30" transform="translate(95.410156 0)"/>
       <use xlink:href="#DejaVuSans-31" transform="translate(159.033203 0)"/>
       <use xlink:href="#DejaVuSans-30" transform="translate(222.65625 0)"/>
       <use xlink:href="#DejaVuSans-30" transform="translate(286.279297 0)"/>
      </g>
     </g>
    </g>
    <g id="ytick_11">
     <g id="line2d_36">
      <g>
       <use xlink:href="#m1a60c80be7" x="416.29625" y="167.41067" style="stroke: #000000; stroke-width: 0.8"/>
      </g>
     </g>
     <g id="text_18">
      <!-- 0.0125 -->
      <g transform="translate(374.305625 171.209889) scale(0.1 -0.1)">
       <use xlink:href="#DejaVuSans-30"/>
       <use xlink:href="#DejaVuSans-2e" transform="translate(63.623047 0)"/>
       <use xlink:href="#DejaVuSans-30" transform="translate(95.410156 0)"/>
       <use xlink:href="#DejaVuSans-31" transform="translate(159.033203 0)"/>
       <use xlink:href="#DejaVuSans-32" transform="translate(222.65625 0)"/>
       <use xlink:href="#DejaVuSans-35" transform="translate(286.279297 0)"/>
      </g>
     </g>
    </g>
    <g id="ytick_12">
     <g id="line2d_37">
      <g>
       <use xlink:href="#m1a60c80be7" x="416.29625" y="138.274308" style="stroke: #000000; stroke-width: 0.8"/>
      </g>
     </g>
     <g id="text_19">
      <!-- 0.0150 -->
      <g transform="translate(374.305625 142.073526) scale(0.1 -0.1)">
       <use xlink:href="#DejaVuSans-30"/>
       <use xlink:href="#DejaVuSans-2e" transform="translate(63.623047 0)"/>
       <use xlink:href="#DejaVuSans-30" transform="translate(95.410156 0)"/>
       <use xlink:href="#DejaVuSans-31" transform="translate(159.033203 0)"/>
       <use xlink:href="#DejaVuSans-35" transform="translate(222.65625 0)"/>
       <use xlink:href="#DejaVuSans-30" transform="translate(286.279297 0)"/>
      </g>
     </g>
    </g>
    <g id="ytick_13">
     <g id="line2d_38">
      <g>
       <use xlink:href="#m1a60c80be7" x="416.29625" y="109.137945" style="stroke: #000000; stroke-width: 0.8"/>
      </g>
     </g>
     <g id="text_20">
      <!-- 0.0175 -->
      <g transform="translate(374.305625 112.937164) scale(0.1 -0.1)">
       <use xlink:href="#DejaVuSans-30"/>
       <use xlink:href="#DejaVuSans-2e" transform="translate(63.623047 0)"/>
       <use xlink:href="#DejaVuSans-30" transform="translate(95.410156 0)"/>
       <use xlink:href="#DejaVuSans-31" transform="translate(159.033203 0)"/>
       <use xlink:href="#DejaVuSans-37" transform="translate(222.65625 0)"/>
       <use xlink:href="#DejaVuSans-35" transform="translate(286.279297 0)"/>
      </g>
     </g>
    </g>
    <g id="ytick_14">
     <g id="line2d_39">
      <g>
       <use xlink:href="#m1a60c80be7" x="416.29625" y="80.001583" style="stroke: #000000; stroke-width: 0.8"/>
      </g>
     </g>
     <g id="text_21">
      <!-- 0.0200 -->
      <g transform="translate(374.305625 83.800802) scale(0.1 -0.1)">
       <use xlink:href="#DejaVuSans-30"/>
       <use xlink:href="#DejaVuSans-2e" transform="translate(63.623047 0)"/>
       <use xlink:href="#DejaVuSans-30" transform="translate(95.410156 0)"/>
       <use xlink:href="#DejaVuSans-32" transform="translate(159.033203 0)"/>
       <use xlink:href="#DejaVuSans-30" transform="translate(222.65625 0)"/>
       <use xlink:href="#DejaVuSans-30" transform="translate(286.279297 0)"/>
      </g>
     </g>
    </g>
    <g id="text_22">
     <!-- Attribution (IG) -->
     <g transform="translate(368.017969 239.918594) rotate(-90) scale(0.11 -0.11)">
      <use xlink:href="#DejaVuSans-41"/>
      <use xlink:href="#DejaVuSans-74" transform="translate(66.658203 0)"/>
      <use xlink:href="#DejaVuSans-74" transform="translate(105.867188 0)"/>
      <use xlink:href="#DejaVuSans-72" transform="translate(145.076172 0)"/>
      <use xlink:href="#DejaVuSans-69" transform="translate(186.189453 0)"/>
      <use xlink:href="#DejaVuSans-62" transform="translate(213.972656 0)"/>
      <use xlink:href="#DejaVuSans-75" transform="translate(277.449219 0)"/>
      <use xlink:href="#DejaVuSans-74" transform="translate(340.828125 0)"/>
      <use xlink:href="#DejaVuSans-69" transform="translate(380.037109 0)"/>
      <use xlink:href="#DejaVuSans-6f" transform="translate(407.820312 0)"/>
      <use xlink:href="#DejaVuSans-6e" transform="translate(469.001953 0)"/>
      <use xlink:href="#DejaVuSans-20" transform="translate(532.380859 0)"/>
      <use xlink:href="#DejaVuSans-28" transform="translate(564.167969 0)"/>
      <use xlink:href="#DejaVuSans-49" transform="translate(603.181641 0)"/>
      <use xlink:href="#DejaVuSans-47" transform="translate(632.673828 0)"/>
      <use xlink:href="#DejaVuSans-29" transform="translate(710.164062 0)"/>
     </g>
    </g>
   </g>
   <g id="line2d_40">
    <path d="M 429.437386 313.274756 
L 432.189457 313.065039 
L 437.693598 313.032962 
L 439.069633 313.295674 
L 440.445668 312.987167 
L 441.821703 313.151838 
L 461.086196 313.115975 
L 462.462232 313.294889 
L 476.222584 313.181221 
L 477.598619 313.227311 
L 480.35069 313.123521 
L 484.478795 313.153361 
L 488.606901 313.074448 
L 492.735007 313.067877 
L 494.111042 312.927687 
L 495.487077 313.240367 
L 506.495359 313.15812 
L 510.623464 313.124512 
L 514.75157 313.08383 
L 556.032627 313.118584 
L 557.408662 313.193339 
L 560.160732 313.056165 
L 561.536768 313.430174 
L 564.288838 313.315747 
L 567.040908 313.118496 
L 580.801261 313.134401 
L 584.929366 312.987939 
L 586.305402 313.092459 
L 593.185578 313.112736 
L 594.561613 314.066428 
L 595.937648 314.141472 
L 597.313683 314.054722 
L 598.689719 314.516633 
L 600.065754 314.644614 
L 601.441789 315.175783 
L 602.817824 314.829352 
L 604.193859 314.616687 
L 605.569895 314.839003 
L 606.94593 315.180462 
L 612.450071 313.76355 
L 613.826106 313.567368 
L 615.202141 313.006056 
L 616.578176 311.176439 
L 617.954212 314.359023 
L 619.330247 312.867383 
L 620.706282 313.617878 
L 622.082317 313.672524 
L 623.458353 314.50137 
L 624.834388 314.619909 
L 626.210423 315.655909 
L 627.586458 276.502593 
L 630.338529 259.619813 
L 631.714564 242.275265 
L 633.090599 243.455093 
L 634.466634 242.720995 
L 635.84267 226.608436 
L 637.218705 248.721555 
L 638.59474 234.549732 
L 639.970775 230.196196 
L 641.34681 243.365487 
L 642.722846 251.939575 
L 644.098881 252.167137 
L 645.474916 261.655762 
L 646.850951 255.496091 
L 648.226987 256.201724 
L 649.603022 250.692998 
L 650.979057 224.79002 
L 652.355092 212.37183 
L 653.731127 197.51047 
L 655.107163 154.516122 
L 656.483198 165.442367 
L 657.859233 170.456221 
L 659.235268 81.774091 
L 660.611304 313.092482 
L 692.260114 313.092482 
L 692.260114 313.092482 
" clip-path="url(#p8cd05e6003)" style="fill: none; stroke: #9c755f; stroke-opacity: 0.95; stroke-width: 1.8; stroke-linecap: square"/>
   </g>
   <g id="line2d_41">
    <path d="M 416.29625 313.092482 
L 705.40125 313.092482 
" clip-path="url(#p8cd05e6003)" style="fill: none; stroke: #888888; stroke-opacity: 0.6; stroke-linecap: square"/>
   </g>
   <g id="patch_8">
    <path d="M 416.29625 327.35 
L 416.29625 70.08 
" style="fill: none; stroke: #000000; stroke-width: 0.8; stroke-linejoin: miter; stroke-linecap: square"/>
   </g>
   <g id="patch_9">
    <path d="M 705.40125 327.35 
L 705.40125 70.08 
" style="fill: none; stroke: #000000; stroke-width: 0.8; stroke-linejoin: miter; stroke-linecap: square"/>
   </g>
   <g id="patch_10">
    <path d="M 416.29625 327.35 
L 705.40125 327.35 
" style="fill: none; stroke: #000000; stroke-width: 0.8; stroke-linejoin: miter; stroke-linecap: square"/>
   </g>
   <g id="patch_11">
    <path d="M 416.29625 70.08 
L 705.40125 70.08 
" style="fill: none; stroke: #000000; stroke-width: 0.8; stroke-linejoin: miter; stroke-linecap: square"/>
   </g>
   <g id="text_23">
    <!-- Other (n=1) -->
    <g transform="translate(527.598672 64.08) scale(0.11 -0.11)">
     <defs>
      <path id="DejaVuSans-68" d="M 3513 2113 
L 3513 0 
L 2938 0 
L 2938 2094 
Q 2938 2591 2744 2837 
Q 2550 3084 2163 3084 
Q 1697 3084 1428 2787 
Q 1159 2491 1159 1978 
L 1159 0 
L 581 0 
L 581 4863 
L 1159 4863 
L 1159 2956 
Q 1366 3272 1645 3428 
Q 1925 3584 2291 3584 
Q 2894 3584 3203 3211 
Q 3513 2838 3513 2113 
z
" transform="scale(0.015625)"/>
     </defs>
     <use xlink:href="#DejaVuSans-4f"/>
     <use xlink:href="#DejaVuSans-74" transform="translate(78.710938 0)"/>
     <use xlink:href="#DejaVuSans-68" transform="translate(117.919922 0)"/>
     <use xlink:href="#DejaVuSans-65" transform="translate(181.298828 0)"/>
     <use xlink:href="#DejaVuSans-72" transform="translate(242.822266 0)"/>
     <use xlink:href="#DejaVuSans-20" transform="translate(283.935547 0)"/>
     <use xlink:href="#DejaVuSans-28" transform="translate(315.722656 0)"/>
     <use xlink:href="#DejaVuSans-6e" transform="translate(354.736328 0)"/>
     <use xlink:href="#DejaVuSans-3d" transform="translate(418.115234 0)"/>
     <use xlink:href="#DejaVuSans-31" transform="translate(501.904297 0)"/>
     <use xlink:href="#DejaVuSans-29" transform="translate(565.527344 0)"/>
    </g>
   </g>
   <g id="legend_2">
    <g id="line2d_42">
     <path d="M 423.49625 80.55875 
L 431.49625 80.55875 
L 439.49625 80.55875 
" style="fill: none; stroke: #9c755f; stroke-opacity: 0.95; stroke-width: 1.8; stroke-linecap: square"/>
    </g>
    <g id="text_24">
     <!-- Generation Waste -->
     <g transform="translate(445.89625 83.35875) scale(0.08 -0.08)">
      <defs>
       <path id="DejaVuSans-57" d="M 213 4666 
L 850 4666 
L 1831 722 
L 2809 4666 
L 3519 4666 
L 4500 722 
L 5478 4666 
L 6119 4666 
L 4947 0 
L 4153 0 
L 3169 4050 
L 2175 0 
L 1381 0 
L 213 4666 
z
" transform="scale(0.015625)"/>
      </defs>
      <use xlink:href="#DejaVuSans-47"/>
      <use xlink:href="#DejaVuSans-65" transform="translate(77.490234 0)"/>
      <use xlink:href="#DejaVuSans-6e" transform="translate(139.013672 0)"/>
      <use xlink:href="#DejaVuSans-65" transform="translate(202.392578 0)"/>
      <use xlink:href="#DejaVuSans-72" transform="translate(263.916016 0)"/>
      <use xlink:href="#DejaVuSans-61" transform="translate(305.029297 0)"/>
      <use xlink:href="#DejaVuSans-74" transform="translate(366.308594 0)"/>
      <use xlink:href="#DejaVuSans-69" transform="translate(405.517578 0)"/>
      <use xlink:href="#DejaVuSans-6f" transform="translate(433.300781 0)"/>
      <use xlink:href="#DejaVuSans-6e" transform="translate(494.482422 0)"/>
      <use xlink:href="#DejaVuSans-20" transform="translate(557.861328 0)"/>
      <use xlink:href="#DejaVuSans-57" transform="translate(589.648438 0)"/>
      <use xlink:href="#DejaVuSans-61" transform="translate(682.150391 0)"/>
      <use xlink:href="#DejaVuSans-73" transform="translate(743.429688 0)"/>
      <use xlink:href="#DejaVuSans-74" transform="translate(795.529297 0)"/>
      <use xlink:href="#DejaVuSans-65" transform="translate(834.738281 0)"/>
     </g>
    </g>
   </g>
  </g>
  <g id="axes_3">
   <g id="patch_12">
    <path d="M 59.49125 628.36 
L 348.59625 628.36 
L 348.59625 371.09 
L 59.49125 371.09 
z
" style="fill: #ffffff"/>
   </g>
   <g id="matplotlib.axis_5">
    <g id="xtick_19">
     <g id="line2d_43">
      <g>
       <use xlink:href="#mf0cd24c351" x="72.632386" y="628.36" style="stroke: #000000; stroke-width: 0.8"/>
      </g>
     </g>
     <g id="text_25">
      <!-- 0 -->
      <g transform="translate(70.087386 641.43875) scale(0.08 -0.08)">
       <use xlink:href="#DejaVuSans-30"/>
      </g>
     </g>
    </g>
    <g id="xtick_20">
     <g id="line2d_44">
      <g>
       <use xlink:href="#mf0cd24c351" x="107.033267" y="628.36" style="stroke: #000000; stroke-width: 0.8"/>
      </g>
     </g>
     <g id="text_26">
      <!-- 25 -->
      <g transform="translate(101.943267 641.43875) scale(0.08 -0.08)">
       <use xlink:href="#DejaVuSans-32"/>
       <use xlink:href="#DejaVuSans-35" transform="translate(63.623047 0)"/>
      </g>
     </g>
    </g>
    <g id="xtick_21">
     <g id="line2d_45">
      <g>
       <use xlink:href="#mf0cd24c351" x="141.434147" y="628.36" style="stroke: #000000; stroke-width: 0.8"/>
      </g>
     </g>
     <g id="text_27">
      <!-- 50 -->
      <g transform="translate(136.344147 641.43875) scale(0.08 -0.08)">
       <use xlink:href="#DejaVuSans-35"/>
       <use xlink:href="#DejaVuSans-30" transform="translate(63.623047 0)"/>
      </g>
     </g>
    </g>
    <g id="xtick_22">
     <g id="line2d_46">
      <g>
       <use xlink:href="#mf0cd24c351" x="175.835028" y="628.36" style="stroke: #000000; stroke-width: 0.8"/>
      </g>
     </g>
     <g id="text_28">
      <!-- 75 -->
      <g transform="translate(170.745028 641.43875) scale(0.08 -0.08)">
       <use xlink:href="#DejaVuSans-37"/>
       <use xlink:href="#DejaVuSans-35" transform="translate(63.623047 0)"/>
      </g>
     </g>
    </g>
    <g id="xtick_23">
     <g id="line2d_47">
      <g>
       <use xlink:href="#mf0cd24c351" x="210.235908" y="628.36" style="stroke: #000000; stroke-width: 0.8"/>
      </g>
     </g>
     <g id="text_29">
      <!-- 100 -->
      <g transform="translate(202.600908 641.43875) scale(0.08 -0.08)">
       <use xlink:href="#DejaVuSans-31"/>
       <use xlink:href="#DejaVuSans-30" transform="translate(63.623047 0)"/>
       <use xlink:href="#DejaVuSans-30" transform="translate(127.246094 0)"/>
      </g>
     </g>
    </g>
    <g id="xtick_24">
     <g id="line2d_48">
      <g>
       <use xlink:href="#mf0cd24c351" x="244.636789" y="628.36" style="stroke: #000000; stroke-width: 0.8"/>
      </g>
     </g>
     <g id="text_30">
      <!-- 125 -->
      <g transform="translate(237.001789 641.43875) scale(0.08 -0.08)">
       <use xlink:href="#DejaVuSans-31"/>
       <use xlink:href="#DejaVuSans-32" transform="translate(63.623047 0)"/>
       <use xlink:href="#DejaVuSans-35" transform="translate(127.246094 0)"/>
      </g>
     </g>
    </g>
    <g id="xtick_25">
     <g id="line2d_49">
      <g>
       <use xlink:href="#mf0cd24c351" x="279.03767" y="628.36" style="stroke: #000000; stroke-width: 0.8"/>
      </g>
     </g>
     <g id="text_31">
      <!-- 150 -->
      <g transform="translate(271.40267 641.43875) scale(0.08 -0.08)">
       <use xlink:href="#DejaVuSans-31"/>
       <use xlink:href="#DejaVuSans-35" transform="translate(63.623047 0)"/>
       <use xlink:href="#DejaVuSans-30" transform="translate(127.246094 0)"/>
      </g>
     </g>
    </g>
    <g id="xtick_26">
     <g id="line2d_50">
      <g>
       <use xlink:href="#mf0cd24c351" x="313.43855" y="628.36" style="stroke: #000000; stroke-width: 0.8"/>
      </g>
     </g>
     <g id="text_32">
      <!-- 175 -->
      <g transform="translate(305.80355 641.43875) scale(0.08 -0.08)">
       <use xlink:href="#DejaVuSans-31"/>
       <use xlink:href="#DejaVuSans-37" transform="translate(63.623047 0)"/>
       <use xlink:href="#DejaVuSans-35" transform="translate(127.246094 0)"/>
      </g>
     </g>
    </g>
    <g id="xtick_27">
     <g id="line2d_51">
      <g>
       <use xlink:href="#mf0cd24c351" x="347.839431" y="628.36" style="stroke: #000000; stroke-width: 0.8"/>
      </g>
     </g>
     <g id="text_33">
      <!-- 200 -->
      <g transform="translate(340.204431 641.43875) scale(0.08 -0.08)">
       <use xlink:href="#DejaVuSans-32"/>
       <use xlink:href="#DejaVuSans-30" transform="translate(63.623047 0)"/>
       <use xlink:href="#DejaVuSans-30" transform="translate(127.246094 0)"/>
      </g>
     </g>
    </g>
    <g id="text_34">
     <!-- Time Steps -->
     <g transform="translate(173.45 655.460781) scale(0.11 -0.11)">
      <use xlink:href="#DejaVuSans-54"/>
      <use xlink:href="#DejaVuSans-69" transform="translate(57.958984 0)"/>
      <use xlink:href="#DejaVuSans-6d" transform="translate(85.742188 0)"/>
      <use xlink:href="#DejaVuSans-65" transform="translate(183.154297 0)"/>
      <use xlink:href="#DejaVuSans-20" transform="translate(244.677734 0)"/>
      <use xlink:href="#DejaVuSans-53" transform="translate(276.464844 0)"/>
      <use xlink:href="#DejaVuSans-74" transform="translate(339.941406 0)"/>
      <use xlink:href="#DejaVuSans-65" transform="translate(379.150391 0)"/>
      <use xlink:href="#DejaVuSans-70" transform="translate(440.673828 0)"/>
      <use xlink:href="#DejaVuSans-73" transform="translate(504.150391 0)"/>
     </g>
    </g>
   </g>
   <g id="matplotlib.axis_6">
    <g id="ytick_15">
     <g id="line2d_52">
      <g>
       <use xlink:href="#m1a60c80be7" x="59.49125" y="580.133437" style="stroke: #000000; stroke-width: 0.8"/>
      </g>
     </g>
     <g id="text_35">
      <!-- −0.02 -->
      <g transform="translate(21.845938 583.932656) scale(0.1 -0.1)">
       <use xlink:href="#DejaVuSans-2212"/>
       <use xlink:href="#DejaVuSans-30" transform="translate(83.789062 0)"/>
       <use xlink:href="#DejaVuSans-2e" transform="translate(147.412109 0)"/>
       <use xlink:href="#DejaVuSans-30" transform="translate(179.199219 0)"/>
       <use xlink:href="#DejaVuSans-32" transform="translate(242.822266 0)"/>
      </g>
     </g>
    </g>
    <g id="ytick_16">
     <g id="line2d_53">
      <g>
       <use xlink:href="#m1a60c80be7" x="59.49125" y="529.702085" style="stroke: #000000; stroke-width: 0.8"/>
      </g>
     </g>
     <g id="text_36">
      <!-- 0.00 -->
      <g transform="translate(30.225625 533.501303) scale(0.1 -0.1)">
       <use xlink:href="#DejaVuSans-30"/>
       <use xlink:href="#DejaVuSans-2e" transform="translate(63.623047 0)"/>
       <use xlink:href="#DejaVuSans-30" transform="translate(95.410156 0)"/>
       <use xlink:href="#DejaVuSans-30" transform="translate(159.033203 0)"/>
      </g>
     </g>
    </g>
    <g id="ytick_17">
     <g id="line2d_54">
      <g>
       <use xlink:href="#m1a60c80be7" x="59.49125" y="479.270732" style="stroke: #000000; stroke-width: 0.8"/>
      </g>
     </g>
     <g id="text_37">
      <!-- 0.02 -->
      <g transform="translate(30.225625 483.069951) scale(0.1 -0.1)">
       <use xlink:href="#DejaVuSans-30"/>
       <use xlink:href="#DejaVuSans-2e" transform="translate(63.623047 0)"/>
       <use xlink:href="#DejaVuSans-30" transform="translate(95.410156 0)"/>
       <use xlink:href="#DejaVuSans-32" transform="translate(159.033203 0)"/>
      </g>
     </g>
    </g>
    <g id="ytick_18">
     <g id="line2d_55">
      <g>
       <use xlink:href="#m1a60c80be7" x="59.49125" y="428.839379" style="stroke: #000000; stroke-width: 0.8"/>
      </g>
     </g>
     <g id="text_38">
      <!-- 0.04 -->
      <g transform="translate(30.225625 432.638598) scale(0.1 -0.1)">
       <defs>
        <path id="DejaVuSans-34" d="M 2419 4116 
L 825 1625 
L 2419 1625 
L 2419 4116 
z
M 2253 4666 
L 3047 4666 
L 3047 1625 
L 3713 1625 
L 3713 1100 
L 3047 1100 
L 3047 0 
L 2419 0 
L 2419 1100 
L 313 1100 
L 313 1709 
L 2253 4666 
z
" transform="scale(0.015625)"/>
       </defs>
       <use xlink:href="#DejaVuSans-30"/>
       <use xlink:href="#DejaVuSans-2e" transform="translate(63.623047 0)"/>
       <use xlink:href="#DejaVuSans-30" transform="translate(95.410156 0)"/>
       <use xlink:href="#DejaVuSans-34" transform="translate(159.033203 0)"/>
      </g>
     </g>
    </g>
    <g id="ytick_19">
     <g id="line2d_56">
      <g>
       <use xlink:href="#m1a60c80be7" x="59.49125" y="378.408027" style="stroke: #000000; stroke-width: 0.8"/>
      </g>
     </g>
     <g id="text_39">
      <!-- 0.06 -->
      <g transform="translate(30.225625 382.207245) scale(0.1 -0.1)">
       <defs>
        <path id="DejaVuSans-36" d="M 2113 2584 
Q 1688 2584 1439 2293 
Q 1191 2003 1191 1497 
Q 1191 994 1439 701 
Q 1688 409 2113 409 
Q 2538 409 2786 701 
Q 3034 994 3034 1497 
Q 3034 2003 2786 2293 
Q 2538 2584 2113 2584 
z
M 3366 4563 
L 3366 3988 
Q 3128 4100 2886 4159 
Q 2644 4219 2406 4219 
Q 1781 4219 1451 3797 
Q 1122 3375 1075 2522 
Q 1259 2794 1537 2939 
Q 1816 3084 2150 3084 
Q 2853 3084 3261 2657 
Q 3669 2231 3669 1497 
Q 3669 778 3244 343 
Q 2819 -91 2113 -91 
Q 1303 -91 875 529 
Q 447 1150 447 2328 
Q 447 3434 972 4092 
Q 1497 4750 2381 4750 
Q 2619 4750 2861 4703 
Q 3103 4656 3366 4563 
z
" transform="scale(0.015625)"/>
       </defs>
       <use xlink:href="#DejaVuSans-30"/>
       <use xlink:href="#DejaVuSans-2e" transform="translate(63.623047 0)"/>
       <use xlink:href="#DejaVuSans-30" transform="translate(95.410156 0)"/>
       <use xlink:href="#DejaVuSans-36" transform="translate(159.033203 0)"/>
      </g>
     </g>
    </g>
    <g id="text_40">
     <!-- Attribution (IG) -->
     <g transform="translate(15.558281 540.928594) rotate(-90) scale(0.11 -0.11)">
      <use xlink:href="#DejaVuSans-41"/>
      <use xlink:href="#DejaVuSans-74" transform="translate(66.658203 0)"/>
      <use xlink:href="#DejaVuSans-74" transform="translate(105.867188 0)"/>
      <use xlink:href="#DejaVuSans-72" transform="translate(145.076172 0)"/>
      <use xlink:href="#DejaVuSans-69" transform="translate(186.189453 0)"/>
      <use xlink:href="#DejaVuSans-62" transform="translate(213.972656 0)"/>
      <use xlink:href="#DejaVuSans-75" transform="translate(277.449219 0)"/>
      <use xlink:href="#DejaVuSans-74" transform="translate(340.828125 0)"/>
      <use xlink:href="#DejaVuSans-69" transform="translate(380.037109 0)"/>
      <use xlink:href="#DejaVuSans-6f" transform="translate(407.820312 0)"/>
      <use xlink:href="#DejaVuSans-6e" transform="translate(469.001953 0)"/>
      <use xlink:href="#DejaVuSans-20" transform="translate(532.380859 0)"/>
      <use xlink:href="#DejaVuSans-28" transform="translate(564.167969 0)"/>
      <use xlink:href="#DejaVuSans-49" transform="translate(603.181641 0)"/>
      <use xlink:href="#DejaVuSans-47" transform="translate(632.673828 0)"/>
      <use xlink:href="#DejaVuSans-29" transform="translate(710.164062 0)"/>
     </g>
    </g>
   </g>
   <g id="line2d_57">
    <path d="M 72.632386 529.683532 
L 94.64895 529.700444 
L 100.153091 529.755688 
L 112.537408 529.679599 
L 119.417584 529.797746 
L 127.673795 529.695256 
L 133.177936 529.747707 
L 163.450711 529.700798 
L 166.202781 529.709011 
L 170.330887 529.700133 
L 178.587098 529.716729 
L 215.740049 529.774247 
L 218.49212 529.599586 
L 219.868155 529.775542 
L 228.124366 529.615056 
L 230.876437 529.69873 
L 232.252472 529.551687 
L 233.628507 529.08554 
L 235.004542 529.069796 
L 236.380578 529.60708 
L 239.132648 529.708146 
L 241.884719 529.588896 
L 244.636789 529.559549 
L 246.012824 529.6937 
L 247.388859 528.623254 
L 248.764895 525.923133 
L 250.14093 528.847645 
L 251.516965 528.987813 
L 255.645071 529.78299 
L 257.021106 529.616174 
L 261.149212 529.539644 
L 262.525247 529.435083 
L 263.901282 529.769842 
L 265.277317 528.67883 
L 266.653353 526.705489 
L 268.029388 527.674867 
L 269.405423 529.482894 
L 270.781458 525.57995 
L 272.157493 528.06395 
L 273.533529 525.780001 
L 274.909564 527.419643 
L 276.285599 529.957239 
L 277.661634 530.896892 
L 279.03767 530.939949 
L 280.413705 530.737076 
L 281.78974 529.047809 
L 283.165775 530.658692 
L 285.917846 529.969589 
L 287.293881 529.998698 
L 288.669916 529.584909 
L 290.045951 529.705816 
L 291.421987 528.703593 
L 292.798022 527.305865 
L 294.174057 530.191216 
L 295.550092 532.426593 
L 296.926127 534.168947 
L 298.302163 535.3958 
L 299.678198 495.852618 
L 301.054233 411.60648 
L 302.430268 382.784091 
L 303.806304 529.702085 
L 335.455114 529.702085 
L 335.455114 529.702085 
" clip-path="url(#p0828cef8d7)" style="fill: none; stroke: #59a14f; stroke-opacity: 0.95; stroke-width: 1.8; stroke-linecap: square"/>
   </g>
   <g id="line2d_58">
    <path d="M 72.632386 529.76338 
L 91.896879 529.742817 
L 112.537408 529.695916 
L 171.706922 529.754859 
L 179.963134 529.778748 
L 199.227627 529.918355 
L 207.483838 530.078106 
L 212.987979 530.09595 
L 218.49212 530.242596 
L 225.372296 530.36122 
L 226.748331 530.458549 
L 228.124366 530.400629 
L 235.004542 531.278586 
L 236.380578 531.011028 
L 237.756613 532.925158 
L 239.132648 533.296357 
L 240.508683 533.326213 
L 241.884719 533.744723 
L 243.260754 533.889531 
L 244.636789 534.233206 
L 246.012824 535.113686 
L 247.388859 535.504789 
L 248.764895 538.000282 
L 251.516965 538.063772 
L 252.893 538.568 
L 254.269036 538.488827 
L 255.645071 539.52796 
L 257.021106 539.099481 
L 258.397141 539.208888 
L 261.149212 540.954202 
L 262.525247 540.873284 
L 263.901282 542.531318 
L 265.277317 542.885292 
L 266.653353 541.990548 
L 268.029388 544.597565 
L 269.405423 541.895518 
L 270.781458 533.62408 
L 272.157493 535.277741 
L 273.533529 534.603818 
L 274.909564 532.419248 
L 276.285599 532.865805 
L 277.661634 532.009785 
L 279.03767 532.634693 
L 280.413705 532.875493 
L 281.78974 531.184371 
L 283.165775 530.265077 
L 284.54181 531.511977 
L 285.917846 531.595098 
L 287.293881 531.861522 
L 288.669916 531.630864 
L 290.045951 531.571479 
L 291.421987 531.888848 
L 292.798022 532.345132 
L 294.174057 532.641122 
L 295.550092 533.458005 
L 296.926127 534.539511 
L 298.302163 534.18764 
L 299.678198 537.311153 
L 301.054233 542.634947 
L 302.430268 510.605364 
L 303.806304 529.702085 
L 335.455114 529.702085 
L 335.455114 529.702085 
" clip-path="url(#p0828cef8d7)" style="fill: none; stroke: #8cd17d; stroke-opacity: 0.95; stroke-width: 1.8; stroke-linecap: square"/>
   </g>
   <g id="line2d_59">
    <path d="M 72.632386 529.776481 
L 203.355732 529.749724 
L 206.107803 529.820036 
L 211.611944 529.865068 
L 212.987979 530.012643 
L 214.364014 529.944798 
L 215.740049 530.005398 
L 218.49212 529.885254 
L 221.24419 529.926532 
L 223.996261 529.955207 
L 228.124366 530.000874 
L 230.876437 529.932677 
L 235.004542 530.185263 
L 236.380578 530.142481 
L 237.756613 530.707505 
L 239.132648 530.880379 
L 241.884719 530.947064 
L 243.260754 530.342067 
L 244.636789 530.259377 
L 246.012824 531.209641 
L 247.388859 531.475965 
L 248.764895 532.485524 
L 250.14093 533.020191 
L 252.893 533.097032 
L 254.269036 533.011419 
L 255.645071 533.307553 
L 257.021106 533.399744 
L 258.397141 530.25646 
L 259.773176 528.526528 
L 261.149212 529.365865 
L 262.525247 530.816713 
L 263.901282 530.307408 
L 265.277317 533.11461 
L 266.653353 533.476388 
L 268.029388 534.250569 
L 269.405423 532.762727 
L 270.781458 538.433804 
L 272.157493 537.393197 
L 273.533529 532.881126 
L 274.909564 534.699088 
L 276.285599 533.703585 
L 277.661634 529.839653 
L 279.03767 530.035648 
L 280.413705 527.51692 
L 281.78974 526.624562 
L 283.165775 530.027414 
L 284.54181 530.217406 
L 285.917846 530.12447 
L 287.293881 531.169848 
L 288.669916 534.825227 
L 290.045951 536.933067 
L 291.421987 541.241264 
L 292.798022 541.049598 
L 294.174057 534.741214 
L 295.550092 534.852936 
L 296.926127 535.120905 
L 298.302163 532.546989 
L 299.678198 521.552251 
L 301.054233 497.309643 
L 302.430268 425.926538 
L 303.806304 529.702085 
L 335.455114 529.702085 
L 335.455114 529.702085 
" clip-path="url(#p0828cef8d7)" style="fill: none; stroke: #2e7d32; stroke-opacity: 0.95; stroke-width: 1.8; stroke-linecap: square"/>
   </g>
   <g id="line2d_60">
    <path d="M 72.632386 529.709494 
L 195.099521 529.691132 
L 200.603662 529.711611 
L 221.24419 529.643081 
L 233.628507 529.478008 
L 235.004542 529.777798 
L 236.380578 529.63948 
L 237.756613 528.471989 
L 239.132648 528.069933 
L 240.508683 527.911169 
L 241.884719 528.028565 
L 243.260754 528.766377 
L 244.636789 528.589302 
L 247.388859 526.797685 
L 248.764895 526.075299 
L 250.14093 525.953995 
L 251.516965 526.402109 
L 252.893 526.164776 
L 255.645071 525.036621 
L 257.021106 525.93308 
L 258.397141 526.096633 
L 259.773176 525.858926 
L 261.149212 524.99133 
L 263.901282 524.366038 
L 265.277317 523.882852 
L 266.653353 525.673913 
L 268.029388 524.135108 
L 269.405423 525.442192 
L 270.781458 525.183277 
L 272.157493 526.190928 
L 273.533529 524.842855 
L 274.909564 528.429191 
L 276.285599 529.421541 
L 277.661634 530.947146 
L 279.03767 530.650504 
L 281.78974 523.903011 
L 283.165775 528.452638 
L 284.54181 524.390797 
L 285.917846 523.76118 
L 287.293881 523.287358 
L 288.669916 525.394053 
L 290.045951 526.150143 
L 291.421987 523.054934 
L 292.798022 524.450196 
L 294.174057 526.427572 
L 295.550092 526.723345 
L 296.926127 527.477188 
L 298.302163 532.689374 
L 299.678198 538.441242 
L 301.054233 562.104298 
L 302.430268 616.665909 
L 303.806304 529.702085 
L 335.455114 529.702085 
L 335.455114 529.702085 
" clip-path="url(#p0828cef8d7)" style="fill: none; stroke: #59a14f; stroke-opacity: 0.95; stroke-width: 1.8; stroke-linecap: square"/>
   </g>
   <g id="line2d_61">
    <path d="M 59.49125 529.702085 
L 348.59625 529.702085 
" clip-path="url(#p0828cef8d7)" style="fill: none; stroke: #888888; stroke-opacity: 0.6; stroke-linecap: square"/>
   </g>
   <g id="patch_13">
    <path d="M 59.49125 628.36 
L 59.49125 371.09 
" style="fill: none; stroke: #000000; stroke-width: 0.8; stroke-linejoin: miter; stroke-linecap: square"/>
   </g>
   <g id="patch_14">
    <path d="M 348.59625 628.36 
L 348.59625 371.09 
" style="fill: none; stroke: #000000; stroke-width: 0.8; stroke-linejoin: miter; stroke-linecap: square"/>
   </g>
   <g id="patch_15">
    <path d="M 59.49125 628.36 
L 348.59625 628.36 
" style="fill: none; stroke: #000000; stroke-width: 0.8; stroke-linejoin: miter; stroke-linecap: square"/>
   </g>
   <g id="patch_16">
    <path d="M 59.49125 371.09 
L 348.59625 371.09 
" style="fill: none; stroke: #000000; stroke-width: 0.8; stroke-linejoin: miter; stroke-linecap: square"/>
   </g>
   <g id="text_41">
    <!-- Renewable (n=4) -->
    <g transform="translate(156.309766 365.09) scale(0.11 -0.11)">
     <defs>
      <path id="DejaVuSans-52" d="M 2841 2188 
Q 3044 2119 3236 1894 
Q 3428 1669 3622 1275 
L 4263 0 
L 3584 0 
L 2988 1197 
Q 2756 1666 2539 1819 
Q 2322 1972 1947 1972 
L 1259 1972 
L 1259 0 
L 628 0 
L 628 4666 
L 2053 4666 
Q 2853 4666 3247 4331 
Q 3641 3997 3641 3322 
Q 3641 2881 3436 2590 
Q 3231 2300 2841 2188 
z
M 1259 4147 
L 1259 2491 
L 2053 2491 
Q 2509 2491 2742 2702 
Q 2975 2913 2975 3322 
Q 2975 3731 2742 3939 
Q 2509 4147 2053 4147 
L 1259 4147 
z
" transform="scale(0.015625)"/>
      <path id="DejaVuSans-77" d="M 269 3500 
L 844 3500 
L 1563 769 
L 2278 3500 
L 2956 3500 
L 3675 769 
L 4391 3500 
L 4966 3500 
L 4050 0 
L 3372 0 
L 2619 2869 
L 1863 0 
L 1184 0 
L 269 3500 
z
" transform="scale(0.015625)"/>
     </defs>
     <use xlink:href="#DejaVuSans-52"/>
     <use xlink:href="#DejaVuSans-65" transform="translate(64.982422 0)"/>
     <use xlink:href="#DejaVuSans-6e" transform="translate(126.505859 0)"/>
     <use xlink:href="#DejaVuSans-65" transform="translate(189.884766 0)"/>
     <use xlink:href="#DejaVuSans-77" transform="translate(251.408203 0)"/>
     <use xlink:href="#DejaVuSans-61" transform="translate(333.195312 0)"/>
     <use xlink:href="#DejaVuSans-62" transform="translate(394.474609 0)"/>
     <use xlink:href="#DejaVuSans-6c" transform="translate(457.951172 0)"/>
     <use xlink:href="#DejaVuSans-65" transform="translate(485.734375 0)"/>
     <use xlink:href="#DejaVuSans-20" transform="translate(547.257812 0)"/>
     <use xlink:href="#DejaVuSans-28" transform="translate(579.044922 0)"/>
     <use xlink:href="#DejaVuSans-6e" transform="translate(618.058594 0)"/>
     <use xlink:href="#DejaVuSans-3d" transform="translate(681.4375 0)"/>
     <use xlink:href="#DejaVuSans-34" transform="translate(765.226562 0)"/>
     <use xlink:href="#DejaVuSans-29" transform="translate(828.849609 0)"/>
    </g>
   </g>
   <g id="legend_3">
    <g id="line2d_62">
     <path d="M 66.69125 381.56875 
L 74.69125 381.56875 
L 82.69125 381.56875 
" style="fill: none; stroke: #59a14f; stroke-opacity: 0.95; stroke-width: 1.8; stroke-linecap: square"/>
    </g>
    <g id="text_42">
     <!-- Generation Hydro Water Reservoir -->
     <g transform="translate(89.09125 384.36875) scale(0.08 -0.08)">
      <defs>
       <path id="DejaVuSans-79" d="M 2059 -325 
Q 1816 -950 1584 -1140 
Q 1353 -1331 966 -1331 
L 506 -1331 
L 506 -850 
L 844 -850 
Q 1081 -850 1212 -737 
Q 1344 -625 1503 -206 
L 1606 56 
L 191 3500 
L 800 3500 
L 1894 763 
L 2988 3500 
L 3597 3500 
L 2059 -325 
z
" transform="scale(0.015625)"/>
       <path id="DejaVuSans-76" d="M 191 3500 
L 800 3500 
L 1894 563 
L 2988 3500 
L 3597 3500 
L 2284 0 
L 1503 0 
L 191 3500 
z
" transform="scale(0.015625)"/>
      </defs>
      <use xlink:href="#DejaVuSans-47"/>
      <use xlink:href="#DejaVuSans-65" transform="translate(77.490234 0)"/>
      <use xlink:href="#DejaVuSans-6e" transform="translate(139.013672 0)"/>
      <use xlink:href="#DejaVuSans-65" transform="translate(202.392578 0)"/>
      <use xlink:href="#DejaVuSans-72" transform="translate(263.916016 0)"/>
      <use xlink:href="#DejaVuSans-61" transform="translate(305.029297 0)"/>
      <use xlink:href="#DejaVuSans-74" transform="translate(366.308594 0)"/>
      <use xlink:href="#DejaVuSans-69" transform="translate(405.517578 0)"/>
      <use xlink:href="#DejaVuSans-6f" transform="translate(433.300781 0)"/>
      <use xlink:href="#DejaVuSans-6e" transform="translate(494.482422 0)"/>
      <use xlink:href="#DejaVuSans-20" transform="translate(557.861328 0)"/>
      <use xlink:href="#DejaVuSans-48" transform="translate(589.648438 0)"/>
      <use xlink:href="#DejaVuSans-79" transform="translate(664.84375 0)"/>
      <use xlink:href="#DejaVuSans-64" transform="translate(724.023438 0)"/>
      <use xlink:href="#DejaVuSans-72" transform="translate(787.5 0)"/>
      <use xlink:href="#DejaVuSans-6f" transform="translate(826.363281 0)"/>
      <use xlink:href="#DejaVuSans-20" transform="translate(887.544922 0)"/>
      <use xlink:href="#DejaVuSans-57" transform="translate(919.332031 0)"/>
      <use xlink:href="#DejaVuSans-61" transform="translate(1011.833984 0)"/>
      <use xlink:href="#DejaVuSans-74" transform="translate(1073.113281 0)"/>
      <use xlink:href="#DejaVuSans-65" transform="translate(1112.322266 0)"/>
      <use xlink:href="#DejaVuSans-72" transform="translate(1173.845703 0)"/>
      <use xlink:href="#DejaVuSans-20" transform="translate(1214.958984 0)"/>
      <use xlink:href="#DejaVuSans-52" transform="translate(1246.746094 0)"/>
      <use xlink:href="#DejaVuSans-65" transform="translate(1311.728516 0)"/>
      <use xlink:href="#DejaVuSans-73" transform="translate(1373.251953 0)"/>
      <use xlink:href="#DejaVuSans-65" transform="translate(1425.351562 0)"/>
      <use xlink:href="#DejaVuSans-72" transform="translate(1486.875 0)"/>
      <use xlink:href="#DejaVuSans-76" transform="translate(1527.988281 0)"/>
      <use xlink:href="#DejaVuSans-6f" transform="translate(1587.167969 0)"/>
      <use xlink:href="#DejaVuSans-69" transform="translate(1648.349609 0)"/>
      <use xlink:href="#DejaVuSans-72" transform="translate(1676.132812 0)"/>
     </g>
    </g>
    <g id="line2d_63">
     <path d="M 66.69125 393.31125 
L 74.69125 393.31125 
L 82.69125 393.31125 
" style="fill: none; stroke: #8cd17d; stroke-opacity: 0.95; stroke-width: 1.8; stroke-linecap: square"/>
    </g>
    <g id="text_43">
     <!-- Generation Hydro Run Of River And Poundage -->
     <g transform="translate(89.09125 396.11125) scale(0.08 -0.08)">
      <defs>
       <path id="DejaVuSans-66" d="M 2375 4863 
L 2375 4384 
L 1825 4384 
Q 1516 4384 1395 4259 
Q 1275 4134 1275 3809 
L 1275 3500 
L 2222 3500 
L 2222 3053 
L 1275 3053 
L 1275 0 
L 697 0 
L 697 3053 
L 147 3053 
L 147 3500 
L 697 3500 
L 697 3744 
Q 697 4328 969 4595 
Q 1241 4863 1831 4863 
L 2375 4863 
z
" transform="scale(0.015625)"/>
       <path id="DejaVuSans-50" d="M 1259 4147 
L 1259 2394 
L 2053 2394 
Q 2494 2394 2734 2622 
Q 2975 2850 2975 3272 
Q 2975 3691 2734 3919 
Q 2494 4147 2053 4147 
L 1259 4147 
z
M 628 4666 
L 2053 4666 
Q 2838 4666 3239 4311 
Q 3641 3956 3641 3272 
Q 3641 2581 3239 2228 
Q 2838 1875 2053 1875 
L 1259 1875 
L 1259 0 
L 628 0 
L 628 4666 
z
" transform="scale(0.015625)"/>
       <path id="DejaVuSans-67" d="M 2906 1791 
Q 2906 2416 2648 2759 
Q 2391 3103 1925 3103 
Q 1463 3103 1205 2759 
Q 947 2416 947 1791 
Q 947 1169 1205 825 
Q 1463 481 1925 481 
Q 2391 481 2648 825 
Q 2906 1169 2906 1791 
z
M 3481 434 
Q 3481 -459 3084 -895 
Q 2688 -1331 1869 -1331 
Q 1566 -1331 1297 -1286 
Q 1028 -1241 775 -1147 
L 775 -588 
Q 1028 -725 1275 -790 
Q 1522 -856 1778 -856 
Q 2344 -856 2625 -561 
Q 2906 -266 2906 331 
L 2906 616 
Q 2728 306 2450 153 
Q 2172 0 1784 0 
Q 1141 0 747 490 
Q 353 981 353 1791 
Q 353 2603 747 3093 
Q 1141 3584 1784 3584 
Q 2172 3584 2450 3431 
Q 2728 3278 2906 2969 
L 2906 3500 
L 3481 3500 
L 3481 434 
z
" transform="scale(0.015625)"/>
      </defs>
      <use xlink:href="#DejaVuSans-47"/>
      <use xlink:href="#DejaVuSans-65" transform="translate(77.490234 0)"/>
      <use xlink:href="#DejaVuSans-6e" transform="translate(139.013672 0)"/>
      <use xlink:href="#DejaVuSans-65" transform="translate(202.392578 0)"/>
      <use xlink:href="#DejaVuSans-72" transform="translate(263.916016 0)"/>
      <use xlink:href="#DejaVuSans-61" transform="translate(305.029297 0)"/>
      <use xlink:href="#DejaVuSans-74" transform="translate(366.308594 0)"/>
      <use xlink:href="#DejaVuSans-69" transform="translate(405.517578 0)"/>
      <use xlink:href="#DejaVuSans-6f" transform="translate(433.300781 0)"/>
      <use xlink:href="#DejaVuSans-6e" transform="translate(494.482422 0)"/>
      <use xlink:href="#DejaVuSans-20" transform="translate(557.861328 0)"/>
      <use xlink:href="#DejaVuSans-48" transform="translate(589.648438 0)"/>
      <use xlink:href="#DejaVuSans-79" transform="translate(664.84375 0)"/>
      <use xlink:href="#DejaVuSans-64" transform="translate(724.023438 0)"/>
      <use xlink:href="#DejaVuSans-72" transform="translate(787.5 0)"/>
      <use xlink:href="#DejaVuSans-6f" transform="translate(826.363281 0)"/>
      <use xlink:href="#DejaVuSans-20" transform="translate(887.544922 0)"/>
      <use xlink:href="#DejaVuSans-52" transform="translate(919.332031 0)"/>
      <use xlink:href="#DejaVuSans-75" transform="translate(984.314453 0)"/>
      <use xlink:href="#DejaVuSans-6e" transform="translate(1047.693359 0)"/>
      <use xlink:href="#DejaVuSans-20" transform="translate(1111.072266 0)"/>
      <use xlink:href="#DejaVuSans-4f" transform="translate(1142.859375 0)"/>
      <use xlink:href="#DejaVuSans-66" transform="translate(1221.570312 0)"/>
      <use xlink:href="#DejaVuSans-20" transform="translate(1256.775391 0)"/>
      <use xlink:href="#DejaVuSans-52" transform="translate(1288.5625 0)"/>
      <use xlink:href="#DejaVuSans-69" transform="translate(1358.044922 0)"/>
      <use xlink:href="#DejaVuSans-76" transform="translate(1385.828125 0)"/>
      <use xlink:href="#DejaVuSans-65" transform="translate(1445.007812 0)"/>
      <use xlink:href="#DejaVuSans-72" transform="translate(1506.53125 0)"/>
      <use xlink:href="#DejaVuSans-20" transform="translate(1547.644531 0)"/>
      <use xlink:href="#DejaVuSans-41" transform="translate(1579.431641 0)"/>
      <use xlink:href="#DejaVuSans-6e" transform="translate(1647.839844 0)"/>
      <use xlink:href="#DejaVuSans-64" transform="translate(1711.21875 0)"/>
      <use xlink:href="#DejaVuSans-20" transform="translate(1774.695312 0)"/>
      <use xlink:href="#DejaVuSans-50" transform="translate(1806.482422 0)"/>
      <use xlink:href="#DejaVuSans-6f" transform="translate(1863.160156 0)"/>
      <use xlink:href="#DejaVuSans-75" transform="translate(1924.341797 0)"/>
      <use xlink:href="#DejaVuSans-6e" transform="translate(1987.720703 0)"/>
      <use xlink:href="#DejaVuSans-64" transform="translate(2051.099609 0)"/>
      <use xlink:href="#DejaVuSans-61" transform="translate(2114.576172 0)"/>
      <use xlink:href="#DejaVuSans-67" transform="translate(2175.855469 0)"/>
      <use xlink:href="#DejaVuSans-65" transform="translate(2239.332031 0)"/>
     </g>
    </g>
    <g id="line2d_64">
     <path d="M 66.69125 405.05375 
L 74.69125 405.05375 
L 82.69125 405.05375 
" style="fill: none; stroke: #2e7d32; stroke-opacity: 0.95; stroke-width: 1.8; stroke-linecap: square"/>
    </g>
    <g id="text_44">
     <!-- Generation Hydro Pumped Storage Consumption -->
     <g transform="translate(89.09125 407.85375) scale(0.08 -0.08)">
      <use xlink:href="#DejaVuSans-47"/>
      <use xlink:href="#DejaVuSans-65" transform="translate(77.490234 0)"/>
      <use xlink:href="#DejaVuSans-6e" transform="translate(139.013672 0)"/>
      <use xlink:href="#DejaVuSans-65" transform="translate(202.392578 0)"/>
      <use xlink:href="#DejaVuSans-72" transform="translate(263.916016 0)"/>
      <use xlink:href="#DejaVuSans-61" transform="translate(305.029297 0)"/>
      <use xlink:href="#DejaVuSans-74" transform="translate(366.308594 0)"/>
      <use xlink:href="#DejaVuSans-69" transform="translate(405.517578 0)"/>
      <use xlink:href="#DejaVuSans-6f" transform="translate(433.300781 0)"/>
      <use xlink:href="#DejaVuSans-6e" transform="translate(494.482422 0)"/>
      <use xlink:href="#DejaVuSans-20" transform="translate(557.861328 0)"/>
      <use xlink:href="#DejaVuSans-48" transform="translate(589.648438 0)"/>
      <use xlink:href="#DejaVuSans-79" transform="translate(664.84375 0)"/>
      <use xlink:href="#DejaVuSans-64" transform="translate(724.023438 0)"/>
      <use xlink:href="#DejaVuSans-72" transform="translate(787.5 0)"/>
      <use xlink:href="#DejaVuSans-6f" transform="translate(826.363281 0)"/>
      <use xlink:href="#DejaVuSans-20" transform="translate(887.544922 0)"/>
      <use xlink:href="#DejaVuSans-50" transform="translate(919.332031 0)"/>
      <use xlink:href="#DejaVuSans-75" transform="translate(977.884766 0)"/>
      <use xlink:href="#DejaVuSans-6d" transform="translate(1041.263672 0)"/>
      <use xlink:href="#DejaVuSans-70" transform="translate(1138.675781 0)"/>
      <use xlink:href="#DejaVuSans-65" transform="translate(1202.152344 0)"/>
      <use xlink:href="#DejaVuSans-64" transform="translate(1263.675781 0)"/>
      <use xlink:href="#DejaVuSans-20" transform="translate(1327.152344 0)"/>
      <use xlink:href="#DejaVuSans-53" transform="translate(1358.939453 0)"/>
      <use xlink:href="#DejaVuSans-74" transform="translate(1422.416016 0)"/>
      <use xlink:href="#DejaVuSans-6f" transform="translate(1461.625 0)"/>
      <use xlink:href="#DejaVuSans-72" transform="translate(1522.806641 0)"/>
      <use xlink:href="#DejaVuSans-61" transform="translate(1563.919922 0)"/>
      <use xlink:href="#DejaVuSans-67" transform="translate(1625.199219 0)"/>
      <use xlink:href="#DejaVuSans-65" transform="translate(1688.675781 0)"/>
      <use xlink:href="#DejaVuSans-20" transform="translate(1750.199219 0)"/>
      <use xlink:href="#DejaVuSans-43" transform="translate(1781.986328 0)"/>
      <use xlink:href="#DejaVuSans-6f" transform="translate(1851.810547 0)"/>
      <use xlink:href="#DejaVuSans-6e" transform="translate(1912.992188 0)"/>
      <use xlink:href="#DejaVuSans-73" transform="translate(1976.371094 0)"/>
      <use xlink:href="#DejaVuSans-75" transform="translate(2028.470703 0)"/>
      <use xlink:href="#DejaVuSans-6d" transform="translate(2091.849609 0)"/>
      <use xlink:href="#DejaVuSans-70" transform="translate(2189.261719 0)"/>
      <use xlink:href="#DejaVuSans-74" transform="translate(2252.738281 0)"/>
      <use xlink:href="#DejaVuSans-69" transform="translate(2291.947266 0)"/>
      <use xlink:href="#DejaVuSans-6f" transform="translate(2319.730469 0)"/>
      <use xlink:href="#DejaVuSans-6e" transform="translate(2380.912109 0)"/>
     </g>
    </g>
    <g id="line2d_65">
     <path d="M 66.69125 416.79625 
L 74.69125 416.79625 
L 82.69125 416.79625 
" style="fill: none; stroke: #59a14f; stroke-opacity: 0.95; stroke-width: 1.8; stroke-linecap: square"/>
    </g>
    <g id="text_45">
     <!-- Generation Other Renewable -->
     <g transform="translate(89.09125 419.59625) scale(0.08 -0.08)">
      <use xlink:href="#DejaVuSans-47"/>
      <use xlink:href="#DejaVuSans-65" transform="translate(77.490234 0)"/>
      <use xlink:href="#DejaVuSans-6e" transform="translate(139.013672 0)"/>
      <use xlink:href="#DejaVuSans-65" transform="translate(202.392578 0)"/>
      <use xlink:href="#DejaVuSans-72" transform="translate(263.916016 0)"/>
      <use xlink:href="#DejaVuSans-61" transform="translate(305.029297 0)"/>
      <use xlink:href="#DejaVuSans-74" transform="translate(366.308594 0)"/>
      <use xlink:href="#DejaVuSans-69" transform="translate(405.517578 0)"/>
      <use xlink:href="#DejaVuSans-6f" transform="translate(433.300781 0)"/>
      <use xlink:href="#DejaVuSans-6e" transform="translate(494.482422 0)"/>
      <use xlink:href="#DejaVuSans-20" transform="translate(557.861328 0)"/>
      <use xlink:href="#DejaVuSans-4f" transform="translate(589.648438 0)"/>
      <use xlink:href="#DejaVuSans-74" transform="translate(668.359375 0)"/>
      <use xlink:href="#DejaVuSans-68" transform="translate(707.568359 0)"/>
      <use xlink:href="#DejaVuSans-65" transform="translate(770.947266 0)"/>
      <use xlink:href="#DejaVuSans-72" transform="translate(832.470703 0)"/>
      <use xlink:href="#DejaVuSans-20" transform="translate(873.583984 0)"/>
      <use xlink:href="#DejaVuSans-52" transform="translate(905.371094 0)"/>
      <use xlink:href="#DejaVuSans-65" transform="translate(970.353516 0)"/>
      <use xlink:href="#DejaVuSans-6e" transform="translate(1031.876953 0)"/>
      <use xlink:href="#DejaVuSans-65" transform="translate(1095.255859 0)"/>
      <use xlink:href="#DejaVuSans-77" transform="translate(1156.779297 0)"/>
      <use xlink:href="#DejaVuSans-61" transform="translate(1238.566406 0)"/>
      <use xlink:href="#DejaVuSans-62" transform="translate(1299.845703 0)"/>
      <use xlink:href="#DejaVuSans-6c" transform="translate(1363.322266 0)"/>
      <use xlink:href="#DejaVuSans-65" transform="translate(1391.105469 0)"/>
     </g>
    </g>
   </g>
  </g>
  <g id="axes_4"/>
  <g id="text_46">
   <!-- IG — OBSERVED (version=E1) · sample 0 -->
   <g transform="translate(212.253906 17.837812) scale(0.14 -0.14)">
    <defs>
     <path id="DejaVuSans-2014" d="M 313 1978 
L 6088 1978 
L 6088 1528 
L 313 1528 
L 313 1978 
z
" transform="scale(0.015625)"/>
     <path id="DejaVuSans-42" d="M 1259 2228 
L 1259 519 
L 2272 519 
Q 2781 519 3026 730 
Q 3272 941 3272 1375 
Q 3272 1813 3026 2020 
Q 2781 2228 2272 2228 
L 1259 2228 
z
M 1259 4147 
L 1259 2741 
L 2194 2741 
Q 2656 2741 2882 2914 
Q 3109 3088 3109 3444 
Q 3109 3797 2882 3972 
Q 2656 4147 2194 4147 
L 1259 4147 
z
M 628 4666 
L 2241 4666 
Q 2963 4666 3353 4366 
Q 3744 4066 3744 3513 
Q 3744 3084 3544 2831 
Q 3344 2578 2956 2516 
Q 3422 2416 3680 2098 
Q 3938 1781 3938 1306 
Q 3938 681 3513 340 
Q 3088 0 2303 0 
L 628 0 
L 628 4666 
z
" transform="scale(0.015625)"/>
     <path id="DejaVuSans-45" d="M 628 4666 
L 3578 4666 
L 3578 4134 
L 1259 4134 
L 1259 2753 
L 3481 2753 
L 3481 2222 
L 1259 2222 
L 1259 531 
L 3634 531 
L 3634 0 
L 628 0 
L 628 4666 
z
" transform="scale(0.015625)"/>
     <path id="DejaVuSans-56" d="M 1831 0 
L 50 4666 
L 709 4666 
L 2188 738 
L 3669 4666 
L 4325 4666 
L 2547 0 
L 1831 0 
z
" transform="scale(0.015625)"/>
     <path id="DejaVuSans-44" d="M 1259 4147 
L 1259 519 
L 2022 519 
Q 2988 519 3436 956 
Q 3884 1394 3884 2338 
Q 3884 3275 3436 3711 
Q 2988 4147 2022 4147 
L 1259 4147 
z
M 628 4666 
L 1925 4666 
Q 3281 4666 3915 4102 
Q 4550 3538 4550 2338 
Q 4550 1131 3912 565 
Q 3275 0 1925 0 
L 628 0 
L 628 4666 
z
" transform="scale(0.015625)"/>
     <path id="DejaVuSans-b7" d="M 684 2619 
L 1344 2619 
L 1344 1825 
L 684 1825 
L 684 2619 
z
" transform="scale(0.015625)"/>
    </defs>
    <use xlink:href="#DejaVuSans-49"/>
    <use xlink:href="#DejaVuSans-47" transform="translate(29.492188 0)"/>
    <use xlink:href="#DejaVuSans-20" transform="translate(106.982422 0)"/>
    <use xlink:href="#DejaVuSans-2014" transform="translate(138.769531 0)"/>
    <use xlink:href="#DejaVuSans-20" transform="translate(238.769531 0)"/>
    <use xlink:href="#DejaVuSans-4f" transform="translate(270.556641 0)"/>
    <use xlink:href="#DejaVuSans-42" transform="translate(349.267578 0)"/>
    <use xlink:href="#DejaVuSans-53" transform="translate(416.121094 0)"/>
    <use xlink:href="#DejaVuSans-45" transform="translate(479.597656 0)"/>
    <use xlink:href="#DejaVuSans-52" transform="translate(542.78125 0)"/>
    <use xlink:href="#DejaVuSans-56" transform="translate(606.763672 0)"/>
    <use xlink:href="#DejaVuSans-45" transform="translate(675.171875 0)"/>
    <use xlink:href="#DejaVuSans-44" transform="translate(738.355469 0)"/>
    <use xlink:href="#DejaVuSans-20" transform="translate(815.357422 0)"/>
    <use xlink:href="#DejaVuSans-28" transform="translate(847.144531 0)"/>
    <use xlink:href="#DejaVuSans-76" transform="translate(886.158203 0)"/>
    <use xlink:href="#DejaVuSans-65" transform="translate(945.337891 0)"/>
    <use xlink:href="#DejaVuSans-72" transform="translate(1006.861328 0)"/>
    <use xlink:href="#DejaVuSans-73" transform="translate(1047.974609 0)"/>
    <use xlink:href="#DejaVuSans-69" transform="translate(1100.074219 0)"/>
    <use xlink:href="#DejaVuSans-6f" transform="translate(1127.857422 0)"/>
    <use xlink:href="#DejaVuSans-6e" transform="translate(1189.039062 0)"/>
    <use xlink:href="#DejaVuSans-3d" transform="translate(1252.417969 0)"/>
    <use xlink:href="#DejaVuSans-45" transform="translate(1336.207031 0)"/>
    <use xlink:href="#DejaVuSans-31" transform="translate(1399.390625 0)"/>
    <use xlink:href="#DejaVuSans-29" transform="translate(1463.013672 0)"/>
    <use xlink:href="#DejaVuSans-20" transform="translate(1502.027344 0)"/>
    <use xlink:href="#DejaVuSans-b7" transform="translate(1533.814453 0)"/>
    <use xlink:href="#DejaVuSans-20" transform="translate(1565.601562 0)"/>
    <use xlink:href="#DejaVuSans-73" transform="translate(1597.388672 0)"/>
    <use xlink:href="#DejaVuSans-61" transform="translate(1649.488281 0)"/>
    <use xlink:href="#DejaVuSans-6d" transform="translate(1710.767578 0)"/>
    <use xlink:href="#DejaVuSans-70" transform="translate(1808.179688 0)"/>
    <use xlink:href="#DejaVuSans-6c" transform="translate(1871.65625 0)"/>
    <use xlink:href="#DejaVuSans-65" transform="translate(1899.439453 0)"/>
    <use xlink:href="#DejaVuSans-20" transform="translate(1960.962891 0)"/>
    <use xlink:href="#DejaVuSans-30" transform="translate(1992.75 0)"/>
   </g>
  </g>
 </g>
 <defs>
  <clipPath id="p012c5579fb">
   <rect x="59.49125" y="70.08" width="289.105" height="257.27"/>
  </clipPath>
  <clipPath id="p8cd05e6003">
   <rect x="416.29625" y="70.08" width="289.105" height="257.27"/>
  </clipPath>
  <clipPath id="p0828cef8d7">
   <rect x="59.49125" y="371.09" width="289.105" height="257.27"/>
  </clipPath>
 </defs>
</svg>
