<?xml version="1.0" encoding="utf-8" standalone="no"?>
<!DOCTYPE svg PUBLIC "-//W3C//DTD SVG 1.1//EN"
  "http://www.w3.org/Graphics/SVG/1.1/DTD/svg11.dtd">
<svg xmlns:xlink="http://www.w3.org/1999/xlink" width="712.60125pt" height="664.948437pt" viewBox="0 0 712.60125 664.948437" xmlns="http://www.w3.org/2000/svg" version="1.1">
 <metadata>
  <rdf:RDF xmlns:dc="http://purl.org/dc/elements/1.1/" xmlns:cc="http://creativecommons.org/ns#" xmlns:rdf="http://www.w3.org/1999/02/22-rdf-syntax-ns#">
   <cc:Work>
    <dc:type rdf:resource="http://purl.org/dc/dcmitype/StillImage"/>
    <dc:date>2025-08-31T21:28:46.060191</dc:date>
    <dc:format>image/svg+xml</dc:format>
    <dc:creator>
     <cc:Agent>
      <dc:title>Matplotlib v3.10.0, https://matplotlib.org/</dc:title>
     </cc:Agent>
    </dc:creator>
   </cc:Work>
  </rdf:RDF>
 </metadata>
 <defs>
  <style type="text/css">*{stroke-linejoin: round; stroke-linecap: butt}</style>
 </defs>
 <g id="figure_1">
  <g id="patch_1">
   <path d="M 0 664.948437 
L 712.60125 664.948437 
L 712.60125 0 
L 0 0 
z
" style="fill: #ffffff"/>
  </g>
  <g id="axes_1">
   <g id="patch_2">
    <path d="M 59.49125 327.35 
L 350.80125 327.35 
L 350.80125 70.08 
L 59.49125 70.08 
z
" style="fill: #ffffff"/>
   </g>
   <g id="matplotlib.axis_1">
    <g id="xtick_1">
     <g id="line2d_1">
      <defs>
       <path id="mf6f79dd405" d="M 0 0 
L 0 3.5 
" style="stroke: #000000; stroke-width: 0.8"/>
      </defs>
      <g>
       <use xlink:href="#mf6f79dd405" x="72.732614" y="327.35" style="stroke: #000000; stroke-width: 0.8"/>
      </g>
     </g>
    </g>
    <g id="xtick_2">
     <g id="line2d_2">
      <g>
       <use xlink:href="#mf6f79dd405" x="107.395869" y="327.35" style="stroke: #000000; stroke-width: 0.8"/>
      </g>
     </g>
    </g>
    <g id="xtick_3">
     <g id="line2d_3">
      <g>
       <use xlink:href="#mf6f79dd405" x="142.059125" y="327.35" style="stroke: #000000; stroke-width: 0.8"/>
      </g>
     </g>
    </g>
    <g id="xtick_4">
     <g id="line2d_4">
      <g>
       <use xlink:href="#mf6f79dd405" x="176.72238" y="327.35" style="stroke: #000000; stroke-width: 0.8"/>
      </g>
     </g>
    </g>
    <g id="xtick_5">
     <g id="line2d_5">
      <g>
       <use xlink:href="#mf6f79dd405" x="211.385636" y="327.35" style="stroke: #000000; stroke-width: 0.8"/>
      </g>
     </g>
    </g>
    <g id="xtick_6">
     <g id="line2d_6">
      <g>
       <use xlink:href="#mf6f79dd405" x="246.048892" y="327.35" style="stroke: #000000; stroke-width: 0.8"/>
      </g>
     </g>
    </g>
    <g id="xtick_7">
     <g id="line2d_7">
      <g>
       <use xlink:href="#mf6f79dd405" x="280.712147" y="327.35" style="stroke: #000000; stroke-width: 0.8"/>
      </g>
     </g>
    </g>
    <g id="xtick_8">
     <g id="line2d_8">
      <g>
       <use xlink:href="#mf6f79dd405" x="315.375403" y="327.35" style="stroke: #000000; stroke-width: 0.8"/>
      </g>
     </g>
    </g>
    <g id="xtick_9">
     <g id="line2d_9">
      <g>
       <use xlink:href="#mf6f79dd405" x="350.038658" y="327.35" style="stroke: #000000; stroke-width: 0.8"/>
      </g>
     </g>
    </g>
    <g id="text_1">
     <!-- Time Steps -->
     <g transform="translate(174.5525 343.208281) scale(0.11 -0.11)">
      <defs>
       <path id="DejaVuSans-54" d="M -19 4666 
L 3928 4666 
L 3928 4134 
L 2272 4134 
L 2272 0 
L 1638 0 
L 1638 4134 
L -19 4134 
L -19 4666 
z
" transform="scale(0.015625)"/>
       <path id="DejaVuSans-69" d="M 603 3500 
L 1178 3500 
L 1178 0 
L 603 0 
L 603 3500 
z
M 603 4863 
L 1178 4863 
L 1178 4134 
L 603 4134 
L 603 4863 
z
" transform="scale(0.015625)"/>
       <path id="DejaVuSans-6d" d="M 3328 2828 
Q 3544 3216 3844 3400 
Q 4144 3584 4550 3584 
Q 5097 3584 5394 3201 
Q 5691 2819 5691 2113 
L 5691 0 
L 5113 0 
L 5113 2094 
Q 5113 2597 4934 2840 
Q 4756 3084 4391 3084 
Q 3944 3084 3684 2787 
Q 3425 2491 3425 1978 
L 3425 0 
L 2847 0 
L 2847 2094 
Q 2847 2600 2669 2842 
Q 2491 3084 2119 3084 
Q 1678 3084 1418 2786 
Q 1159 2488 1159 1978 
L 1159 0 
L 581 0 
L 581 3500 
L 1159 3500 
L 1159 2956 
Q 1356 3278 1631 3431 
Q 1906 3584 2284 3584 
Q 2666 3584 2933 3390 
Q 3200 3197 3328 2828 
z
" transform="scale(0.015625)"/>
       <path id="DejaVuSans-65" d="M 3597 1894 
L 3597 1613 
L 953 1613 
Q 991 1019 1311 708 
Q 1631 397 2203 397 
Q 2534 397 2845 478 
Q 3156 559 3463 722 
L 3463 178 
Q 3153 47 2828 -22 
Q 2503 -91 2169 -91 
Q 1331 -91 842 396 
Q 353 884 353 1716 
Q 353 2575 817 3079 
Q 1281 3584 2069 3584 
Q 2775 3584 3186 3129 
Q 3597 2675 3597 1894 
z
M 3022 2063 
Q 3016 2534 2758 2815 
Q 2500 3097 2075 3097 
Q 1594 3097 1305 2825 
Q 1016 2553 972 2059 
L 3022 2063 
z
" transform="scale(0.015625)"/>
       <path id="DejaVuSans-20" transform="scale(0.015625)"/>
       <path id="DejaVuSans-53" d="M 3425 4513 
L 3425 3897 
Q 3066 4069 2747 4153 
Q 2428 4238 2131 4238 
Q 1616 4238 1336 4038 
Q 1056 3838 1056 3469 
Q 1056 3159 1242 3001 
Q 1428 2844 1947 2747 
L 2328 2669 
Q 3034 2534 3370 2195 
Q 3706 1856 3706 1288 
Q 3706 609 3251 259 
Q 2797 -91 1919 -91 
Q 1588 -91 1214 -16 
Q 841 59 441 206 
L 441 856 
Q 825 641 1194 531 
Q 1563 422 1919 422 
Q 2459 422 2753 634 
Q 3047 847 3047 1241 
Q 3047 1584 2836 1778 
Q 2625 1972 2144 2069 
L 1759 2144 
Q 1053 2284 737 2584 
Q 422 2884 422 3419 
Q 422 4038 858 4394 
Q 1294 4750 2059 4750 
Q 2388 4750 2728 4690 
Q 3069 4631 3425 4513 
z
" transform="scale(0.015625)"/>
       <path id="DejaVuSans-74" d="M 1172 4494 
L 1172 3500 
L 2356 3500 
L 2356 3053 
L 1172 3053 
L 1172 1153 
Q 1172 725 1289 603 
Q 1406 481 1766 481 
L 2356 481 
L 2356 0 
L 1766 0 
Q 1100 0 847 248 
Q 594 497 594 1153 
L 594 3053 
L 172 3053 
L 172 3500 
L 594 3500 
L 594 4494 
L 1172 4494 
z
" transform="scale(0.015625)"/>
       <path id="DejaVuSans-70" d="M 1159 525 
L 1159 -1331 
L 581 -1331 
L 581 3500 
L 1159 3500 
L 1159 2969 
Q 1341 3281 1617 3432 
Q 1894 3584 2278 3584 
Q 2916 3584 3314 3078 
Q 3713 2572 3713 1747 
Q 3713 922 3314 415 
Q 2916 -91 2278 -91 
Q 1894 -91 1617 61 
Q 1341 213 1159 525 
z
M 3116 1747 
Q 3116 2381 2855 2742 
Q 2594 3103 2138 3103 
Q 1681 3103 1420 2742 
Q 1159 2381 1159 1747 
Q 1159 1113 1420 752 
Q 1681 391 2138 391 
Q 2594 391 2855 752 
Q 3116 1113 3116 1747 
z
" transform="scale(0.015625)"/>
       <path id="DejaVuSans-73" d="M 2834 3397 
L 2834 2853 
Q 2591 2978 2328 3040 
Q 2066 3103 1784 3103 
Q 1356 3103 1142 2972 
Q 928 2841 928 2578 
Q 928 2378 1081 2264 
Q 1234 2150 1697 2047 
L 1894 2003 
Q 2506 1872 2764 1633 
Q 3022 1394 3022 966 
Q 3022 478 2636 193 
Q 2250 -91 1575 -91 
Q 1294 -91 989 -36 
Q 684 19 347 128 
L 347 722 
Q 666 556 975 473 
Q 1284 391 1588 391 
Q 1994 391 2212 530 
Q 2431 669 2431 922 
Q 2431 1156 2273 1281 
Q 2116 1406 1581 1522 
L 1381 1569 
Q 847 1681 609 1914 
Q 372 2147 372 2553 
Q 372 3047 722 3315 
Q 1072 3584 1716 3584 
Q 2034 3584 2315 3537 
Q 2597 3491 2834 3397 
z
" transform="scale(0.015625)"/>
      </defs>
      <use xlink:href="#DejaVuSans-54"/>
      <use xlink:href="#DejaVuSans-69" transform="translate(57.958984 0)"/>
      <use xlink:href="#DejaVuSans-6d" transform="translate(85.742188 0)"/>
      <use xlink:href="#DejaVuSans-65" transform="translate(183.154297 0)"/>
      <use xlink:href="#DejaVuSans-20" transform="translate(244.677734 0)"/>
      <use xlink:href="#DejaVuSans-53" transform="translate(276.464844 0)"/>
      <use xlink:href="#DejaVuSans-74" transform="translate(339.941406 0)"/>
      <use xlink:href="#DejaVuSans-65" transform="translate(379.150391 0)"/>
      <use xlink:href="#DejaVuSans-70" transform="translate(440.673828 0)"/>
      <use xlink:href="#DejaVuSans-73" transform="translate(504.150391 0)"/>
     </g>
    </g>
   </g>
   <g id="matplotlib.axis_2">
    <g id="ytick_1">
     <g id="line2d_10">
      <defs>
       <path id="mb21ba33b74" d="M 0 0 
L -3.5 0 
" style="stroke: #000000; stroke-width: 0.8"/>
      </defs>
      <g>
       <use xlink:href="#mb21ba33b74" x="59.49125" y="300.703615" style="stroke: #000000; stroke-width: 0.8"/>
      </g>
     </g>
     <g id="text_2">
      <!-- −0.08 -->
      <g transform="translate(21.845938 304.502834) scale(0.1 -0.1)">
       <defs>
        <path id="DejaVuSans-2212" d="M 678 2272 
L 4684 2272 
L 4684 1741 
L 678 1741 
L 678 2272 
z
" transform="scale(0.015625)"/>
        <path id="DejaVuSans-30" d="M 2034 4250 
Q 1547 4250 1301 3770 
Q 1056 3291 1056 2328 
Q 1056 1369 1301 889 
Q 1547 409 2034 409 
Q 2525 409 2770 889 
Q 3016 1369 3016 2328 
Q 3016 3291 2770 3770 
Q 2525 4250 2034 4250 
z
M 2034 4750 
Q 2819 4750 3233 4129 
Q 3647 3509 3647 2328 
Q 3647 1150 3233 529 
Q 2819 -91 2034 -91 
Q 1250 -91 836 529 
Q 422 1150 422 2328 
Q 422 3509 836 4129 
Q 1250 4750 2034 4750 
z
" transform="scale(0.015625)"/>
        <path id="DejaVuSans-2e" d="M 684 794 
L 1344 794 
L 1344 0 
L 684 0 
L 684 794 
z
" transform="scale(0.015625)"/>
        <path id="DejaVuSans-38" d="M 2034 2216 
Q 1584 2216 1326 1975 
Q 1069 1734 1069 1313 
Q 1069 891 1326 650 
Q 1584 409 2034 409 
Q 2484 409 2743 651 
Q 3003 894 3003 1313 
Q 3003 1734 2745 1975 
Q 2488 2216 2034 2216 
z
M 1403 2484 
Q 997 2584 770 2862 
Q 544 3141 544 3541 
Q 544 4100 942 4425 
Q 1341 4750 2034 4750 
Q 2731 4750 3128 4425 
Q 3525 4100 3525 3541 
Q 3525 3141 3298 2862 
Q 3072 2584 2669 2484 
Q 3125 2378 3379 2068 
Q 3634 1759 3634 1313 
Q 3634 634 3220 271 
Q 2806 -91 2034 -91 
Q 1263 -91 848 271 
Q 434 634 434 1313 
Q 434 1759 690 2068 
Q 947 2378 1403 2484 
z
M 1172 3481 
Q 1172 3119 1398 2916 
Q 1625 2713 2034 2713 
Q 2441 2713 2670 2916 
Q 2900 3119 2900 3481 
Q 2900 3844 2670 4047 
Q 2441 4250 2034 4250 
Q 1625 4250 1398 4047 
Q 1172 3844 1172 3481 
z
" transform="scale(0.015625)"/>
       </defs>
       <use xlink:href="#DejaVuSans-2212"/>
       <use xlink:href="#DejaVuSans-30" transform="translate(83.789062 0)"/>
       <use xlink:href="#DejaVuSans-2e" transform="translate(147.412109 0)"/>
       <use xlink:href="#DejaVuSans-30" transform="translate(179.199219 0)"/>
       <use xlink:href="#DejaVuSans-38" transform="translate(242.822266 0)"/>
      </g>
     </g>
    </g>
    <g id="ytick_2">
     <g id="line2d_11">
      <g>
       <use xlink:href="#mb21ba33b74" x="59.49125" y="270.141913" style="stroke: #000000; stroke-width: 0.8"/>
      </g>
     </g>
     <g id="text_3">
      <!-- −0.06 -->
      <g transform="translate(21.845938 273.941131) scale(0.1 -0.1)">
       <defs>
        <path id="DejaVuSans-36" d="M 2113 2584 
Q 1688 2584 1439 2293 
Q 1191 2003 1191 1497 
Q 1191 994 1439 701 
Q 1688 409 2113 409 
Q 2538 409 2786 701 
Q 3034 994 3034 1497 
Q 3034 2003 2786 2293 
Q 2538 2584 2113 2584 
z
M 3366 4563 
L 3366 3988 
Q 3128 4100 2886 4159 
Q 2644 4219 2406 4219 
Q 1781 4219 1451 3797 
Q 1122 3375 1075 2522 
Q 1259 2794 1537 2939 
Q 1816 3084 2150 3084 
Q 2853 3084 3261 2657 
Q 3669 2231 3669 1497 
Q 3669 778 3244 343 
Q 2819 -91 2113 -91 
Q 1303 -91 875 529 
Q 447 1150 447 2328 
Q 447 3434 972 4092 
Q 1497 4750 2381 4750 
Q 2619 4750 2861 4703 
Q 3103 4656 3366 4563 
z
" transform="scale(0.015625)"/>
       </defs>
       <use xlink:href="#DejaVuSans-2212"/>
       <use xlink:href="#DejaVuSans-30" transform="translate(83.789062 0)"/>
       <use xlink:href="#DejaVuSans-2e" transform="translate(147.412109 0)"/>
       <use xlink:href="#DejaVuSans-30" transform="translate(179.199219 0)"/>
       <use xlink:href="#DejaVuSans-36" transform="translate(242.822266 0)"/>
      </g>
     </g>
    </g>
    <g id="ytick_3">
     <g id="line2d_12">
      <g>
       <use xlink:href="#mb21ba33b74" x="59.49125" y="239.58021" style="stroke: #000000; stroke-width: 0.8"/>
      </g>
     </g>
     <g id="text_4">
      <!-- −0.04 -->
      <g transform="translate(21.845938 243.379429) scale(0.1 -0.1)">
       <defs>
        <path id="DejaVuSans-34" d="M 2419 4116 
L 825 1625 
L 2419 1625 
L 2419 4116 
z
M 2253 4666 
L 3047 4666 
L 3047 1625 
L 3713 1625 
L 3713 1100 
L 3047 1100 
L 3047 0 
L 2419 0 
L 2419 1100 
L 313 1100 
L 313 1709 
L 2253 4666 
z
" transform="scale(0.015625)"/>
       </defs>
       <use xlink:href="#DejaVuSans-2212"/>
       <use xlink:href="#DejaVuSans-30" transform="translate(83.789062 0)"/>
       <use xlink:href="#DejaVuSans-2e" transform="translate(147.412109 0)"/>
       <use xlink:href="#DejaVuSans-30" transform="translate(179.199219 0)"/>
       <use xlink:href="#DejaVuSans-34" transform="translate(242.822266 0)"/>
      </g>
     </g>
    </g>
    <g id="ytick_4">
     <g id="line2d_13">
      <g>
       <use xlink:href="#mb21ba33b74" x="59.49125" y="209.018507" style="stroke: #000000; stroke-width: 0.8"/>
      </g>
     </g>
     <g id="text_5">
      <!-- −0.02 -->
      <g transform="translate(21.845938 212.817726) scale(0.1 -0.1)">
       <defs>
        <path id="DejaVuSans-32" d="M 1228 531 
L 3431 531 
L 3431 0 
L 469 0 
L 469 531 
Q 828 903 1448 1529 
Q 2069 2156 2228 2338 
Q 2531 2678 2651 2914 
Q 2772 3150 2772 3378 
Q 2772 3750 2511 3984 
Q 2250 4219 1831 4219 
Q 1534 4219 1204 4116 
Q 875 4013 500 3803 
L 500 4441 
Q 881 4594 1212 4672 
Q 1544 4750 1819 4750 
Q 2544 4750 2975 4387 
Q 3406 4025 3406 3419 
Q 3406 3131 3298 2873 
Q 3191 2616 2906 2266 
Q 2828 2175 2409 1742 
Q 1991 1309 1228 531 
z
" transform="scale(0.015625)"/>
       </defs>
       <use xlink:href="#DejaVuSans-2212"/>
       <use xlink:href="#DejaVuSans-30" transform="translate(83.789062 0)"/>
       <use xlink:href="#DejaVuSans-2e" transform="translate(147.412109 0)"/>
       <use xlink:href="#DejaVuSans-30" transform="translate(179.199219 0)"/>
       <use xlink:href="#DejaVuSans-32" transform="translate(242.822266 0)"/>
      </g>
     </g>
    </g>
    <g id="ytick_5">
     <g id="line2d_14">
      <g>
       <use xlink:href="#mb21ba33b74" x="59.49125" y="178.456804" style="stroke: #000000; stroke-width: 0.8"/>
      </g>
     </g>
     <g id="text_6">
      <!-- 0.00 -->
      <g transform="translate(30.225625 182.256023) scale(0.1 -0.1)">
       <use xlink:href="#DejaVuSans-30"/>
       <use xlink:href="#DejaVuSans-2e" transform="translate(63.623047 0)"/>
       <use xlink:href="#DejaVuSans-30" transform="translate(95.410156 0)"/>
       <use xlink:href="#DejaVuSans-30" transform="translate(159.033203 0)"/>
      </g>
     </g>
    </g>
    <g id="ytick_6">
     <g id="line2d_15">
      <g>
       <use xlink:href="#mb21ba33b74" x="59.49125" y="147.895102" style="stroke: #000000; stroke-width: 0.8"/>
      </g>
     </g>
     <g id="text_7">
      <!-- 0.02 -->
      <g transform="translate(30.225625 151.69432) scale(0.1 -0.1)">
       <use xlink:href="#DejaVuSans-30"/>
       <use xlink:href="#DejaVuSans-2e" transform="translate(63.623047 0)"/>
       <use xlink:href="#DejaVuSans-30" transform="translate(95.410156 0)"/>
       <use xlink:href="#DejaVuSans-32" transform="translate(159.033203 0)"/>
      </g>
     </g>
    </g>
    <g id="ytick_7">
     <g id="line2d_16">
      <g>
       <use xlink:href="#mb21ba33b74" x="59.49125" y="117.333399" style="stroke: #000000; stroke-width: 0.8"/>
      </g>
     </g>
     <g id="text_8">
      <!-- 0.04 -->
      <g transform="translate(30.225625 121.132618) scale(0.1 -0.1)">
       <use xlink:href="#DejaVuSans-30"/>
       <use xlink:href="#DejaVuSans-2e" transform="translate(63.623047 0)"/>
       <use xlink:href="#DejaVuSans-30" transform="translate(95.410156 0)"/>
       <use xlink:href="#DejaVuSans-34" transform="translate(159.033203 0)"/>
      </g>
     </g>
    </g>
    <g id="ytick_8">
     <g id="line2d_17">
      <g>
       <use xlink:href="#mb21ba33b74" x="59.49125" y="86.771696" style="stroke: #000000; stroke-width: 0.8"/>
      </g>
     </g>
     <g id="text_9">
      <!-- 0.06 -->
      <g transform="translate(30.225625 90.570915) scale(0.1 -0.1)">
       <use xlink:href="#DejaVuSans-30"/>
       <use xlink:href="#DejaVuSans-2e" transform="translate(63.623047 0)"/>
       <use xlink:href="#DejaVuSans-30" transform="translate(95.410156 0)"/>
       <use xlink:href="#DejaVuSans-36" transform="translate(159.033203 0)"/>
      </g>
     </g>
    </g>
    <g id="text_10">
     <!-- Attribution (IG) -->
     <g transform="translate(15.558281 239.918594) rotate(-90) scale(0.11 -0.11)">
      <defs>
       <path id="DejaVuSans-41" d="M 2188 4044 
L 1331 1722 
L 3047 1722 
L 2188 4044 
z
M 1831 4666 
L 2547 4666 
L 4325 0 
L 3669 0 
L 3244 1197 
L 1141 1197 
L 716 0 
L 50 0 
L 1831 4666 
z
" transform="scale(0.015625)"/>
       <path id="DejaVuSans-72" d="M 2631 2963 
Q 2534 3019 2420 3045 
Q 2306 3072 2169 3072 
Q 1681 3072 1420 2755 
Q 1159 2438 1159 1844 
L 1159 0 
L 581 0 
L 581 3500 
L 1159 3500 
L 1159 2956 
Q 1341 3275 1631 3429 
Q 1922 3584 2338 3584 
Q 2397 3584 2469 3576 
Q 2541 3569 2628 3553 
L 2631 2963 
z
" transform="scale(0.015625)"/>
       <path id="DejaVuSans-62" d="M 3116 1747 
Q 3116 2381 2855 2742 
Q 2594 3103 2138 3103 
Q 1681 3103 1420 2742 
Q 1159 2381 1159 1747 
Q 1159 1113 1420 752 
Q 1681 391 2138 391 
Q 2594 391 2855 752 
Q 3116 1113 3116 1747 
z
M 1159 2969 
Q 1341 3281 1617 3432 
Q 1894 3584 2278 3584 
Q 2916 3584 3314 3078 
Q 3713 2572 3713 1747 
Q 3713 922 3314 415 
Q 2916 -91 2278 -91 
Q 1894 -91 1617 61 
Q 1341 213 1159 525 
L 1159 0 
L 581 0 
L 581 4863 
L 1159 4863 
L 1159 2969 
z
" transform="scale(0.015625)"/>
       <path id="DejaVuSans-75" d="M 544 1381 
L 544 3500 
L 1119 3500 
L 1119 1403 
Q 1119 906 1312 657 
Q 1506 409 1894 409 
Q 2359 409 2629 706 
Q 2900 1003 2900 1516 
L 2900 3500 
L 3475 3500 
L 3475 0 
L 2900 0 
L 2900 538 
Q 2691 219 2414 64 
Q 2138 -91 1772 -91 
Q 1169 -91 856 284 
Q 544 659 544 1381 
z
M 1991 3584 
L 1991 3584 
z
" transform="scale(0.015625)"/>
       <path id="DejaVuSans-6f" d="M 1959 3097 
Q 1497 3097 1228 2736 
Q 959 2375 959 1747 
Q 959 1119 1226 758 
Q 1494 397 1959 397 
Q 2419 397 2687 759 
Q 2956 1122 2956 1747 
Q 2956 2369 2687 2733 
Q 2419 3097 1959 3097 
z
M 1959 3584 
Q 2709 3584 3137 3096 
Q 3566 2609 3566 1747 
Q 3566 888 3137 398 
Q 2709 -91 1959 -91 
Q 1206 -91 779 398 
Q 353 888 353 1747 
Q 353 2609 779 3096 
Q 1206 3584 1959 3584 
z
" transform="scale(0.015625)"/>
       <path id="DejaVuSans-6e" d="M 3513 2113 
L 3513 0 
L 2938 0 
L 2938 2094 
Q 2938 2591 2744 2837 
Q 2550 3084 2163 3084 
Q 1697 3084 1428 2787 
Q 1159 2491 1159 1978 
L 1159 0 
L 581 0 
L 581 3500 
L 1159 3500 
L 1159 2956 
Q 1366 3272 1645 3428 
Q 1925 3584 2291 3584 
Q 2894 3584 3203 3211 
Q 3513 2838 3513 2113 
z
" transform="scale(0.015625)"/>
       <path id="DejaVuSans-28" d="M 1984 4856 
Q 1566 4138 1362 3434 
Q 1159 2731 1159 2009 
Q 1159 1288 1364 580 
Q 1569 -128 1984 -844 
L 1484 -844 
Q 1016 -109 783 600 
Q 550 1309 550 2009 
Q 550 2706 781 3412 
Q 1013 4119 1484 4856 
L 1984 4856 
z
" transform="scale(0.015625)"/>
       <path id="DejaVuSans-49" d="M 628 4666 
L 1259 4666 
L 1259 0 
L 628 0 
L 628 4666 
z
" transform="scale(0.015625)"/>
       <path id="DejaVuSans-47" d="M 3809 666 
L 3809 1919 
L 2778 1919 
L 2778 2438 
L 4434 2438 
L 4434 434 
Q 4069 175 3628 42 
Q 3188 -91 2688 -91 
Q 1594 -91 976 548 
Q 359 1188 359 2328 
Q 359 3472 976 4111 
Q 1594 4750 2688 4750 
Q 3144 4750 3555 4637 
Q 3966 4525 4313 4306 
L 4313 3634 
Q 3963 3931 3569 4081 
Q 3175 4231 2741 4231 
Q 1884 4231 1454 3753 
Q 1025 3275 1025 2328 
Q 1025 1384 1454 906 
Q 1884 428 2741 428 
Q 3075 428 3337 486 
Q 3600 544 3809 666 
z
" transform="scale(0.015625)"/>
       <path id="DejaVuSans-29" d="M 513 4856 
L 1013 4856 
Q 1481 4119 1714 3412 
Q 1947 2706 1947 2009 
Q 1947 1309 1714 600 
Q 1481 -109 1013 -844 
L 513 -844 
Q 928 -128 1133 580 
Q 1338 1288 1338 2009 
Q 1338 2731 1133 3434 
Q 928 4138 513 4856 
z
" transform="scale(0.015625)"/>
      </defs>
      <use xlink:href="#DejaVuSans-41"/>
      <use xlink:href="#DejaVuSans-74" transform="translate(66.658203 0)"/>
      <use xlink:href="#DejaVuSans-74" transform="translate(105.867188 0)"/>
      <use xlink:href="#DejaVuSans-72" transform="translate(145.076172 0)"/>
      <use xlink:href="#DejaVuSans-69" transform="translate(186.189453 0)"/>
      <use xlink:href="#DejaVuSans-62" transform="translate(213.972656 0)"/>
      <use xlink:href="#DejaVuSans-75" transform="translate(277.449219 0)"/>
      <use xlink:href="#DejaVuSans-74" transform="translate(340.828125 0)"/>
      <use xlink:href="#DejaVuSans-69" transform="translate(380.037109 0)"/>
      <use xlink:href="#DejaVuSans-6f" transform="translate(407.820312 0)"/>
      <use xlink:href="#DejaVuSans-6e" transform="translate(469.001953 0)"/>
      <use xlink:href="#DejaVuSans-20" transform="translate(532.380859 0)"/>
      <use xlink:href="#DejaVuSans-28" transform="translate(564.167969 0)"/>
      <use xlink:href="#DejaVuSans-49" transform="translate(603.181641 0)"/>
      <use xlink:href="#DejaVuSans-47" transform="translate(632.673828 0)"/>
      <use xlink:href="#DejaVuSans-29" transform="translate(710.164062 0)"/>
     </g>
    </g>
   </g>
   <g id="line2d_18">
    <path d="M 72.732614 178.448167 
L 82.438325 178.495118 
L 85.211386 178.537163 
L 112.94199 178.456728 
L 153.151367 178.430689 
L 160.084018 178.497695 
L 169.789729 178.50695 
L 172.56279 178.490088 
L 178.108911 178.607992 
L 193.360743 178.428337 
L 197.520334 178.254066 
L 198.906864 178.625398 
L 201.679924 178.386219 
L 205.839515 178.51352 
L 208.612576 178.471808 
L 211.385636 178.14592 
L 212.772166 178.122616 
L 219.704817 178.650926 
L 222.477878 178.265227 
L 225.250938 178.336248 
L 228.023999 178.490485 
L 229.410529 178.619612 
L 232.183589 178.658159 
L 236.34318 178.596722 
L 237.72971 178.489522 
L 239.11624 178.900996 
L 241.889301 179.32419 
L 243.275831 179.897492 
L 244.662361 180.334955 
L 246.048892 182.227991 
L 247.435422 180.658756 
L 248.821952 178.888657 
L 250.208482 177.981536 
L 251.595012 177.67894 
L 252.981543 177.533408 
L 257.141133 177.504298 
L 259.914194 177.950045 
L 261.300724 178.068451 
L 262.687254 178.338926 
L 264.073785 178.226848 
L 265.460315 178.366013 
L 266.846845 178.376665 
L 268.233375 178.22771 
L 269.619905 178.454665 
L 271.006436 178.08327 
L 272.392966 178.59281 
L 273.779496 182.264157 
L 275.166026 183.923905 
L 276.552557 181.096774 
L 277.939087 185.069787 
L 279.325617 182.271351 
L 280.712147 185.234685 
L 282.098677 183.779615 
L 283.485208 180.381462 
L 284.871738 178.38069 
L 286.258268 177.506835 
L 287.644798 177.264584 
L 289.031329 178.019248 
L 290.417859 178.592298 
L 291.804389 178.670906 
L 293.190919 178.433546 
L 294.577449 178.529459 
L 295.96398 178.225038 
L 297.35051 178.105276 
L 300.12357 178.162075 
L 301.510101 178.426283 
L 302.896631 178.109246 
L 304.283161 178.749856 
L 305.669691 171.411733 
L 307.056221 176.056591 
L 308.442752 169.717365 
L 309.829282 176.381983 
L 311.215812 160.77743 
L 312.602342 132.897354 
L 313.988873 155.659406 
L 316.761933 193.397041 
L 318.148463 238.505516 
L 319.534993 185.812656 
L 320.921524 140.239249 
L 322.308054 143.300716 
L 323.694584 167.057185 
L 325.081114 238.178347 
L 326.467645 249.15521 
L 327.854175 285.734979 
L 329.240705 273.43274 
L 330.627235 264.401885 
L 332.013765 283.465082 
L 333.400296 260.542386 
L 334.786826 290.612399 
L 336.173356 315.655909 
L 337.559886 240.851648 
L 337.559886 240.851648 
" clip-path="url(#p3a7f75aa7b)" style="fill: none; stroke: #9c755f; stroke-opacity: 0.95; stroke-width: 1.8; stroke-linecap: square"/>
   </g>
   <g id="line2d_19">
    <path d="M 72.732614 178.421421 
L 97.690158 178.441999 
L 108.782399 178.428036 
L 139.286064 178.392594 
L 142.059125 178.497248 
L 150.378306 178.498504 
L 167.016669 178.291182 
L 169.789729 178.068148 
L 171.17626 177.925615 
L 172.56279 178.816677 
L 182.268501 178.825121 
L 186.428092 178.743179 
L 187.814622 178.49868 
L 191.974213 178.454698 
L 197.520334 178.447571 
L 200.293394 178.007362 
L 201.679924 178.087885 
L 203.066455 177.958903 
L 204.452985 178.016825 
L 205.839515 178.728615 
L 211.385636 178.997382 
L 215.545227 178.788131 
L 218.318287 178.458811 
L 222.477878 178.443622 
L 225.250938 178.453942 
L 228.023999 178.525649 
L 229.410529 178.513731 
L 230.797059 178.714561 
L 232.183589 178.653669 
L 233.57012 178.837844 
L 234.95665 178.86135 
L 236.34318 179.055093 
L 237.72971 178.849661 
L 239.11624 177.77739 
L 240.502771 177.771619 
L 241.889301 177.911564 
L 243.275831 177.839601 
L 244.662361 177.359745 
L 246.048892 177.262716 
L 247.435422 178.107168 
L 248.821952 178.596298 
L 250.208482 178.626017 
L 254.368073 178.412054 
L 259.914194 178.849474 
L 261.300724 179.043467 
L 262.687254 178.551156 
L 264.073785 178.779142 
L 265.460315 178.375325 
L 266.846845 178.796733 
L 268.233375 178.298089 
L 269.619905 177.615554 
L 271.006436 175.922193 
L 272.392966 170.439562 
L 273.779496 157.652869 
L 275.166026 158.627983 
L 276.552557 163.57362 
L 277.939087 165.084208 
L 279.325617 169.654258 
L 280.712147 176.14062 
L 282.098677 185.401578 
L 283.485208 190.532749 
L 284.871738 189.337804 
L 287.644798 179.13431 
L 289.031329 178.330865 
L 290.417859 178.127058 
L 291.804389 177.658494 
L 293.190919 178.172074 
L 294.577449 177.309552 
L 295.96398 174.376554 
L 297.35051 175.161879 
L 300.12357 177.73924 
L 301.510101 176.70703 
L 302.896631 178.095885 
L 304.283161 183.594078 
L 305.669691 216.610003 
L 307.056221 205.605657 
L 308.442752 213.140174 
L 309.829282 243.661376 
L 311.215812 235.090059 
L 312.602342 274.446506 
L 313.988873 295.873316 
L 315.375403 303.488152 
L 316.761933 149.950094 
L 318.148463 202.743415 
L 319.534993 185.765962 
L 320.921524 178.781487 
L 322.308054 178.984855 
L 323.694584 180.910035 
L 325.081114 181.117772 
L 326.467645 182.844066 
L 327.854175 155.439251 
L 329.240705 143.963826 
L 330.627235 140.125266 
L 332.013765 107.097419 
L 333.400296 143.293996 
L 334.786826 158.598689 
L 336.173356 81.774091 
L 337.559886 208.22339 
L 337.559886 208.22339 
" clip-path="url(#p3a7f75aa7b)" style="fill: none; stroke: #bab0ac; stroke-opacity: 0.95; stroke-width: 1.8; stroke-linecap: square"/>
   </g>
   <g id="line2d_20">
    <path d="M 72.732614 178.426822 
L 97.690158 178.415441 
L 103.236279 178.428316 
L 114.32852 178.456807 
L 169.789729 178.549004 
L 171.17626 178.574286 
L 172.56279 178.355175 
L 179.495441 178.166 
L 185.041562 178.106875 
L 187.814622 177.854513 
L 190.587683 177.85403 
L 191.974213 178.06344 
L 194.747273 177.934011 
L 196.133804 177.426476 
L 197.520334 177.061982 
L 198.906864 177.572461 
L 200.293394 177.86731 
L 201.679924 177.92337 
L 203.066455 177.586704 
L 204.452985 177.413046 
L 205.839515 178.64185 
L 208.612576 178.876965 
L 211.385636 178.86217 
L 212.772166 178.738816 
L 214.158696 178.730704 
L 215.545227 179.178755 
L 216.931757 179.192661 
L 218.318287 177.670371 
L 219.704817 178.463379 
L 221.091348 179.402748 
L 223.864408 180.801819 
L 225.250938 180.485802 
L 226.637468 178.760827 
L 228.023999 177.810911 
L 229.410529 176.997581 
L 230.797059 176.511166 
L 232.183589 175.178665 
L 233.57012 174.793417 
L 234.95665 175.85722 
L 236.34318 176.347455 
L 237.72971 176.33811 
L 239.11624 178.920417 
L 240.502771 178.652436 
L 241.889301 178.788064 
L 243.275831 178.084094 
L 244.662361 178.302962 
L 246.048892 176.817099 
L 247.435422 177.757741 
L 248.821952 177.808323 
L 250.208482 176.572079 
L 251.595012 174.979664 
L 252.981543 175.377546 
L 255.754603 175.384572 
L 257.141133 175.861656 
L 258.527664 176.027788 
L 261.300724 177.087463 
L 262.687254 178.627665 
L 264.073785 177.951191 
L 265.460315 178.280019 
L 266.846845 177.152591 
L 268.233375 176.535168 
L 269.619905 177.958207 
L 271.006436 180.475195 
L 272.392966 165.403676 
L 273.779496 169.122066 
L 275.166026 172.375177 
L 276.552557 167.525759 
L 277.939087 166.672227 
L 279.325617 163.154081 
L 280.712147 167.176133 
L 282.098677 173.51432 
L 283.485208 163.945361 
L 284.871738 152.612143 
L 286.258268 161.48364 
L 287.644798 168.747637 
L 289.031329 167.979972 
L 290.417859 164.929124 
L 291.804389 161.183974 
L 293.190919 161.24418 
L 294.577449 159.090087 
L 295.96398 157.699792 
L 297.35051 162.814696 
L 298.73704 165.715363 
L 300.12357 169.695724 
L 301.510101 169.663405 
L 302.896631 178.24518 
L 304.283161 175.371 
L 305.669691 167.517884 
L 307.056221 167.669159 
L 308.442752 165.841182 
L 309.829282 163.169053 
L 311.215812 162.238357 
L 312.602342 165.676384 
L 313.988873 159.715145 
L 315.375403 149.992563 
L 316.761933 177.314772 
L 318.148463 178.274176 
L 320.921524 196.059052 
L 322.308054 193.932115 
L 323.694584 189.949843 
L 325.081114 196.201488 
L 326.467645 199.66134 
L 327.854175 189.127694 
L 329.240705 193.627149 
L 330.627235 188.689385 
L 332.013765 187.741235 
L 333.400296 188.422013 
L 334.786826 192.179752 
L 336.173356 197.329828 
L 337.559886 209.390874 
L 337.559886 209.390874 
" clip-path="url(#p3a7f75aa7b)" style="fill: none; stroke: #7a5c47; stroke-opacity: 0.95; stroke-width: 1.8; stroke-linecap: square"/>
   </g>
   <g id="line2d_21">
    <path d="M 59.49125 178.456804 
L 350.80125 178.456804 
" clip-path="url(#p3a7f75aa7b)" style="fill: none; stroke: #888888; stroke-opacity: 0.6; stroke-linecap: square"/>
   </g>
   <g id="patch_3">
    <path d="M 59.49125 327.35 
L 59.49125 70.08 
" style="fill: none; stroke: #000000; stroke-width: 0.8; stroke-linejoin: miter; stroke-linecap: square"/>
   </g>
   <g id="patch_4">
    <path d="M 350.80125 327.35 
L 350.80125 70.08 
" style="fill: none; stroke: #000000; stroke-width: 0.8; stroke-linejoin: miter; stroke-linecap: square"/>
   </g>
   <g id="patch_5">
    <path d="M 59.49125 327.35 
L 350.80125 327.35 
" style="fill: none; stroke: #000000; stroke-width: 0.8; stroke-linejoin: miter; stroke-linecap: square"/>
   </g>
   <g id="patch_6">
    <path d="M 59.49125 70.08 
L 350.80125 70.08 
" style="fill: none; stroke: #000000; stroke-width: 0.8; stroke-linejoin: miter; stroke-linecap: square"/>
   </g>
   <g id="text_11">
    <!-- Other (n=3) -->
    <g transform="translate(171.896172 64.08) scale(0.11 -0.11)">
     <defs>
      <path id="DejaVuSans-4f" d="M 2522 4238 
Q 1834 4238 1429 3725 
Q 1025 3213 1025 2328 
Q 1025 1447 1429 934 
Q 1834 422 2522 422 
Q 3209 422 3611 934 
Q 4013 1447 4013 2328 
Q 4013 3213 3611 3725 
Q 3209 4238 2522 4238 
z
M 2522 4750 
Q 3503 4750 4090 4092 
Q 4678 3434 4678 2328 
Q 4678 1225 4090 567 
Q 3503 -91 2522 -91 
Q 1538 -91 948 565 
Q 359 1222 359 2328 
Q 359 3434 948 4092 
Q 1538 4750 2522 4750 
z
" transform="scale(0.015625)"/>
      <path id="DejaVuSans-68" d="M 3513 2113 
L 3513 0 
L 2938 0 
L 2938 2094 
Q 2938 2591 2744 2837 
Q 2550 3084 2163 3084 
Q 1697 3084 1428 2787 
Q 1159 2491 1159 1978 
L 1159 0 
L 581 0 
L 581 4863 
L 1159 4863 
L 1159 2956 
Q 1366 3272 1645 3428 
Q 1925 3584 2291 3584 
Q 2894 3584 3203 3211 
Q 3513 2838 3513 2113 
z
" transform="scale(0.015625)"/>
      <path id="DejaVuSans-3d" d="M 678 2906 
L 4684 2906 
L 4684 2381 
L 678 2381 
L 678 2906 
z
M 678 1631 
L 4684 1631 
L 4684 1100 
L 678 1100 
L 678 1631 
z
" transform="scale(0.015625)"/>
      <path id="DejaVuSans-33" d="M 2597 2516 
Q 3050 2419 3304 2112 
Q 3559 1806 3559 1356 
Q 3559 666 3084 287 
Q 2609 -91 1734 -91 
Q 1441 -91 1130 -33 
Q 819 25 488 141 
L 488 750 
Q 750 597 1062 519 
Q 1375 441 1716 441 
Q 2309 441 2620 675 
Q 2931 909 2931 1356 
Q 2931 1769 2642 2001 
Q 2353 2234 1838 2234 
L 1294 2234 
L 1294 2753 
L 1863 2753 
Q 2328 2753 2575 2939 
Q 2822 3125 2822 3475 
Q 2822 3834 2567 4026 
Q 2313 4219 1838 4219 
Q 1578 4219 1281 4162 
Q 984 4106 628 3988 
L 628 4550 
Q 988 4650 1302 4700 
Q 1616 4750 1894 4750 
Q 2613 4750 3031 4423 
Q 3450 4097 3450 3541 
Q 3450 3153 3228 2886 
Q 3006 2619 2597 2516 
z
" transform="scale(0.015625)"/>
     </defs>
     <use xlink:href="#DejaVuSans-4f"/>
     <use xlink:href="#DejaVuSans-74" transform="translate(78.710938 0)"/>
     <use xlink:href="#DejaVuSans-68" transform="translate(117.919922 0)"/>
     <use xlink:href="#DejaVuSans-65" transform="translate(181.298828 0)"/>
     <use xlink:href="#DejaVuSans-72" transform="translate(242.822266 0)"/>
     <use xlink:href="#DejaVuSans-20" transform="translate(283.935547 0)"/>
     <use xlink:href="#DejaVuSans-28" transform="translate(315.722656 0)"/>
     <use xlink:href="#DejaVuSans-6e" transform="translate(354.736328 0)"/>
     <use xlink:href="#DejaVuSans-3d" transform="translate(418.115234 0)"/>
     <use xlink:href="#DejaVuSans-33" transform="translate(501.904297 0)"/>
     <use xlink:href="#DejaVuSans-29" transform="translate(565.527344 0)"/>
    </g>
   </g>
   <g id="legend_1">
    <g id="line2d_22">
     <path d="M 66.69125 80.55875 
L 74.69125 80.55875 
L 82.69125 80.55875 
" style="fill: none; stroke: #9c755f; stroke-opacity: 0.95; stroke-width: 1.8; stroke-linecap: square"/>
    </g>
    <g id="text_12">
     <!-- Total Load Forecast -->
     <g transform="translate(89.09125 83.35875) scale(0.08 -0.08)">
      <defs>
       <path id="DejaVuSans-61" d="M 2194 1759 
Q 1497 1759 1228 1600 
Q 959 1441 959 1056 
Q 959 750 1161 570 
Q 1363 391 1709 391 
Q 2188 391 2477 730 
Q 2766 1069 2766 1631 
L 2766 1759 
L 2194 1759 
z
M 3341 1997 
L 3341 0 
L 2766 0 
L 2766 531 
Q 2569 213 2275 61 
Q 1981 -91 1556 -91 
Q 1019 -91 701 211 
Q 384 513 384 1019 
Q 384 1609 779 1909 
Q 1175 2209 1959 2209 
L 2766 2209 
L 2766 2266 
Q 2766 2663 2505 2880 
Q 2244 3097 1772 3097 
Q 1472 3097 1187 3025 
Q 903 2953 641 2809 
L 641 3341 
Q 956 3463 1253 3523 
Q 1550 3584 1831 3584 
Q 2591 3584 2966 3190 
Q 3341 2797 3341 1997 
z
" transform="scale(0.015625)"/>
       <path id="DejaVuSans-6c" d="M 603 4863 
L 1178 4863 
L 1178 0 
L 603 0 
L 603 4863 
z
" transform="scale(0.015625)"/>
       <path id="DejaVuSans-4c" d="M 628 4666 
L 1259 4666 
L 1259 531 
L 3531 531 
L 3531 0 
L 628 0 
L 628 4666 
z
" transform="scale(0.015625)"/>
       <path id="DejaVuSans-64" d="M 2906 2969 
L 2906 4863 
L 3481 4863 
L 3481 0 
L 2906 0 
L 2906 525 
Q 2725 213 2448 61 
Q 2172 -91 1784 -91 
Q 1150 -91 751 415 
Q 353 922 353 1747 
Q 353 2572 751 3078 
Q 1150 3584 1784 3584 
Q 2172 3584 2448 3432 
Q 2725 3281 2906 2969 
z
M 947 1747 
Q 947 1113 1208 752 
Q 1469 391 1925 391 
Q 2381 391 2643 752 
Q 2906 1113 2906 1747 
Q 2906 2381 2643 2742 
Q 2381 3103 1925 3103 
Q 1469 3103 1208 2742 
Q 947 2381 947 1747 
z
" transform="scale(0.015625)"/>
       <path id="DejaVuSans-46" d="M 628 4666 
L 3309 4666 
L 3309 4134 
L 1259 4134 
L 1259 2759 
L 3109 2759 
L 3109 2228 
L 1259 2228 
L 1259 0 
L 628 0 
L 628 4666 
z
" transform="scale(0.015625)"/>
       <path id="DejaVuSans-63" d="M 3122 3366 
L 3122 2828 
Q 2878 2963 2633 3030 
Q 2388 3097 2138 3097 
Q 1578 3097 1268 2742 
Q 959 2388 959 1747 
Q 959 1106 1268 751 
Q 1578 397 2138 397 
Q 2388 397 2633 464 
Q 2878 531 3122 666 
L 3122 134 
Q 2881 22 2623 -34 
Q 2366 -91 2075 -91 
Q 1284 -91 818 406 
Q 353 903 353 1747 
Q 353 2603 823 3093 
Q 1294 3584 2113 3584 
Q 2378 3584 2631 3529 
Q 2884 3475 3122 3366 
z
" transform="scale(0.015625)"/>
      </defs>
      <use xlink:href="#DejaVuSans-54"/>
      <use xlink:href="#DejaVuSans-6f" transform="translate(44.083984 0)"/>
      <use xlink:href="#DejaVuSans-74" transform="translate(105.265625 0)"/>
      <use xlink:href="#DejaVuSans-61" transform="translate(144.474609 0)"/>
      <use xlink:href="#DejaVuSans-6c" transform="translate(205.753906 0)"/>
      <use xlink:href="#DejaVuSans-20" transform="translate(233.537109 0)"/>
      <use xlink:href="#DejaVuSans-4c" transform="translate(265.324219 0)"/>
      <use xlink:href="#DejaVuSans-6f" transform="translate(319.287109 0)"/>
      <use xlink:href="#DejaVuSans-61" transform="translate(380.46875 0)"/>
      <use xlink:href="#DejaVuSans-64" transform="translate(441.748047 0)"/>
      <use xlink:href="#DejaVuSans-20" transform="translate(505.224609 0)"/>
      <use xlink:href="#DejaVuSans-46" transform="translate(537.011719 0)"/>
      <use xlink:href="#DejaVuSans-6f" transform="translate(590.90625 0)"/>
      <use xlink:href="#DejaVuSans-72" transform="translate(652.087891 0)"/>
      <use xlink:href="#DejaVuSans-65" transform="translate(690.951172 0)"/>
      <use xlink:href="#DejaVuSans-63" transform="translate(752.474609 0)"/>
      <use xlink:href="#DejaVuSans-61" transform="translate(807.455078 0)"/>
      <use xlink:href="#DejaVuSans-73" transform="translate(868.734375 0)"/>
      <use xlink:href="#DejaVuSans-74" transform="translate(920.833984 0)"/>
     </g>
    </g>
    <g id="line2d_23">
     <path d="M 66.69125 92.30125 
L 74.69125 92.30125 
L 82.69125 92.30125 
" style="fill: none; stroke: #bab0ac; stroke-opacity: 0.95; stroke-width: 1.8; stroke-linecap: square"/>
    </g>
    <g id="text_13">
     <!-- Hour -->
     <g transform="translate(89.09125 95.10125) scale(0.08 -0.08)">
      <defs>
       <path id="DejaVuSans-48" d="M 628 4666 
L 1259 4666 
L 1259 2753 
L 3553 2753 
L 3553 4666 
L 4184 4666 
L 4184 0 
L 3553 0 
L 3553 2222 
L 1259 2222 
L 1259 0 
L 628 0 
L 628 4666 
z
" transform="scale(0.015625)"/>
      </defs>
      <use xlink:href="#DejaVuSans-48"/>
      <use xlink:href="#DejaVuSans-6f" transform="translate(75.195312 0)"/>
      <use xlink:href="#DejaVuSans-75" transform="translate(136.376953 0)"/>
      <use xlink:href="#DejaVuSans-72" transform="translate(199.755859 0)"/>
     </g>
    </g>
    <g id="line2d_24">
     <path d="M 66.69125 104.04375 
L 74.69125 104.04375 
L 82.69125 104.04375 
" style="fill: none; stroke: #7a5c47; stroke-opacity: 0.95; stroke-width: 1.8; stroke-linecap: square"/>
    </g>
    <g id="text_14">
     <!-- Day Of Week -->
     <g transform="translate(89.09125 106.84375) scale(0.08 -0.08)">
      <defs>
       <path id="DejaVuSans-44" d="M 1259 4147 
L 1259 519 
L 2022 519 
Q 2988 519 3436 956 
Q 3884 1394 3884 2338 
Q 3884 3275 3436 3711 
Q 2988 4147 2022 4147 
L 1259 4147 
z
M 628 4666 
L 1925 4666 
Q 3281 4666 3915 4102 
Q 4550 3538 4550 2338 
Q 4550 1131 3912 565 
Q 3275 0 1925 0 
L 628 0 
L 628 4666 
z
" transform="scale(0.015625)"/>
       <path id="DejaVuSans-79" d="M 2059 -325 
Q 1816 -950 1584 -1140 
Q 1353 -1331 966 -1331 
L 506 -1331 
L 506 -850 
L 844 -850 
Q 1081 -850 1212 -737 
Q 1344 -625 1503 -206 
L 1606 56 
L 191 3500 
L 800 3500 
L 1894 763 
L 2988 3500 
L 3597 3500 
L 2059 -325 
z
" transform="scale(0.015625)"/>
       <path id="DejaVuSans-66" d="M 2375 4863 
L 2375 4384 
L 1825 4384 
Q 1516 4384 1395 4259 
Q 1275 4134 1275 3809 
L 1275 3500 
L 2222 3500 
L 2222 3053 
L 1275 3053 
L 1275 0 
L 697 0 
L 697 3053 
L 147 3053 
L 147 3500 
L 697 3500 
L 697 3744 
Q 697 4328 969 4595 
Q 1241 4863 1831 4863 
L 2375 4863 
z
" transform="scale(0.015625)"/>
       <path id="DejaVuSans-57" d="M 213 4666 
L 850 4666 
L 1831 722 
L 2809 4666 
L 3519 4666 
L 4500 722 
L 5478 4666 
L 6119 4666 
L 4947 0 
L 4153 0 
L 3169 4050 
L 2175 0 
L 1381 0 
L 213 4666 
z
" transform="scale(0.015625)"/>
       <path id="DejaVuSans-6b" d="M 581 4863 
L 1159 4863 
L 1159 1991 
L 2875 3500 
L 3609 3500 
L 1753 1863 
L 3688 0 
L 2938 0 
L 1159 1709 
L 1159 0 
L 581 0 
L 581 4863 
z
" transform="scale(0.015625)"/>
      </defs>
      <use xlink:href="#DejaVuSans-44"/>
      <use xlink:href="#DejaVuSans-61" transform="translate(77.001953 0)"/>
      <use xlink:href="#DejaVuSans-79" transform="translate(138.28125 0)"/>
      <use xlink:href="#DejaVuSans-20" transform="translate(197.460938 0)"/>
      <use xlink:href="#DejaVuSans-4f" transform="translate(229.248047 0)"/>
      <use xlink:href="#DejaVuSans-66" transform="translate(307.958984 0)"/>
      <use xlink:href="#DejaVuSans-20" transform="translate(343.164062 0)"/>
      <use xlink:href="#DejaVuSans-57" transform="translate(374.951172 0)"/>
      <use xlink:href="#DejaVuSans-65" transform="translate(467.953125 0)"/>
      <use xlink:href="#DejaVuSans-65" transform="translate(529.476562 0)"/>
      <use xlink:href="#DejaVuSans-6b" transform="translate(591 0)"/>
     </g>
    </g>
   </g>
  </g>
  <g id="axes_2">
   <g id="patch_7">
    <path d="M 414.09125 327.35 
L 705.40125 327.35 
L 705.40125 70.08 
L 414.09125 70.08 
z
" style="fill: #ffffff"/>
   </g>
   <g id="matplotlib.axis_3">
    <g id="xtick_10">
     <g id="line2d_25">
      <g>
       <use xlink:href="#mf6f79dd405" x="427.332614" y="327.35" style="stroke: #000000; stroke-width: 0.8"/>
      </g>
     </g>
    </g>
    <g id="xtick_11">
     <g id="line2d_26">
      <g>
       <use xlink:href="#mf6f79dd405" x="461.995869" y="327.35" style="stroke: #000000; stroke-width: 0.8"/>
      </g>
     </g>
    </g>
    <g id="xtick_12">
     <g id="line2d_27">
      <g>
       <use xlink:href="#mf6f79dd405" x="496.659125" y="327.35" style="stroke: #000000; stroke-width: 0.8"/>
      </g>
     </g>
    </g>
    <g id="xtick_13">
     <g id="line2d_28">
      <g>
       <use xlink:href="#mf6f79dd405" x="531.32238" y="327.35" style="stroke: #000000; stroke-width: 0.8"/>
      </g>
     </g>
    </g>
    <g id="xtick_14">
     <g id="line2d_29">
      <g>
       <use xlink:href="#mf6f79dd405" x="565.985636" y="327.35" style="stroke: #000000; stroke-width: 0.8"/>
      </g>
     </g>
    </g>
    <g id="xtick_15">
     <g id="line2d_30">
      <g>
       <use xlink:href="#mf6f79dd405" x="600.648892" y="327.35" style="stroke: #000000; stroke-width: 0.8"/>
      </g>
     </g>
    </g>
    <g id="xtick_16">
     <g id="line2d_31">
      <g>
       <use xlink:href="#mf6f79dd405" x="635.312147" y="327.35" style="stroke: #000000; stroke-width: 0.8"/>
      </g>
     </g>
    </g>
    <g id="xtick_17">
     <g id="line2d_32">
      <g>
       <use xlink:href="#mf6f79dd405" x="669.975403" y="327.35" style="stroke: #000000; stroke-width: 0.8"/>
      </g>
     </g>
    </g>
    <g id="xtick_18">
     <g id="line2d_33">
      <g>
       <use xlink:href="#mf6f79dd405" x="704.638658" y="327.35" style="stroke: #000000; stroke-width: 0.8"/>
      </g>
     </g>
    </g>
    <g id="text_15">
     <!-- Time Steps -->
     <g transform="translate(529.1525 343.208281) scale(0.11 -0.11)">
      <use xlink:href="#DejaVuSans-54"/>
      <use xlink:href="#DejaVuSans-69" transform="translate(57.958984 0)"/>
      <use xlink:href="#DejaVuSans-6d" transform="translate(85.742188 0)"/>
      <use xlink:href="#DejaVuSans-65" transform="translate(183.154297 0)"/>
      <use xlink:href="#DejaVuSans-20" transform="translate(244.677734 0)"/>
      <use xlink:href="#DejaVuSans-53" transform="translate(276.464844 0)"/>
      <use xlink:href="#DejaVuSans-74" transform="translate(339.941406 0)"/>
      <use xlink:href="#DejaVuSans-65" transform="translate(379.150391 0)"/>
      <use xlink:href="#DejaVuSans-70" transform="translate(440.673828 0)"/>
      <use xlink:href="#DejaVuSans-73" transform="translate(504.150391 0)"/>
     </g>
    </g>
   </g>
   <g id="matplotlib.axis_4">
    <g id="ytick_9">
     <g id="line2d_34">
      <g>
       <use xlink:href="#mb21ba33b74" x="414.09125" y="302.21153" style="stroke: #000000; stroke-width: 0.8"/>
      </g>
     </g>
     <g id="text_16">
      <!-- −0.06 -->
      <g transform="translate(376.445938 306.010748) scale(0.1 -0.1)">
       <use xlink:href="#DejaVuSans-2212"/>
       <use xlink:href="#DejaVuSans-30" transform="translate(83.789062 0)"/>
       <use xlink:href="#DejaVuSans-2e" transform="translate(147.412109 0)"/>
       <use xlink:href="#DejaVuSans-30" transform="translate(179.199219 0)"/>
       <use xlink:href="#DejaVuSans-36" transform="translate(242.822266 0)"/>
      </g>
     </g>
    </g>
    <g id="ytick_10">
     <g id="line2d_35">
      <g>
       <use xlink:href="#mb21ba33b74" x="414.09125" y="260.122723" style="stroke: #000000; stroke-width: 0.8"/>
      </g>
     </g>
     <g id="text_17">
      <!-- −0.04 -->
      <g transform="translate(376.445938 263.921942) scale(0.1 -0.1)">
       <use xlink:href="#DejaVuSans-2212"/>
       <use xlink:href="#DejaVuSans-30" transform="translate(83.789062 0)"/>
       <use xlink:href="#DejaVuSans-2e" transform="translate(147.412109 0)"/>
       <use xlink:href="#DejaVuSans-30" transform="translate(179.199219 0)"/>
       <use xlink:href="#DejaVuSans-34" transform="translate(242.822266 0)"/>
      </g>
     </g>
    </g>
    <g id="ytick_11">
     <g id="line2d_36">
      <g>
       <use xlink:href="#mb21ba33b74" x="414.09125" y="218.033916" style="stroke: #000000; stroke-width: 0.8"/>
      </g>
     </g>
     <g id="text_18">
      <!-- −0.02 -->
      <g transform="translate(376.445938 221.833135) scale(0.1 -0.1)">
       <use xlink:href="#DejaVuSans-2212"/>
       <use xlink:href="#DejaVuSans-30" transform="translate(83.789062 0)"/>
       <use xlink:href="#DejaVuSans-2e" transform="translate(147.412109 0)"/>
       <use xlink:href="#DejaVuSans-30" transform="translate(179.199219 0)"/>
       <use xlink:href="#DejaVuSans-32" transform="translate(242.822266 0)"/>
      </g>
     </g>
    </g>
    <g id="ytick_12">
     <g id="line2d_37">
      <g>
       <use xlink:href="#mb21ba33b74" x="414.09125" y="175.94511" style="stroke: #000000; stroke-width: 0.8"/>
      </g>
     </g>
     <g id="text_19">
      <!-- 0.00 -->
      <g transform="translate(384.825625 179.744328) scale(0.1 -0.1)">
       <use xlink:href="#DejaVuSans-30"/>
       <use xlink:href="#DejaVuSans-2e" transform="translate(63.623047 0)"/>
       <use xlink:href="#DejaVuSans-30" transform="translate(95.410156 0)"/>
       <use xlink:href="#DejaVuSans-30" transform="translate(159.033203 0)"/>
      </g>
     </g>
    </g>
    <g id="ytick_13">
     <g id="line2d_38">
      <g>
       <use xlink:href="#mb21ba33b74" x="414.09125" y="133.856303" style="stroke: #000000; stroke-width: 0.8"/>
      </g>
     </g>
     <g id="text_20">
      <!-- 0.02 -->
      <g transform="translate(384.825625 137.655522) scale(0.1 -0.1)">
       <use xlink:href="#DejaVuSans-30"/>
       <use xlink:href="#DejaVuSans-2e" transform="translate(63.623047 0)"/>
       <use xlink:href="#DejaVuSans-30" transform="translate(95.410156 0)"/>
       <use xlink:href="#DejaVuSans-32" transform="translate(159.033203 0)"/>
      </g>
     </g>
    </g>
    <g id="ytick_14">
     <g id="line2d_39">
      <g>
       <use xlink:href="#mb21ba33b74" x="414.09125" y="91.767496" style="stroke: #000000; stroke-width: 0.8"/>
      </g>
     </g>
     <g id="text_21">
      <!-- 0.04 -->
      <g transform="translate(384.825625 95.566715) scale(0.1 -0.1)">
       <use xlink:href="#DejaVuSans-30"/>
       <use xlink:href="#DejaVuSans-2e" transform="translate(63.623047 0)"/>
       <use xlink:href="#DejaVuSans-30" transform="translate(95.410156 0)"/>
       <use xlink:href="#DejaVuSans-34" transform="translate(159.033203 0)"/>
      </g>
     </g>
    </g>
    <g id="text_22">
     <!-- Attribution (IG) -->
     <g transform="translate(370.158281 239.918594) rotate(-90) scale(0.11 -0.11)">
      <use xlink:href="#DejaVuSans-41"/>
      <use xlink:href="#DejaVuSans-74" transform="translate(66.658203 0)"/>
      <use xlink:href="#DejaVuSans-74" transform="translate(105.867188 0)"/>
      <use xlink:href="#DejaVuSans-72" transform="translate(145.076172 0)"/>
      <use xlink:href="#DejaVuSans-69" transform="translate(186.189453 0)"/>
      <use xlink:href="#DejaVuSans-62" transform="translate(213.972656 0)"/>
      <use xlink:href="#DejaVuSans-75" transform="translate(277.449219 0)"/>
      <use xlink:href="#DejaVuSans-74" transform="translate(340.828125 0)"/>
      <use xlink:href="#DejaVuSans-69" transform="translate(380.037109 0)"/>
      <use xlink:href="#DejaVuSans-6f" transform="translate(407.820312 0)"/>
      <use xlink:href="#DejaVuSans-6e" transform="translate(469.001953 0)"/>
      <use xlink:href="#DejaVuSans-20" transform="translate(532.380859 0)"/>
      <use xlink:href="#DejaVuSans-28" transform="translate(564.167969 0)"/>
      <use xlink:href="#DejaVuSans-49" transform="translate(603.181641 0)"/>
      <use xlink:href="#DejaVuSans-47" transform="translate(632.673828 0)"/>
      <use xlink:href="#DejaVuSans-29" transform="translate(710.164062 0)"/>
     </g>
    </g>
   </g>
   <g id="line2d_40">
    <path d="M 427.332614 175.913654 
L 473.088111 175.951792 
L 480.020762 175.90336 
L 495.272595 176.002378 
L 520.230139 175.981136 
L 521.616669 175.9356 
L 525.77626 176.195497 
L 527.16279 176.058597 
L 539.641562 176.005961 
L 541.028092 175.82781 
L 545.187683 176.286369 
L 549.347273 176.185433 
L 550.733804 176.209886 
L 552.120334 175.880314 
L 553.506864 176.033205 
L 556.279924 175.966931 
L 559.052985 176.079689 
L 560.439515 175.854941 
L 568.758696 175.759211 
L 571.531757 175.751765 
L 574.304817 176.649579 
L 575.691348 177.650218 
L 577.077878 178.173596 
L 578.464408 178.561068 
L 579.850938 178.518148 
L 581.237468 177.413768 
L 584.010529 176.754359 
L 585.397059 177.577135 
L 586.783589 175.944307 
L 588.17012 176.014886 
L 589.55665 175.611441 
L 592.32971 175.331892 
L 593.71624 174.853058 
L 595.102771 174.689607 
L 596.489301 174.833682 
L 597.875831 174.541775 
L 599.262361 173.69627 
L 600.648892 173.395812 
L 603.421952 175.272264 
L 606.195012 175.654908 
L 607.581543 176.470951 
L 608.968073 176.954171 
L 611.741133 177.251216 
L 614.514194 177.132494 
L 615.900724 176.959415 
L 618.673785 176.134699 
L 620.060315 176.040692 
L 621.446845 176.292404 
L 624.219905 177.282317 
L 625.606436 177.382913 
L 626.992966 176.748188 
L 628.379496 175.836313 
L 629.766026 175.097552 
L 631.152557 174.591795 
L 632.539087 174.351665 
L 635.312147 177.565546 
L 636.698677 179.983039 
L 638.085208 176.672484 
L 639.471738 166.914472 
L 640.858268 167.2757 
L 642.244798 166.51136 
L 643.631329 167.82931 
L 645.017859 167.918126 
L 646.404389 166.627484 
L 647.790919 161.562165 
L 649.177449 162.632324 
L 650.56398 168.247006 
L 651.95051 168.191404 
L 654.72357 175.486583 
L 657.496631 175.843395 
L 658.883161 175.054052 
L 660.269691 187.53678 
L 661.656221 188.21186 
L 663.042752 186.864599 
L 664.429282 187.348486 
L 665.815812 184.261402 
L 667.202342 190.522048 
L 668.588873 202.405653 
L 669.975403 220.096672 
L 671.361933 150.813322 
L 672.748463 179.689101 
L 674.134993 220.840742 
L 675.521524 255.028563 
L 676.908054 255.629676 
L 678.294584 219.146605 
L 679.681114 125.842989 
L 681.067645 118.843776 
L 682.454175 81.774091 
L 683.840705 133.266433 
L 685.227235 154.751947 
L 686.613765 194.437173 
L 688.000296 175.09575 
L 689.386826 133.802747 
L 690.773356 142.659268 
L 692.159886 95.799744 
L 692.159886 95.799744 
" clip-path="url(#pbc8c56434d)" style="fill: none; stroke: #59a14f; stroke-opacity: 0.95; stroke-width: 1.8; stroke-linecap: square"/>
   </g>
   <g id="line2d_41">
    <path d="M 427.332614 175.931137 
L 443.970976 175.893554 
L 457.836279 175.946443 
L 461.995869 175.916445 
L 477.247702 176.089582 
L 478.634232 175.942853 
L 482.793823 176.328555 
L 484.180353 176.08995 
L 485.566883 176.272215 
L 486.953413 175.92535 
L 488.339943 175.717948 
L 489.726474 175.95927 
L 491.113004 175.74694 
L 492.499534 175.744013 
L 493.886064 175.90619 
L 504.978306 176.029641 
L 507.751367 176.029416 
L 509.137897 176.121426 
L 511.910957 175.99985 
L 529.93585 176.024415 
L 532.708911 176.05148 
L 536.868501 175.879106 
L 539.641562 175.940946 
L 541.028092 175.60676 
L 542.414622 175.550422 
L 543.801152 175.971515 
L 545.187683 175.655916 
L 546.574213 175.944423 
L 547.960743 175.781583 
L 550.733804 175.885209 
L 552.120334 176.433958 
L 553.506864 175.962263 
L 556.279924 175.835726 
L 557.666455 176.087206 
L 559.052985 175.911413 
L 560.439515 175.598601 
L 561.826045 175.616071 
L 563.212576 176.104254 
L 564.599106 175.631491 
L 565.985636 176.100342 
L 567.372166 176.694381 
L 570.145227 176.565411 
L 571.531757 176.646064 
L 572.918287 176.245879 
L 574.304817 176.814538 
L 575.691348 176.292303 
L 577.077878 176.646067 
L 578.464408 177.603406 
L 579.850938 176.450731 
L 581.237468 175.029224 
L 582.623999 175.526782 
L 584.010529 175.438777 
L 585.397059 175.792974 
L 586.783589 175.864039 
L 588.17012 175.122966 
L 589.55665 176.037569 
L 590.94318 176.187913 
L 592.32971 175.830903 
L 593.71624 176.529679 
L 595.102771 176.53035 
L 597.875831 176.073565 
L 599.262361 175.417217 
L 600.648892 175.309723 
L 602.035422 176.000348 
L 603.421952 176.499701 
L 606.195012 180.943819 
L 607.581543 178.478301 
L 608.968073 178.797206 
L 610.354603 178.990329 
L 611.741133 176.971968 
L 614.514194 175.822151 
L 617.287254 176.513771 
L 620.060315 176.918852 
L 621.446845 177.417085 
L 622.833375 178.034945 
L 624.219905 174.861134 
L 625.606436 174.044873 
L 626.992966 177.233647 
L 628.379496 177.741496 
L 629.766026 177.18286 
L 631.152557 178.390808 
L 632.539087 176.429512 
L 633.925617 179.388273 
L 635.312147 178.966104 
L 636.698677 204.030527 
L 638.085208 207.586998 
L 639.471738 211.776039 
L 640.858268 181.734031 
L 642.244798 181.07782 
L 643.631329 175.013986 
L 645.017859 175.416817 
L 646.404389 178.019622 
L 647.790919 176.231238 
L 649.177449 173.353865 
L 650.56398 158.63869 
L 651.95051 160.742985 
L 653.33704 157.180859 
L 654.72357 164.381397 
L 656.110101 172.625039 
L 657.496631 174.339027 
L 658.883161 176.786182 
L 661.656221 154.934927 
L 663.042752 159.296989 
L 664.429282 141.0486 
L 665.815812 157.754065 
L 667.202342 169.015157 
L 668.588873 114.7062 
L 669.975403 127.817977 
L 671.361933 209.344912 
L 672.748463 164.973416 
L 674.134993 197.278121 
L 675.521524 193.976299 
L 676.908054 176.105665 
L 678.294584 174.989573 
L 679.681114 197.56607 
L 681.067645 194.527401 
L 682.454175 191.134587 
L 683.840705 187.396379 
L 685.227235 107.677804 
L 686.613765 132.743775 
L 688.000296 128.557092 
L 689.386826 138.097053 
L 690.773356 142.735536 
L 692.159886 113.609778 
L 692.159886 113.609778 
" clip-path="url(#pbc8c56434d)" style="fill: none; stroke: #8cd17d; stroke-opacity: 0.95; stroke-width: 1.8; stroke-linecap: square"/>
   </g>
   <g id="line2d_42">
    <path d="M 427.332614 175.874614 
L 431.492204 176.0454 
L 432.878735 175.904787 
L 434.265265 176.069425 
L 435.651795 175.87986 
L 437.038325 176.155602 
L 438.424855 175.861991 
L 441.197916 175.853536 
L 448.130567 175.805703 
L 450.903627 175.896447 
L 456.449748 175.908686 
L 467.54199 175.944185 
L 471.701581 175.906042 
L 475.861171 175.911262 
L 484.180353 175.95033 
L 502.205246 176.01743 
L 503.591776 176.038852 
L 506.364836 175.80551 
L 509.137897 175.761707 
L 510.524427 175.862367 
L 513.297488 175.80595 
L 517.457078 176.023115 
L 518.843608 175.878713 
L 520.230139 175.968762 
L 521.616669 175.890298 
L 525.77626 176.084599 
L 529.93585 175.970269 
L 531.32238 176.12874 
L 532.708911 176.131141 
L 534.095441 175.957002 
L 538.255032 175.918836 
L 539.641562 176.169146 
L 541.028092 175.641457 
L 542.414622 175.514492 
L 543.801152 175.846858 
L 545.187683 175.682674 
L 546.574213 176.071088 
L 547.960743 175.770988 
L 549.347273 176.034966 
L 550.733804 175.546254 
L 552.120334 175.485623 
L 553.506864 176.255944 
L 554.893394 176.160446 
L 556.279924 175.821902 
L 559.052985 176.062589 
L 560.439515 175.841372 
L 563.212576 175.759153 
L 564.599106 176.240715 
L 565.985636 176.340304 
L 567.372166 176.012378 
L 568.758696 176.279515 
L 570.145227 176.085889 
L 571.531757 176.395608 
L 572.918287 175.95444 
L 574.304817 175.762813 
L 575.691348 177.284317 
L 577.077878 177.373932 
L 578.464408 175.53632 
L 579.850938 178.218561 
L 581.237468 178.501215 
L 584.010529 175.991506 
L 585.397059 176.510816 
L 586.783589 176.623598 
L 588.17012 175.686033 
L 589.55665 176.517995 
L 590.94318 175.864779 
L 592.32971 175.825408 
L 593.71624 175.166757 
L 595.102771 177.21435 
L 596.489301 173.04684 
L 597.875831 171.078304 
L 599.262361 180.604087 
L 600.648892 181.857027 
L 602.035422 171.970908 
L 603.421952 171.383165 
L 604.808482 171.32917 
L 606.195012 186.079284 
L 607.581543 188.999093 
L 608.968073 184.157436 
L 610.354603 180.631681 
L 611.741133 182.194024 
L 613.127664 180.628357 
L 614.514194 182.646235 
L 615.900724 181.800087 
L 617.287254 176.659275 
L 618.673785 177.3012 
L 620.060315 175.88961 
L 621.446845 175.46818 
L 622.833375 176.054204 
L 624.219905 175.394889 
L 625.606436 173.602358 
L 626.992966 181.218129 
L 628.379496 174.941244 
L 629.766026 177.645286 
L 631.152557 184.566202 
L 632.539087 177.203983 
L 633.925617 197.124648 
L 635.312147 204.103314 
L 636.698677 176.502559 
L 638.085208 176.556597 
L 639.471738 175.502898 
L 640.858268 160.983096 
L 642.244798 155.883673 
L 643.631329 146.679096 
L 645.017859 175.282336 
L 646.404389 175.519135 
L 647.790919 181.640689 
L 649.177449 180.153 
L 650.56398 172.07658 
L 651.95051 173.016147 
L 653.33704 174.379937 
L 654.72357 176.752628 
L 656.110101 178.390776 
L 657.496631 191.508545 
L 658.883161 174.276551 
L 660.269691 122.254921 
L 661.656221 165.180755 
L 663.042752 158.193987 
L 664.429282 126.256456 
L 665.815812 164.023063 
L 667.202342 167.485064 
L 668.588873 183.687437 
L 669.975403 145.43032 
L 671.361933 162.766155 
L 672.748463 219.43733 
L 674.134993 140.110374 
L 675.521524 153.441757 
L 676.908054 142.427457 
L 678.294584 149.590642 
L 679.681114 158.533195 
L 681.067645 165.676592 
L 682.454175 178.988908 
L 683.840705 180.042624 
L 685.227235 177.314325 
L 686.613765 169.466909 
L 688.000296 175.328848 
L 689.386826 134.54301 
L 690.773356 121.284725 
L 692.159886 171.352068 
L 692.159886 171.352068 
" clip-path="url(#pbc8c56434d)" style="fill: none; stroke: #2e7d32; stroke-opacity: 0.95; stroke-width: 1.8; stroke-linecap: square"/>
   </g>
   <g id="line2d_43">
    <path d="M 427.332614 175.911658 
L 442.584446 175.959125 
L 450.903627 175.948132 
L 482.793823 175.945688 
L 524.389729 175.906398 
L 525.77626 175.814976 
L 527.16279 175.95496 
L 539.641562 175.979586 
L 545.187683 176.33918 
L 547.960743 175.957216 
L 549.347273 176.021644 
L 550.733804 176.465875 
L 552.120334 176.53644 
L 553.506864 175.982801 
L 556.279924 175.916797 
L 559.052985 175.957143 
L 560.439515 175.684418 
L 565.985636 175.403145 
L 568.758696 175.364585 
L 570.145227 175.219736 
L 571.531757 175.233547 
L 572.918287 175.462472 
L 575.691348 175.157412 
L 578.464408 174.974334 
L 581.237468 175.533445 
L 582.623999 175.801975 
L 584.010529 175.942184 
L 590.94318 175.923067 
L 592.32971 175.942242 
L 593.71624 175.23649 
L 595.102771 175.03851 
L 596.489301 175.039047 
L 597.875831 174.80922 
L 599.262361 173.88126 
L 600.648892 174.025807 
L 602.035422 175.129141 
L 603.421952 175.584129 
L 604.808482 175.465399 
L 606.195012 174.752403 
L 607.581543 174.714922 
L 608.968073 175.19188 
L 610.354603 175.481407 
L 613.127664 175.746362 
L 620.060315 176.447877 
L 624.219905 176.899733 
L 625.606436 176.861788 
L 626.992966 178.659019 
L 628.379496 178.623058 
L 629.766026 178.757381 
L 631.152557 179.608009 
L 632.539087 180.716461 
L 633.925617 181.621747 
L 635.312147 181.775229 
L 636.698677 183.135021 
L 638.085208 187.380367 
L 639.471738 194.806403 
L 640.858268 190.044306 
L 642.244798 187.569177 
L 643.631329 186.343909 
L 645.017859 186.495125 
L 646.404389 186.853531 
L 647.790919 184.658341 
L 649.177449 183.78736 
L 650.56398 184.313615 
L 651.95051 181.8046 
L 654.72357 178.73189 
L 656.110101 177.906628 
L 657.496631 176.536299 
L 658.883161 176.392567 
L 660.269691 179.590408 
L 661.656221 179.611949 
L 663.042752 179.313511 
L 664.429282 172.614537 
L 665.815812 176.964747 
L 667.202342 187.512908 
L 668.588873 173.761894 
L 669.975403 170.155766 
L 671.361933 315.655909 
L 672.748463 174.016462 
L 674.134993 156.052816 
L 675.521524 172.324434 
L 676.908054 166.703381 
L 678.294584 154.3611 
L 679.681114 146.879158 
L 681.067645 152.467522 
L 682.454175 164.314302 
L 683.840705 174.453256 
L 685.227235 188.908742 
L 686.613765 213.183311 
L 688.000296 209.04697 
L 689.386826 174.147087 
L 690.773356 162.912162 
L 692.159886 146.87536 
L 692.159886 146.87536 
" clip-path="url(#pbc8c56434d)" style="fill: none; stroke: #59a14f; stroke-opacity: 0.95; stroke-width: 1.8; stroke-linecap: square"/>
   </g>
   <g id="line2d_44">
    <path d="M 414.09125 175.94511 
L 705.40125 175.94511 
" clip-path="url(#pbc8c56434d)" style="fill: none; stroke: #888888; stroke-opacity: 0.6; stroke-linecap: square"/>
   </g>
   <g id="patch_8">
    <path d="M 414.09125 327.35 
L 414.09125 70.08 
" style="fill: none; stroke: #000000; stroke-width: 0.8; stroke-linejoin: miter; stroke-linecap: square"/>
   </g>
   <g id="patch_9">
    <path d="M 705.40125 327.35 
L 705.40125 70.08 
" style="fill: none; stroke: #000000; stroke-width: 0.8; stroke-linejoin: miter; stroke-linecap: square"/>
   </g>
   <g id="patch_10">
    <path d="M 414.09125 327.35 
L 705.40125 327.35 
" style="fill: none; stroke: #000000; stroke-width: 0.8; stroke-linejoin: miter; stroke-linecap: square"/>
   </g>
   <g id="patch_11">
    <path d="M 414.09125 70.08 
L 705.40125 70.08 
" style="fill: none; stroke: #000000; stroke-width: 0.8; stroke-linejoin: miter; stroke-linecap: square"/>
   </g>
   <g id="text_23">
    <!-- Renewable (n=4) -->
    <g transform="translate(512.012266 64.08) scale(0.11 -0.11)">
     <defs>
      <path id="DejaVuSans-52" d="M 2841 2188 
Q 3044 2119 3236 1894 
Q 3428 1669 3622 1275 
L 4263 0 
L 3584 0 
L 2988 1197 
Q 2756 1666 2539 1819 
Q 2322 1972 1947 1972 
L 1259 1972 
L 1259 0 
L 628 0 
L 628 4666 
L 2053 4666 
Q 2853 4666 3247 4331 
Q 3641 3997 3641 3322 
Q 3641 2881 3436 2590 
Q 3231 2300 2841 2188 
z
M 1259 4147 
L 1259 2491 
L 2053 2491 
Q 2509 2491 2742 2702 
Q 2975 2913 2975 3322 
Q 2975 3731 2742 3939 
Q 2509 4147 2053 4147 
L 1259 4147 
z
" transform="scale(0.015625)"/>
      <path id="DejaVuSans-77" d="M 269 3500 
L 844 3500 
L 1563 769 
L 2278 3500 
L 2956 3500 
L 3675 769 
L 4391 3500 
L 4966 3500 
L 4050 0 
L 3372 0 
L 2619 2869 
L 1863 0 
L 1184 0 
L 269 3500 
z
" transform="scale(0.015625)"/>
     </defs>
     <use xlink:href="#DejaVuSans-52"/>
     <use xlink:href="#DejaVuSans-65" transform="translate(64.982422 0)"/>
     <use xlink:href="#DejaVuSans-6e" transform="translate(126.505859 0)"/>
     <use xlink:href="#DejaVuSans-65" transform="translate(189.884766 0)"/>
     <use xlink:href="#DejaVuSans-77" transform="translate(251.408203 0)"/>
     <use xlink:href="#DejaVuSans-61" transform="translate(333.195312 0)"/>
     <use xlink:href="#DejaVuSans-62" transform="translate(394.474609 0)"/>
     <use xlink:href="#DejaVuSans-6c" transform="translate(457.951172 0)"/>
     <use xlink:href="#DejaVuSans-65" transform="translate(485.734375 0)"/>
     <use xlink:href="#DejaVuSans-20" transform="translate(547.257812 0)"/>
     <use xlink:href="#DejaVuSans-28" transform="translate(579.044922 0)"/>
     <use xlink:href="#DejaVuSans-6e" transform="translate(618.058594 0)"/>
     <use xlink:href="#DejaVuSans-3d" transform="translate(681.4375 0)"/>
     <use xlink:href="#DejaVuSans-34" transform="translate(765.226562 0)"/>
     <use xlink:href="#DejaVuSans-29" transform="translate(828.849609 0)"/>
    </g>
   </g>
   <g id="legend_2">
    <g id="line2d_45">
     <path d="M 421.29125 80.55875 
L 429.29125 80.55875 
L 437.29125 80.55875 
" style="fill: none; stroke: #59a14f; stroke-opacity: 0.95; stroke-width: 1.8; stroke-linecap: square"/>
    </g>
    <g id="text_24">
     <!-- Forecast Solar Day Ahead -->
     <g transform="translate(443.69125 83.35875) scale(0.08 -0.08)">
      <use xlink:href="#DejaVuSans-46"/>
      <use xlink:href="#DejaVuSans-6f" transform="translate(53.894531 0)"/>
      <use xlink:href="#DejaVuSans-72" transform="translate(115.076172 0)"/>
      <use xlink:href="#DejaVuSans-65" transform="translate(153.939453 0)"/>
      <use xlink:href="#DejaVuSans-63" transform="translate(215.462891 0)"/>
      <use xlink:href="#DejaVuSans-61" transform="translate(270.443359 0)"/>
      <use xlink:href="#DejaVuSans-73" transform="translate(331.722656 0)"/>
      <use xlink:href="#DejaVuSans-74" transform="translate(383.822266 0)"/>
      <use xlink:href="#DejaVuSans-20" transform="translate(423.03125 0)"/>
      <use xlink:href="#DejaVuSans-53" transform="translate(454.818359 0)"/>
      <use xlink:href="#DejaVuSans-6f" transform="translate(518.294922 0)"/>
      <use xlink:href="#DejaVuSans-6c" transform="translate(579.476562 0)"/>
      <use xlink:href="#DejaVuSans-61" transform="translate(607.259766 0)"/>
      <use xlink:href="#DejaVuSans-72" transform="translate(668.539062 0)"/>
      <use xlink:href="#DejaVuSans-20" transform="translate(709.652344 0)"/>
      <use xlink:href="#DejaVuSans-44" transform="translate(741.439453 0)"/>
      <use xlink:href="#DejaVuSans-61" transform="translate(818.441406 0)"/>
      <use xlink:href="#DejaVuSans-79" transform="translate(879.720703 0)"/>
      <use xlink:href="#DejaVuSans-20" transform="translate(938.900391 0)"/>
      <use xlink:href="#DejaVuSans-41" transform="translate(970.6875 0)"/>
      <use xlink:href="#DejaVuSans-68" transform="translate(1039.095703 0)"/>
      <use xlink:href="#DejaVuSans-65" transform="translate(1102.474609 0)"/>
      <use xlink:href="#DejaVuSans-61" transform="translate(1163.998047 0)"/>
      <use xlink:href="#DejaVuSans-64" transform="translate(1225.277344 0)"/>
     </g>
    </g>
    <g id="line2d_46">
     <path d="M 421.29125 92.30125 
L 429.29125 92.30125 
L 437.29125 92.30125 
" style="fill: none; stroke: #8cd17d; stroke-opacity: 0.95; stroke-width: 1.8; stroke-linecap: square"/>
    </g>
    <g id="text_25">
     <!-- Wind Speed Weighted -->
     <g transform="translate(443.69125 95.10125) scale(0.08 -0.08)">
      <defs>
       <path id="DejaVuSans-67" d="M 2906 1791 
Q 2906 2416 2648 2759 
Q 2391 3103 1925 3103 
Q 1463 3103 1205 2759 
Q 947 2416 947 1791 
Q 947 1169 1205 825 
Q 1463 481 1925 481 
Q 2391 481 2648 825 
Q 2906 1169 2906 1791 
z
M 3481 434 
Q 3481 -459 3084 -895 
Q 2688 -1331 1869 -1331 
Q 1566 -1331 1297 -1286 
Q 1028 -1241 775 -1147 
L 775 -588 
Q 1028 -725 1275 -790 
Q 1522 -856 1778 -856 
Q 2344 -856 2625 -561 
Q 2906 -266 2906 331 
L 2906 616 
Q 2728 306 2450 153 
Q 2172 0 1784 0 
Q 1141 0 747 490 
Q 353 981 353 1791 
Q 353 2603 747 3093 
Q 1141 3584 1784 3584 
Q 2172 3584 2450 3431 
Q 2728 3278 2906 2969 
L 2906 3500 
L 3481 3500 
L 3481 434 
z
" transform="scale(0.015625)"/>
      </defs>
      <use xlink:href="#DejaVuSans-57"/>
      <use xlink:href="#DejaVuSans-69" transform="translate(96.626953 0)"/>
      <use xlink:href="#DejaVuSans-6e" transform="translate(124.410156 0)"/>
      <use xlink:href="#DejaVuSans-64" transform="translate(187.789062 0)"/>
      <use xlink:href="#DejaVuSans-20" transform="translate(251.265625 0)"/>
      <use xlink:href="#DejaVuSans-53" transform="translate(283.052734 0)"/>
      <use xlink:href="#DejaVuSans-70" transform="translate(346.529297 0)"/>
      <use xlink:href="#DejaVuSans-65" transform="translate(410.005859 0)"/>
      <use xlink:href="#DejaVuSans-65" transform="translate(471.529297 0)"/>
      <use xlink:href="#DejaVuSans-64" transform="translate(533.052734 0)"/>
      <use xlink:href="#DejaVuSans-20" transform="translate(596.529297 0)"/>
      <use xlink:href="#DejaVuSans-57" transform="translate(628.316406 0)"/>
      <use xlink:href="#DejaVuSans-65" transform="translate(721.318359 0)"/>
      <use xlink:href="#DejaVuSans-69" transform="translate(782.841797 0)"/>
      <use xlink:href="#DejaVuSans-67" transform="translate(810.625 0)"/>
      <use xlink:href="#DejaVuSans-68" transform="translate(874.101562 0)"/>
      <use xlink:href="#DejaVuSans-74" transform="translate(937.480469 0)"/>
      <use xlink:href="#DejaVuSans-65" transform="translate(976.689453 0)"/>
      <use xlink:href="#DejaVuSans-64" transform="translate(1038.212891 0)"/>
     </g>
    </g>
    <g id="line2d_47">
     <path d="M 421.29125 104.04375 
L 429.29125 104.04375 
L 437.29125 104.04375 
" style="fill: none; stroke: #2e7d32; stroke-opacity: 0.95; stroke-width: 1.8; stroke-linecap: square"/>
    </g>
    <g id="text_26">
     <!-- Wind Deg Weighted -->
     <g transform="translate(443.69125 106.84375) scale(0.08 -0.08)">
      <use xlink:href="#DejaVuSans-57"/>
      <use xlink:href="#DejaVuSans-69" transform="translate(96.626953 0)"/>
      <use xlink:href="#DejaVuSans-6e" transform="translate(124.410156 0)"/>
      <use xlink:href="#DejaVuSans-64" transform="translate(187.789062 0)"/>
      <use xlink:href="#DejaVuSans-20" transform="translate(251.265625 0)"/>
      <use xlink:href="#DejaVuSans-44" transform="translate(283.052734 0)"/>
      <use xlink:href="#DejaVuSans-65" transform="translate(360.054688 0)"/>
      <use xlink:href="#DejaVuSans-67" transform="translate(421.578125 0)"/>
      <use xlink:href="#DejaVuSans-20" transform="translate(485.054688 0)"/>
      <use xlink:href="#DejaVuSans-57" transform="translate(516.841797 0)"/>
      <use xlink:href="#DejaVuSans-65" transform="translate(609.84375 0)"/>
      <use xlink:href="#DejaVuSans-69" transform="translate(671.367188 0)"/>
      <use xlink:href="#DejaVuSans-67" transform="translate(699.150391 0)"/>
      <use xlink:href="#DejaVuSans-68" transform="translate(762.626953 0)"/>
      <use xlink:href="#DejaVuSans-74" transform="translate(826.005859 0)"/>
      <use xlink:href="#DejaVuSans-65" transform="translate(865.214844 0)"/>
      <use xlink:href="#DejaVuSans-64" transform="translate(926.738281 0)"/>
     </g>
    </g>
    <g id="line2d_48">
     <path d="M 421.29125 115.78625 
L 429.29125 115.78625 
L 437.29125 115.78625 
" style="fill: none; stroke: #59a14f; stroke-opacity: 0.95; stroke-width: 1.8; stroke-linecap: square"/>
    </g>
    <g id="text_27">
     <!-- Forecast Wind Onshore Day Ahead -->
     <g transform="translate(443.69125 118.58625) scale(0.08 -0.08)">
      <use xlink:href="#DejaVuSans-46"/>
      <use xlink:href="#DejaVuSans-6f" transform="translate(53.894531 0)"/>
      <use xlink:href="#DejaVuSans-72" transform="translate(115.076172 0)"/>
      <use xlink:href="#DejaVuSans-65" transform="translate(153.939453 0)"/>
      <use xlink:href="#DejaVuSans-63" transform="translate(215.462891 0)"/>
      <use xlink:href="#DejaVuSans-61" transform="translate(270.443359 0)"/>
      <use xlink:href="#DejaVuSans-73" transform="translate(331.722656 0)"/>
      <use xlink:href="#DejaVuSans-74" transform="translate(383.822266 0)"/>
      <use xlink:href="#DejaVuSans-20" transform="translate(423.03125 0)"/>
      <use xlink:href="#DejaVuSans-57" transform="translate(454.818359 0)"/>
      <use xlink:href="#DejaVuSans-69" transform="translate(551.445312 0)"/>
      <use xlink:href="#DejaVuSans-6e" transform="translate(579.228516 0)"/>
      <use xlink:href="#DejaVuSans-64" transform="translate(642.607422 0)"/>
      <use xlink:href="#DejaVuSans-20" transform="translate(706.083984 0)"/>
      <use xlink:href="#DejaVuSans-4f" transform="translate(737.871094 0)"/>
      <use xlink:href="#DejaVuSans-6e" transform="translate(816.582031 0)"/>
      <use xlink:href="#DejaVuSans-73" transform="translate(879.960938 0)"/>
      <use xlink:href="#DejaVuSans-68" transform="translate(932.060547 0)"/>
      <use xlink:href="#DejaVuSans-6f" transform="translate(995.439453 0)"/>
      <use xlink:href="#DejaVuSans-72" transform="translate(1056.621094 0)"/>
      <use xlink:href="#DejaVuSans-65" transform="translate(1095.484375 0)"/>
      <use xlink:href="#DejaVuSans-20" transform="translate(1157.007812 0)"/>
      <use xlink:href="#DejaVuSans-44" transform="translate(1188.794922 0)"/>
      <use xlink:href="#DejaVuSans-61" transform="translate(1265.796875 0)"/>
      <use xlink:href="#DejaVuSans-79" transform="translate(1327.076172 0)"/>
      <use xlink:href="#DejaVuSans-20" transform="translate(1386.255859 0)"/>
      <use xlink:href="#DejaVuSans-41" transform="translate(1418.042969 0)"/>
      <use xlink:href="#DejaVuSans-68" transform="translate(1486.451172 0)"/>
      <use xlink:href="#DejaVuSans-65" transform="translate(1549.830078 0)"/>
      <use xlink:href="#DejaVuSans-61" transform="translate(1611.353516 0)"/>
      <use xlink:href="#DejaVuSans-64" transform="translate(1672.632812 0)"/>
     </g>
    </g>
   </g>
  </g>
  <g id="axes_3">
   <g id="patch_12">
    <path d="M 59.49125 628.36 
L 350.80125 628.36 
L 350.80125 371.09 
L 59.49125 371.09 
z
" style="fill: #ffffff"/>
   </g>
   <g id="matplotlib.axis_5">
    <g id="xtick_19">
     <g id="line2d_49">
      <g>
       <use xlink:href="#mf6f79dd405" x="72.732614" y="628.36" style="stroke: #000000; stroke-width: 0.8"/>
      </g>
     </g>
     <g id="text_28">
      <!-- 0 -->
      <g transform="translate(70.187614 641.43875) scale(0.08 -0.08)">
       <use xlink:href="#DejaVuSans-30"/>
      </g>
     </g>
    </g>
    <g id="xtick_20">
     <g id="line2d_50">
      <g>
       <use xlink:href="#mf6f79dd405" x="107.395869" y="628.36" style="stroke: #000000; stroke-width: 0.8"/>
      </g>
     </g>
     <g id="text_29">
      <!-- 25 -->
      <g transform="translate(102.305869 641.43875) scale(0.08 -0.08)">
       <defs>
        <path id="DejaVuSans-35" d="M 691 4666 
L 3169 4666 
L 3169 4134 
L 1269 4134 
L 1269 2991 
Q 1406 3038 1543 3061 
Q 1681 3084 1819 3084 
Q 2600 3084 3056 2656 
Q 3513 2228 3513 1497 
Q 3513 744 3044 326 
Q 2575 -91 1722 -91 
Q 1428 -91 1123 -41 
Q 819 9 494 109 
L 494 744 
Q 775 591 1075 516 
Q 1375 441 1709 441 
Q 2250 441 2565 725 
Q 2881 1009 2881 1497 
Q 2881 1984 2565 2268 
Q 2250 2553 1709 2553 
Q 1456 2553 1204 2497 
Q 953 2441 691 2322 
L 691 4666 
z
" transform="scale(0.015625)"/>
       </defs>
       <use xlink:href="#DejaVuSans-32"/>
       <use xlink:href="#DejaVuSans-35" transform="translate(63.623047 0)"/>
      </g>
     </g>
    </g>
    <g id="xtick_21">
     <g id="line2d_51">
      <g>
       <use xlink:href="#mf6f79dd405" x="142.059125" y="628.36" style="stroke: #000000; stroke-width: 0.8"/>
      </g>
     </g>
     <g id="text_30">
      <!-- 50 -->
      <g transform="translate(136.969125 641.43875) scale(0.08 -0.08)">
       <use xlink:href="#DejaVuSans-35"/>
       <use xlink:href="#DejaVuSans-30" transform="translate(63.623047 0)"/>
      </g>
     </g>
    </g>
    <g id="xtick_22">
     <g id="line2d_52">
      <g>
       <use xlink:href="#mf6f79dd405" x="176.72238" y="628.36" style="stroke: #000000; stroke-width: 0.8"/>
      </g>
     </g>
     <g id="text_31">
      <!-- 75 -->
      <g transform="translate(171.63238 641.43875) scale(0.08 -0.08)">
       <defs>
        <path id="DejaVuSans-37" d="M 525 4666 
L 3525 4666 
L 3525 4397 
L 1831 0 
L 1172 0 
L 2766 4134 
L 525 4134 
L 525 4666 
z
" transform="scale(0.015625)"/>
       </defs>
       <use xlink:href="#DejaVuSans-37"/>
       <use xlink:href="#DejaVuSans-35" transform="translate(63.623047 0)"/>
      </g>
     </g>
    </g>
    <g id="xtick_23">
     <g id="line2d_53">
      <g>
       <use xlink:href="#mf6f79dd405" x="211.385636" y="628.36" style="stroke: #000000; stroke-width: 0.8"/>
      </g>
     </g>
     <g id="text_32">
      <!-- 100 -->
      <g transform="translate(203.750636 641.43875) scale(0.08 -0.08)">
       <defs>
        <path id="DejaVuSans-31" d="M 794 531 
L 1825 531 
L 1825 4091 
L 703 3866 
L 703 4441 
L 1819 4666 
L 2450 4666 
L 2450 531 
L 3481 531 
L 3481 0 
L 794 0 
L 794 531 
z
" transform="scale(0.015625)"/>
       </defs>
       <use xlink:href="#DejaVuSans-31"/>
       <use xlink:href="#DejaVuSans-30" transform="translate(63.623047 0)"/>
       <use xlink:href="#DejaVuSans-30" transform="translate(127.246094 0)"/>
      </g>
     </g>
    </g>
    <g id="xtick_24">
     <g id="line2d_54">
      <g>
       <use xlink:href="#mf6f79dd405" x="246.048892" y="628.36" style="stroke: #000000; stroke-width: 0.8"/>
      </g>
     </g>
     <g id="text_33">
      <!-- 125 -->
      <g transform="translate(238.413892 641.43875) scale(0.08 -0.08)">
       <use xlink:href="#DejaVuSans-31"/>
       <use xlink:href="#DejaVuSans-32" transform="translate(63.623047 0)"/>
       <use xlink:href="#DejaVuSans-35" transform="translate(127.246094 0)"/>
      </g>
     </g>
    </g>
    <g id="xtick_25">
     <g id="line2d_55">
      <g>
       <use xlink:href="#mf6f79dd405" x="280.712147" y="628.36" style="stroke: #000000; stroke-width: 0.8"/>
      </g>
     </g>
     <g id="text_34">
      <!-- 150 -->
      <g transform="translate(273.077147 641.43875) scale(0.08 -0.08)">
       <use xlink:href="#DejaVuSans-31"/>
       <use xlink:href="#DejaVuSans-35" transform="translate(63.623047 0)"/>
       <use xlink:href="#DejaVuSans-30" transform="translate(127.246094 0)"/>
      </g>
     </g>
    </g>
    <g id="xtick_26">
     <g id="line2d_56">
      <g>
       <use xlink:href="#mf6f79dd405" x="315.375403" y="628.36" style="stroke: #000000; stroke-width: 0.8"/>
      </g>
     </g>
     <g id="text_35">
      <!-- 175 -->
      <g transform="translate(307.740403 641.43875) scale(0.08 -0.08)">
       <use xlink:href="#DejaVuSans-31"/>
       <use xlink:href="#DejaVuSans-37" transform="translate(63.623047 0)"/>
       <use xlink:href="#DejaVuSans-35" transform="translate(127.246094 0)"/>
      </g>
     </g>
    </g>
    <g id="xtick_27">
     <g id="line2d_57">
      <g>
       <use xlink:href="#mf6f79dd405" x="350.038658" y="628.36" style="stroke: #000000; stroke-width: 0.8"/>
      </g>
     </g>
     <g id="text_36">
      <!-- 200 -->
      <g transform="translate(342.403658 641.43875) scale(0.08 -0.08)">
       <use xlink:href="#DejaVuSans-32"/>
       <use xlink:href="#DejaVuSans-30" transform="translate(63.623047 0)"/>
       <use xlink:href="#DejaVuSans-30" transform="translate(127.246094 0)"/>
      </g>
     </g>
    </g>
    <g id="text_37">
     <!-- Time Steps -->
     <g transform="translate(174.5525 655.460781) scale(0.11 -0.11)">
      <use xlink:href="#DejaVuSans-54"/>
      <use xlink:href="#DejaVuSans-69" transform="translate(57.958984 0)"/>
      <use xlink:href="#DejaVuSans-6d" transform="translate(85.742188 0)"/>
      <use xlink:href="#DejaVuSans-65" transform="translate(183.154297 0)"/>
      <use xlink:href="#DejaVuSans-20" transform="translate(244.677734 0)"/>
      <use xlink:href="#DejaVuSans-53" transform="translate(276.464844 0)"/>
      <use xlink:href="#DejaVuSans-74" transform="translate(339.941406 0)"/>
      <use xlink:href="#DejaVuSans-65" transform="translate(379.150391 0)"/>
      <use xlink:href="#DejaVuSans-70" transform="translate(440.673828 0)"/>
      <use xlink:href="#DejaVuSans-73" transform="translate(504.150391 0)"/>
     </g>
    </g>
   </g>
   <g id="matplotlib.axis_6">
    <g id="ytick_15">
     <g id="line2d_58">
      <g>
       <use xlink:href="#mb21ba33b74" x="59.49125" y="610.748756" style="stroke: #000000; stroke-width: 0.8"/>
      </g>
     </g>
     <g id="text_38">
      <!-- −0.12 -->
      <g transform="translate(21.845938 614.547975) scale(0.1 -0.1)">
       <use xlink:href="#DejaVuSans-2212"/>
       <use xlink:href="#DejaVuSans-30" transform="translate(83.789062 0)"/>
       <use xlink:href="#DejaVuSans-2e" transform="translate(147.412109 0)"/>
       <use xlink:href="#DejaVuSans-31" transform="translate(179.199219 0)"/>
       <use xlink:href="#DejaVuSans-32" transform="translate(242.822266 0)"/>
      </g>
     </g>
    </g>
    <g id="ytick_16">
     <g id="line2d_59">
      <g>
       <use xlink:href="#mb21ba33b74" x="59.49125" y="574.911425" style="stroke: #000000; stroke-width: 0.8"/>
      </g>
     </g>
     <g id="text_39">
      <!-- −0.10 -->
      <g transform="translate(21.845938 578.710644) scale(0.1 -0.1)">
       <use xlink:href="#DejaVuSans-2212"/>
       <use xlink:href="#DejaVuSans-30" transform="translate(83.789062 0)"/>
       <use xlink:href="#DejaVuSans-2e" transform="translate(147.412109 0)"/>
       <use xlink:href="#DejaVuSans-31" transform="translate(179.199219 0)"/>
       <use xlink:href="#DejaVuSans-30" transform="translate(242.822266 0)"/>
      </g>
     </g>
    </g>
    <g id="ytick_17">
     <g id="line2d_60">
      <g>
       <use xlink:href="#mb21ba33b74" x="59.49125" y="539.074094" style="stroke: #000000; stroke-width: 0.8"/>
      </g>
     </g>
     <g id="text_40">
      <!-- −0.08 -->
      <g transform="translate(21.845938 542.873313) scale(0.1 -0.1)">
       <use xlink:href="#DejaVuSans-2212"/>
       <use xlink:href="#DejaVuSans-30" transform="translate(83.789062 0)"/>
       <use xlink:href="#DejaVuSans-2e" transform="translate(147.412109 0)"/>
       <use xlink:href="#DejaVuSans-30" transform="translate(179.199219 0)"/>
       <use xlink:href="#DejaVuSans-38" transform="translate(242.822266 0)"/>
      </g>
     </g>
    </g>
    <g id="ytick_18">
     <g id="line2d_61">
      <g>
       <use xlink:href="#mb21ba33b74" x="59.49125" y="503.236763" style="stroke: #000000; stroke-width: 0.8"/>
      </g>
     </g>
     <g id="text_41">
      <!-- −0.06 -->
      <g transform="translate(21.845938 507.035982) scale(0.1 -0.1)">
       <use xlink:href="#DejaVuSans-2212"/>
       <use xlink:href="#DejaVuSans-30" transform="translate(83.789062 0)"/>
       <use xlink:href="#DejaVuSans-2e" transform="translate(147.412109 0)"/>
       <use xlink:href="#DejaVuSans-30" transform="translate(179.199219 0)"/>
       <use xlink:href="#DejaVuSans-36" transform="translate(242.822266 0)"/>
      </g>
     </g>
    </g>
    <g id="ytick_19">
     <g id="line2d_62">
      <g>
       <use xlink:href="#mb21ba33b74" x="59.49125" y="467.399433" style="stroke: #000000; stroke-width: 0.8"/>
      </g>
     </g>
     <g id="text_42">
      <!-- −0.04 -->
      <g transform="translate(21.845938 471.198651) scale(0.1 -0.1)">
       <use xlink:href="#DejaVuSans-2212"/>
       <use xlink:href="#DejaVuSans-30" transform="translate(83.789062 0)"/>
       <use xlink:href="#DejaVuSans-2e" transform="translate(147.412109 0)"/>
       <use xlink:href="#DejaVuSans-30" transform="translate(179.199219 0)"/>
       <use xlink:href="#DejaVuSans-34" transform="translate(242.822266 0)"/>
      </g>
     </g>
    </g>
    <g id="ytick_20">
     <g id="line2d_63">
      <g>
       <use xlink:href="#mb21ba33b74" x="59.49125" y="431.562102" style="stroke: #000000; stroke-width: 0.8"/>
      </g>
     </g>
     <g id="text_43">
      <!-- −0.02 -->
      <g transform="translate(21.845938 435.36132) scale(0.1 -0.1)">
       <use xlink:href="#DejaVuSans-2212"/>
       <use xlink:href="#DejaVuSans-30" transform="translate(83.789062 0)"/>
       <use xlink:href="#DejaVuSans-2e" transform="translate(147.412109 0)"/>
       <use xlink:href="#DejaVuSans-30" transform="translate(179.199219 0)"/>
       <use xlink:href="#DejaVuSans-32" transform="translate(242.822266 0)"/>
      </g>
     </g>
    </g>
    <g id="ytick_21">
     <g id="line2d_64">
      <g>
       <use xlink:href="#mb21ba33b74" x="59.49125" y="395.724771" style="stroke: #000000; stroke-width: 0.8"/>
      </g>
     </g>
     <g id="text_44">
      <!-- 0.00 -->
      <g transform="translate(30.225625 399.52399) scale(0.1 -0.1)">
       <use xlink:href="#DejaVuSans-30"/>
       <use xlink:href="#DejaVuSans-2e" transform="translate(63.623047 0)"/>
       <use xlink:href="#DejaVuSans-30" transform="translate(95.410156 0)"/>
       <use xlink:href="#DejaVuSans-30" transform="translate(159.033203 0)"/>
      </g>
     </g>
    </g>
    <g id="text_45">
     <!-- Attribution (IG) -->
     <g transform="translate(15.558281 540.928594) rotate(-90) scale(0.11 -0.11)">
      <use xlink:href="#DejaVuSans-41"/>
      <use xlink:href="#DejaVuSans-74" transform="translate(66.658203 0)"/>
      <use xlink:href="#DejaVuSans-74" transform="translate(105.867188 0)"/>
      <use xlink:href="#DejaVuSans-72" transform="translate(145.076172 0)"/>
      <use xlink:href="#DejaVuSans-69" transform="translate(186.189453 0)"/>
      <use xlink:href="#DejaVuSans-62" transform="translate(213.972656 0)"/>
      <use xlink:href="#DejaVuSans-75" transform="translate(277.449219 0)"/>
      <use xlink:href="#DejaVuSans-74" transform="translate(340.828125 0)"/>
      <use xlink:href="#DejaVuSans-69" transform="translate(380.037109 0)"/>
      <use xlink:href="#DejaVuSans-6f" transform="translate(407.820312 0)"/>
      <use xlink:href="#DejaVuSans-6e" transform="translate(469.001953 0)"/>
      <use xlink:href="#DejaVuSans-20" transform="translate(532.380859 0)"/>
      <use xlink:href="#DejaVuSans-28" transform="translate(564.167969 0)"/>
      <use xlink:href="#DejaVuSans-49" transform="translate(603.181641 0)"/>
      <use xlink:href="#DejaVuSans-47" transform="translate(632.673828 0)"/>
      <use xlink:href="#DejaVuSans-29" transform="translate(710.164062 0)"/>
     </g>
    </g>
   </g>
   <g id="line2d_65">
    <path d="M 72.732614 395.768105 
L 104.622809 395.673333 
L 110.16893 395.738098 
L 124.034232 395.76266 
L 129.580353 395.777457 
L 132.353413 395.777498 
L 162.857078 395.838879 
L 164.243608 395.63848 
L 168.403199 395.532045 
L 171.17626 395.814458 
L 173.94932 395.62226 
L 175.33585 395.607373 
L 176.72238 395.723549 
L 178.108911 395.692277 
L 179.495441 395.549751 
L 183.655032 395.649003 
L 185.041562 395.459273 
L 186.428092 395.051112 
L 190.587683 394.396242 
L 191.974213 394.709579 
L 193.360743 395.208702 
L 194.747273 395.049215 
L 197.520334 392.880539 
L 198.906864 393.280029 
L 200.293394 393.421828 
L 201.679924 394.128355 
L 203.066455 394.414948 
L 212.772166 394.974697 
L 214.158696 395.028167 
L 215.545227 394.567454 
L 216.931757 395.004239 
L 218.318287 395.584855 
L 219.704817 395.160134 
L 221.091348 394.318317 
L 222.477878 393.637321 
L 223.864408 393.088929 
L 225.250938 393.678536 
L 226.637468 394.128667 
L 229.410529 396.314736 
L 230.797059 396.02693 
L 232.183589 396.318525 
L 233.57012 397.045278 
L 234.95665 396.150509 
L 237.72971 396.173026 
L 239.11624 394.308162 
L 240.502771 393.823094 
L 241.889301 393.494866 
L 243.275831 391.963486 
L 244.662361 390.734956 
L 246.048892 388.944685 
L 247.435422 390.644877 
L 248.821952 393.721162 
L 250.208482 394.306355 
L 251.595012 392.875978 
L 252.981543 392.712732 
L 254.368073 394.506669 
L 255.754603 395.934126 
L 257.141133 396.451373 
L 258.527664 397.262446 
L 261.300724 397.109065 
L 262.687254 400.585114 
L 264.073785 398.953061 
L 265.460315 400.965763 
L 266.846845 400.077344 
L 268.233375 400.558038 
L 269.619905 398.865872 
L 271.006436 400.215924 
L 272.392966 391.307869 
L 273.779496 384.734532 
L 275.166026 382.784091 
L 276.552557 393.632945 
L 277.939087 391.083918 
L 279.325617 398.998206 
L 280.712147 397.851041 
L 282.098677 396.005602 
L 283.485208 396.398977 
L 284.871738 402.917383 
L 286.258268 411.410961 
L 287.644798 408.466524 
L 289.031329 411.104436 
L 290.417859 418.566283 
L 291.804389 419.172103 
L 293.190919 419.219301 
L 294.577449 415.485132 
L 295.96398 413.904244 
L 297.35051 409.652804 
L 298.73704 408.839256 
L 300.12357 404.243314 
L 301.510101 406.788858 
L 302.896631 404.764111 
L 304.283161 399.815093 
L 305.669691 391.613491 
L 307.056221 393.838521 
L 308.442752 395.431651 
L 309.829282 395.899305 
L 311.215812 394.63425 
L 312.602342 396.679507 
L 313.988873 396.708569 
L 315.375403 395.953876 
L 316.761933 395.90921 
L 318.148463 410.707144 
L 319.534993 398.846278 
L 320.921524 389.756069 
L 322.308054 401.456712 
L 323.694584 417.007842 
L 325.081114 431.206956 
L 326.467645 440.131098 
L 327.854175 467.016513 
L 329.240705 466.522981 
L 330.627235 515.63777 
L 333.400296 532.884157 
L 334.786826 543.632721 
L 336.173356 604.141081 
L 337.559886 616.665909 
L 337.559886 616.665909 
" clip-path="url(#pbbb77f2eef)" style="fill: none; stroke: #b07aa1; stroke-opacity: 0.95; stroke-width: 1.8; stroke-linecap: square"/>
   </g>
   <g id="line2d_66">
    <path d="M 59.49125 395.724771 
L 350.80125 395.724771 
" clip-path="url(#pbbb77f2eef)" style="fill: none; stroke: #888888; stroke-opacity: 0.6; stroke-linecap: square"/>
   </g>
   <g id="patch_13">
    <path d="M 59.49125 628.36 
L 59.49125 371.09 
" style="fill: none; stroke: #000000; stroke-width: 0.8; stroke-linejoin: miter; stroke-linecap: square"/>
   </g>
   <g id="patch_14">
    <path d="M 350.80125 628.36 
L 350.80125 371.09 
" style="fill: none; stroke: #000000; stroke-width: 0.8; stroke-linejoin: miter; stroke-linecap: square"/>
   </g>
   <g id="patch_15">
    <path d="M 59.49125 628.36 
L 350.80125 628.36 
" style="fill: none; stroke: #000000; stroke-width: 0.8; stroke-linejoin: miter; stroke-linecap: square"/>
   </g>
   <g id="patch_16">
    <path d="M 59.49125 371.09 
L 350.80125 371.09 
" style="fill: none; stroke: #000000; stroke-width: 0.8; stroke-linejoin: miter; stroke-linecap: square"/>
   </g>
   <g id="text_46">
    <!-- Weather (n=1) -->
    <g transform="translate(164.356016 365.09) scale(0.11 -0.11)">
     <use xlink:href="#DejaVuSans-57"/>
     <use xlink:href="#DejaVuSans-65" transform="translate(93.001953 0)"/>
     <use xlink:href="#DejaVuSans-61" transform="translate(154.525391 0)"/>
     <use xlink:href="#DejaVuSans-74" transform="translate(215.804688 0)"/>
     <use xlink:href="#DejaVuSans-68" transform="translate(255.013672 0)"/>
     <use xlink:href="#DejaVuSans-65" transform="translate(318.392578 0)"/>
     <use xlink:href="#DejaVuSans-72" transform="translate(379.916016 0)"/>
     <use xlink:href="#DejaVuSans-20" transform="translate(421.029297 0)"/>
     <use xlink:href="#DejaVuSans-28" transform="translate(452.816406 0)"/>
     <use xlink:href="#DejaVuSans-6e" transform="translate(491.830078 0)"/>
     <use xlink:href="#DejaVuSans-3d" transform="translate(555.208984 0)"/>
     <use xlink:href="#DejaVuSans-31" transform="translate(638.998047 0)"/>
     <use xlink:href="#DejaVuSans-29" transform="translate(702.621094 0)"/>
    </g>
   </g>
   <g id="legend_3">
    <g id="line2d_67">
     <path d="M 66.69125 381.56875 
L 74.69125 381.56875 
L 82.69125 381.56875 
" style="fill: none; stroke: #b07aa1; stroke-opacity: 0.95; stroke-width: 1.8; stroke-linecap: square"/>
    </g>
    <g id="text_47">
     <!-- Humidity Weighted -->
     <g transform="translate(89.09125 384.36875) scale(0.08 -0.08)">
      <use xlink:href="#DejaVuSans-48"/>
      <use xlink:href="#DejaVuSans-75" transform="translate(75.195312 0)"/>
      <use xlink:href="#DejaVuSans-6d" transform="translate(138.574219 0)"/>
      <use xlink:href="#DejaVuSans-69" transform="translate(235.986328 0)"/>
      <use xlink:href="#DejaVuSans-64" transform="translate(263.769531 0)"/>
      <use xlink:href="#DejaVuSans-69" transform="translate(327.246094 0)"/>
      <use xlink:href="#DejaVuSans-74" transform="translate(355.029297 0)"/>
      <use xlink:href="#DejaVuSans-79" transform="translate(394.238281 0)"/>
      <use xlink:href="#DejaVuSans-20" transform="translate(453.417969 0)"/>
      <use xlink:href="#DejaVuSans-57" transform="translate(485.205078 0)"/>
      <use xlink:href="#DejaVuSans-65" transform="translate(578.207031 0)"/>
      <use xlink:href="#DejaVuSans-69" transform="translate(639.730469 0)"/>
      <use xlink:href="#DejaVuSans-67" transform="translate(667.513672 0)"/>
      <use xlink:href="#DejaVuSans-68" transform="translate(730.990234 0)"/>
      <use xlink:href="#DejaVuSans-74" transform="translate(794.369141 0)"/>
      <use xlink:href="#DejaVuSans-65" transform="translate(833.578125 0)"/>
      <use xlink:href="#DejaVuSans-64" transform="translate(895.101562 0)"/>
     </g>
    </g>
   </g>
  </g>
  <g id="axes_4"/>
  <g id="text_48">
   <!-- IG — KNOWN (version=E3) · sample 0 -->
   <g transform="translate(222.896094 17.837812) scale(0.14 -0.14)">
    <defs>
     <path id="DejaVuSans-2014" d="M 313 1978 
L 6088 1978 
L 6088 1528 
L 313 1528 
L 313 1978 
z
" transform="scale(0.015625)"/>
     <path id="DejaVuSans-4b" d="M 628 4666 
L 1259 4666 
L 1259 2694 
L 3353 4666 
L 4166 4666 
L 1850 2491 
L 4331 0 
L 3500 0 
L 1259 2247 
L 1259 0 
L 628 0 
L 628 4666 
z
" transform="scale(0.015625)"/>
     <path id="DejaVuSans-4e" d="M 628 4666 
L 1478 4666 
L 3547 763 
L 3547 4666 
L 4159 4666 
L 4159 0 
L 3309 0 
L 1241 3903 
L 1241 0 
L 628 0 
L 628 4666 
z
" transform="scale(0.015625)"/>
     <path id="DejaVuSans-76" d="M 191 3500 
L 800 3500 
L 1894 563 
L 2988 3500 
L 3597 3500 
L 2284 0 
L 1503 0 
L 191 3500 
z
" transform="scale(0.015625)"/>
     <path id="DejaVuSans-45" d="M 628 4666 
L 3578 4666 
L 3578 4134 
L 1259 4134 
L 1259 2753 
L 3481 2753 
L 3481 2222 
L 1259 2222 
L 1259 531 
L 3634 531 
L 3634 0 
L 628 0 
L 628 4666 
z
" transform="scale(0.015625)"/>
     <path id="DejaVuSans-b7" d="M 684 2619 
L 1344 2619 
L 1344 1825 
L 684 1825 
L 684 2619 
z
" transform="scale(0.015625)"/>
    </defs>
    <use xlink:href="#DejaVuSans-49"/>
    <use xlink:href="#DejaVuSans-47" transform="translate(29.492188 0)"/>
    <use xlink:href="#DejaVuSans-20" transform="translate(106.982422 0)"/>
    <use xlink:href="#DejaVuSans-2014" transform="translate(138.769531 0)"/>
    <use xlink:href="#DejaVuSans-20" transform="translate(238.769531 0)"/>
    <use xlink:href="#DejaVuSans-4b" transform="translate(270.556641 0)"/>
    <use xlink:href="#DejaVuSans-4e" transform="translate(336.132812 0)"/>
    <use xlink:href="#DejaVuSans-4f" transform="translate(410.9375 0)"/>
    <use xlink:href="#DejaVuSans-57" transform="translate(489.648438 0)"/>
    <use xlink:href="#DejaVuSans-4e" transform="translate(588.525391 0)"/>
    <use xlink:href="#DejaVuSans-20" transform="translate(663.330078 0)"/>
    <use xlink:href="#DejaVuSans-28" transform="translate(695.117188 0)"/>
    <use xlink:href="#DejaVuSans-76" transform="translate(734.130859 0)"/>
    <use xlink:href="#DejaVuSans-65" transform="translate(793.310547 0)"/>
    <use xlink:href="#DejaVuSans-72" transform="translate(854.833984 0)"/>
    <use xlink:href="#DejaVuSans-73" transform="translate(895.947266 0)"/>
    <use xlink:href="#DejaVuSans-69" transform="translate(948.046875 0)"/>
    <use xlink:href="#DejaVuSans-6f" transform="translate(975.830078 0)"/>
    <use xlink:href="#DejaVuSans-6e" transform="translate(1037.011719 0)"/>
    <use xlink:href="#DejaVuSans-3d" transform="translate(1100.390625 0)"/>
    <use xlink:href="#DejaVuSans-45" transform="translate(1184.179688 0)"/>
    <use xlink:href="#DejaVuSans-33" transform="translate(1247.363281 0)"/>
    <use xlink:href="#DejaVuSans-29" transform="translate(1310.986328 0)"/>
    <use xlink:href="#DejaVuSans-20" transform="translate(1350 0)"/>
    <use xlink:href="#DejaVuSans-b7" transform="translate(1381.787109 0)"/>
    <use xlink:href="#DejaVuSans-20" transform="translate(1413.574219 0)"/>
    <use xlink:href="#DejaVuSans-73" transform="translate(1445.361328 0)"/>
    <use xlink:href="#DejaVuSans-61" transform="translate(1497.460938 0)"/>
    <use xlink:href="#DejaVuSans-6d" transform="translate(1558.740234 0)"/>
    <use xlink:href="#DejaVuSans-70" transform="translate(1656.152344 0)"/>
    <use xlink:href="#DejaVuSans-6c" transform="translate(1719.628906 0)"/>
    <use xlink:href="#DejaVuSans-65" transform="translate(1747.412109 0)"/>
    <use xlink:href="#DejaVuSans-20" transform="translate(1808.935547 0)"/>
    <use xlink:href="#DejaVuSans-30" transform="translate(1840.722656 0)"/>
   </g>
  </g>
 </g>
 <defs>
  <clipPath id="p3a7f75aa7b">
   <rect x="59.49125" y="70.08" width="291.31" height="257.27"/>
  </clipPath>
  <clipPath id="pbc8c56434d">
   <rect x="414.09125" y="70.08" width="291.31" height="257.27"/>
  </clipPath>
  <clipPath id="pbbb77f2eef">
   <rect x="59.49125" y="371.09" width="291.31" height="257.27"/>
  </clipPath>
 </defs>
</svg>
